<svg xmlns="http://www.w3.org/2000/svg" xmlns:xlink="http://www.w3.org/1999/xlink" contentStyleType="text/css" data-diagram-type="ACTIVITY" height="663px" preserveAspectRatio="none" style="width:735px;height:663px;background:#FFFFFF;" version="1.1" viewBox="0 0 735 663" width="735px" zoomAndPan="magnify"><?plantuml 1.2026.3beta6?><defs/><g><rect fill="none" height="20.9531" style="stroke:none;stroke-width:1;" width="674.6108" x="20" y="17.7451"/><ellipse cx="124.9395" cy="53.6982" fill="#222222" rx="10" ry="10" style="stroke:#222222;stroke-width:1;"/><rect fill="#F1F1F1" height="33.9688" rx="12.5" ry="12.5" style="stroke:#181818;stroke-width:0.5;" width="126.6113" x="61.6338" y="83.6982"/><text fill="#000000" font-family="sans-serif" font-size="12" lengthAdjust="spacing" textLength="106.6113" x="71.6338" y="104.8369">Create/Join Group</text><rect fill="#F1F1F1" height="33.9688" rx="12.5" ry="12.5" style="stroke:#181818;stroke-width:0.5;" width="165.5352" x="42.1719" y="137.667"/><text fill="#000000" font-family="sans-serif" font-size="12" lengthAdjust="spacing" textLength="145.5352" x="52.1719" y="158.8057">Enable Location Sharing</text><rect fill="#F1F1F1" height="33.9688" rx="12.5" ry="12.5" style="stroke:#181818;stroke-width:0.5;" width="197.8789" x="26" y="289.6045"/><text fill="#000000" font-family="sans-serif" font-size="12" lengthAdjust="spacing" textLength="177.8789" x="36" y="310.7432">Send Location via WebSocket</text><polygon fill="#F1F1F1" points="124.9395,245.6045,136.9395,257.6045,124.9395,269.6045,112.9395,257.6045,124.9395,245.6045" style="stroke:#181818;stroke-width:0.5;"/><line style="stroke:#000000;stroke-width:1.5;" x1="20" x2="20" y1="17.7451" y2="642.7075"/><rect fill="#F1F1F1" height="33.9688" rx="12.5" ry="12.5" style="stroke:#181818;stroke-width:0.5;" width="216.0078" x="234.623" y="191.6357"/><text fill="#000000" font-family="sans-serif" font-size="12" lengthAdjust="spacing" textLength="196.0078" x="244.623" y="212.7744">Start interval updates (every 3s)</text><rect fill="#F1F1F1" height="33.9688" rx="12.5" ry="12.5" style="stroke:#181818;stroke-width:0.5;" width="217.4961" x="233.8789" y="343.5732"/><text fill="#000000" font-family="sans-serif" font-size="12" lengthAdjust="spacing" textLength="197.4961" x="243.8789" y="364.7119">Broadcast to Group (WebSocket)</text><rect fill="#F1F1F1" height="33.9688" rx="12.5" ry="12.5" style="stroke:#181818;stroke-width:0.5;" width="110.8672" x="287.1934" y="512.77"/><text fill="#000000" font-family="sans-serif" font-size="12" lengthAdjust="spacing" textLength="90.8672" x="297.1934" y="533.9087">Stop broadcast</text><line style="stroke:#000000;stroke-width:1.5;" x1="227.8789" x2="227.8789" y1="17.7451" y2="642.7075"/><rect fill="#F1F1F1" height="33.9688" rx="12.5" ry="12.5" style="stroke:#181818;stroke-width:0.5;" width="227.375" x="461.375" y="397.542"/><text fill="#000000" font-family="sans-serif" font-size="12" lengthAdjust="spacing" textLength="207.375" x="471.375" y="418.6807">Update map with User A's location</text><polygon fill="#F1F1F1" points="523.5483,451.5107,626.5767,451.5107,638.5767,463.5107,626.5767,475.5107,523.5483,475.5107,511.5483,463.5107,523.5483,451.5107" style="stroke:#181818;stroke-width:0.5;"/><text fill="#000000" font-family="sans-serif" font-size="11" lengthAdjust="spacing" textLength="103.0283" x="523.5483" y="467.3188">User A connected?</text><text fill="#000000" font-family="sans-serif" font-size="11" lengthAdjust="spacing" textLength="19.0083" x="638.5767" y="460.9165">yes</text><rect fill="#F1F1F1" height="33.9688" rx="12.5" ry="12.5" style="stroke:#181818;stroke-width:0.5;" width="169.0332" x="490.5459" y="566.7388"/><text fill="#000000" font-family="sans-serif" font-size="12" lengthAdjust="spacing" textLength="149.0332" x="500.5459" y="587.8774">Remove User A's marker</text><ellipse cx="575.0625" cy="631.7075" fill="none" rx="11" ry="11" style="stroke:#222222;stroke-width:1;"/><ellipse cx="575.0625" cy="631.7075" fill="#222222" rx="6" ry="6" style="stroke:#222222;stroke-width:1;"/><line style="stroke:#000000;stroke-width:1.5;" x1="455.375" x2="455.375" y1="17.7451" y2="642.7075"/><line style="stroke:#000000;stroke-width:1.5;" x1="692.75" x2="692.75" y1="17.7451" y2="642.7075"/><line style="stroke:#181818;stroke-width:1;" x1="124.9395" x2="124.9395" y1="63.6982" y2="83.6982"/><polygon fill="#181818" points="120.9395,73.6982,124.9395,83.6982,128.9395,73.6982,124.9395,77.6982" style="stroke:#181818;stroke-width:1;"/><line style="stroke:#181818;stroke-width:1;" x1="124.9395" x2="124.9395" y1="117.667" y2="137.667"/><polygon fill="#181818" points="120.9395,127.667,124.9395,137.667,128.9395,127.667,124.9395,131.667" style="stroke:#181818;stroke-width:1;"/><line style="stroke:#181818;stroke-width:1;" x1="124.9395" x2="124.9395" y1="269.6045" y2="289.6045"/><polygon fill="#181818" points="120.9395,279.6045,124.9395,289.6045,128.9395,279.6045,124.9395,283.6045" style="stroke:#181818;stroke-width:1;"/><line style="stroke:#181818;stroke-width:1;" x1="575.0625" x2="575.0625" y1="431.5107" y2="451.5107"/><polygon fill="#181818" points="571.0625,441.5107,575.0625,451.5107,579.0625,441.5107,575.0625,445.5107" style="stroke:#181818;stroke-width:1;"/><line style="stroke:#181818;stroke-width:1;" x1="575.0625" x2="575.0625" y1="600.7075" y2="620.7075"/><polygon fill="#181818" points="571.0625,610.7075,575.0625,620.7075,579.0625,610.7075,575.0625,614.7075" style="stroke:#181818;stroke-width:1;"/><line style="stroke:#181818;stroke-width:1;" x1="124.9395" x2="124.9395" y1="171.6357" y2="176.6357"/><line style="stroke:#181818;stroke-width:1;" x1="124.9395" x2="342.627" y1="176.6357" y2="176.6357"/><line style="stroke:#181818;stroke-width:1;" x1="342.627" x2="342.627" y1="176.6357" y2="191.6357"/><polygon fill="#181818" points="338.627,181.6357,342.627,191.6357,346.627,181.6357,342.627,185.6357" style="stroke:#181818;stroke-width:1;"/><line style="stroke:#181818;stroke-width:1;" x1="124.9395" x2="124.9395" y1="323.5732" y2="328.5732"/><line style="stroke:#181818;stroke-width:1;" x1="124.9395" x2="342.627" y1="328.5732" y2="328.5732"/><line style="stroke:#181818;stroke-width:1;" x1="342.627" x2="342.627" y1="328.5732" y2="343.5732"/><polygon fill="#181818" points="338.627,333.5732,342.627,343.5732,346.627,333.5732,342.627,337.5732" style="stroke:#181818;stroke-width:1;"/><line style="stroke:#181818;stroke-width:1;" x1="342.627" x2="342.627" y1="377.542" y2="382.542"/><line style="stroke:#181818;stroke-width:1;" x1="342.627" x2="575.0625" y1="382.542" y2="382.542"/><line style="stroke:#181818;stroke-width:1;" x1="575.0625" x2="575.0625" y1="382.542" y2="397.542"/><polygon fill="#181818" points="571.0625,387.542,575.0625,397.542,579.0625,387.542,575.0625,391.542" style="stroke:#181818;stroke-width:1;"/><line style="stroke:#181818;stroke-width:1;" x1="638.5767" x2="700.75" y1="463.5107" y2="463.5107"/><polygon fill="#181818" points="696.75,370.5576,700.75,360.5576,704.75,370.5576,700.75,366.5576" style="stroke:#181818;stroke-width:1;"/><line style="stroke:#181818;stroke-width:1;" x1="700.75" x2="700.75" y1="257.6045" y2="463.5107"/><line style="stroke:#181818;stroke-width:1;" x1="700.75" x2="136.9395" y1="257.6045" y2="257.6045"/><polygon fill="#181818" points="146.9395,253.6045,136.9395,257.6045,146.9395,261.6045,142.9395,257.6045" style="stroke:#181818;stroke-width:1;"/><line style="stroke:#181818;stroke-width:1;" x1="342.627" x2="342.627" y1="225.6045" y2="230.6045"/><line style="stroke:#181818;stroke-width:1;" x1="342.627" x2="124.9395" y1="230.6045" y2="230.6045"/><line style="stroke:#181818;stroke-width:1;" x1="124.9395" x2="124.9395" y1="230.6045" y2="245.6045"/><polygon fill="#181818" points="120.9395,235.6045,124.9395,245.6045,128.9395,235.6045,124.9395,239.6045" style="stroke:#181818;stroke-width:1;"/><line style="stroke:#181818;stroke-width:1;" x1="575.0625" x2="575.0625" y1="475.5107" y2="497.77"/><line style="stroke:#181818;stroke-width:1;" x1="575.0625" x2="342.627" y1="497.77" y2="497.77"/><line style="stroke:#181818;stroke-width:1;" x1="342.627" x2="342.627" y1="497.77" y2="512.77"/><polygon fill="#181818" points="338.627,502.77,342.627,512.77,346.627,502.77,342.627,506.77" style="stroke:#181818;stroke-width:1;"/><text fill="#000000" font-family="sans-serif" font-size="11" lengthAdjust="spacing" textLength="13.7017" x="579.0625" y="491.27">no</text><line style="stroke:#181818;stroke-width:1;" x1="342.627" x2="342.627" y1="546.7388" y2="551.7388"/><line style="stroke:#181818;stroke-width:1;" x1="342.627" x2="575.0625" y1="551.7388" y2="551.7388"/><line style="stroke:#181818;stroke-width:1;" x1="575.0625" x2="575.0625" y1="551.7388" y2="566.7388"/><polygon fill="#181818" points="571.0625,556.7388,575.0625,566.7388,579.0625,556.7388,575.0625,560.7388" style="stroke:#181818;stroke-width:1;"/><text fill="#000000" font-family="sans-serif" font-size="18" lengthAdjust="spacing" textLength="59.0625" x="94.4082" y="34.4531">User A</text><text fill="#000000" font-family="sans-serif" font-size="18" lengthAdjust="spacing" textLength="77.6074" x="302.8232" y="34.4531">Backend</text><text fill="#000000" font-family="sans-serif" font-size="18" lengthAdjust="spacing" textLength="59.0977" x="544.5137" y="34.4531">User B</text><?plantuml-src NP1DIyH044JlyolgPd8G3zuce1WHGJmP5i-Tf3739jD3psoMXVnunyr-uVrLlUfUDf4LBuk9YJGP-wfCYHy-n7cyg-n2PUoRftPaV4f7oOb7Cv0w_rEPfQPkoxvVZ6t-ud0-iSuqOXVwN1DHyCnwm6CiCtrMAOSiCO1jSlZQEpl2DxUDvD9qsvx9MeNwZc92adKOYWjxAQ-FxEOenqG1UvS6hDwxYF5agauJi1zSFgnO0NJYFNU9--SIBcy_S2pD_PENVvTAG7kUSsEsNpp9p5VTHBfbhV9h9Vm2?></g></svg>