<svg xmlns="http://www.w3.org/2000/svg" xmlns:xlink="http://www.w3.org/1999/xlink" contentStyleType="text/css" data-diagram-type="ACTIVITY" height="793px" preserveAspectRatio="none" style="width:333px;height:793px;background:#FFFFFF;" version="1.1" viewBox="0 0 333 793" width="333px" zoomAndPan="magnify"><?plantuml 1.2026.3beta6?><defs/><g><ellipse cx="159.3247" cy="25" fill="#222222" rx="10" ry="10" style="stroke:#222222;stroke-width:1;"/><rect fill="#F1F1F1" height="33.9688" rx="12.5" ry="12.5" style="stroke:#181818;stroke-width:0.5;" width="164.9023" x="76.8735" y="55"/><text fill="#000000" font-family="sans-serif" font-size="12" lengthAdjust="spacing" textLength="144.9023" x="86.8735" y="76.1387">User opens Report Page</text><polygon fill="#F1F1F1" points="123.9775,108.9688,194.6719,108.9688,206.6719,120.9688,194.6719,132.9688,123.9775,132.9688,111.9775,120.9688,123.9775,108.9688" style="stroke:#181818;stroke-width:0.5;"/><text fill="#000000" font-family="sans-serif" font-size="11" lengthAdjust="spacing" textLength="70.6943" x="123.9775" y="124.7769">Anonymous?</text><text fill="#000000" font-family="sans-serif" font-size="11" lengthAdjust="spacing" textLength="19.0083" x="92.9692" y="118.3745">yes</text><text fill="#000000" font-family="sans-serif" font-size="11" lengthAdjust="spacing" textLength="13.7017" x="206.6719" y="118.3745">no</text><rect fill="#F1F1F1" height="33.9688" rx="12.5" ry="12.5" style="stroke:#181818;stroke-width:0.5;" width="127.8477" x="16" y="142.9688"/><text fill="#000000" font-family="sans-serif" font-size="12" lengthAdjust="spacing" textLength="107.8477" x="26" y="164.1074">Generate temp ID</text><rect fill="#F1F1F1" height="33.9688" rx="12.5" ry="12.5" style="stroke:#181818;stroke-width:0.5;" width="149.7559" x="163.8477" y="142.9688"/><text fill="#000000" font-family="sans-serif" font-size="12" lengthAdjust="spacing" textLength="129.7559" x="173.8477" y="164.1074">Use registered profile</text><polygon fill="#F1F1F1" points="159.3247,182.9375,171.3247,194.9375,159.3247,206.9375,147.3247,194.9375,159.3247,182.9375" style="stroke:#181818;stroke-width:0.5;"/><rect fill="#F1F1F1" height="33.9688" rx="12.5" ry="12.5" style="stroke:#181818;stroke-width:0.5;" width="133.3906" x="92.6294" y="226.9375"/><text fill="#000000" font-family="sans-serif" font-size="12" lengthAdjust="spacing" textLength="113.3906" x="102.6294" y="248.0762">Select Threat Type</text><rect fill="#F1F1F1" height="33.9688" rx="12.5" ry="12.5" style="stroke:#181818;stroke-width:0.5;" width="183.2012" x="67.7241" y="280.9063"/><text fill="#000000" font-family="sans-serif" font-size="12" lengthAdjust="spacing" textLength="163.2012" x="77.7241" y="302.0449">Add Location (GPS/Manual)</text><rect fill="#F1F1F1" height="33.9688" rx="12.5" ry="12.5" style="stroke:#181818;stroke-width:0.5;" width="119.709" x="99.4702" y="383.2773"/><text fill="#000000" font-family="sans-serif" font-size="12" lengthAdjust="spacing" textLength="99.709" x="109.4702" y="404.416">Upload to server</text><polygon fill="#F1F1F1" points="98.575,334.875,220.0745,334.875,232.0745,346.875,220.0745,358.875,98.575,358.875,86.575,346.875,98.575,334.875" style="stroke:#181818;stroke-width:0.5;"/><text fill="#000000" font-family="sans-serif" font-size="11" lengthAdjust="spacing" textLength="19.0083" x="163.3247" y="369.0854">yes</text><text fill="#000000" font-family="sans-serif" font-size="11" lengthAdjust="spacing" textLength="121.4995" x="98.575" y="350.6831">Add Audio/Recording?</text><text fill="#000000" font-family="sans-serif" font-size="11" lengthAdjust="spacing" textLength="13.7017" x="232.0745" y="344.2808">no</text><polygon fill="#F1F1F1" points="159.3247,437.2461,171.3247,449.2461,159.3247,461.2461,147.3247,449.2461,159.3247,437.2461" style="stroke:#181818;stroke-width:0.5;"/><rect fill="#F1F1F1" height="33.9688" rx="12.5" ry="12.5" style="stroke:#181818;stroke-width:0.5;" width="200.9141" x="58.8677" y="481.2461"/><text fill="#000000" font-family="sans-serif" font-size="12" lengthAdjust="spacing" textLength="180.9141" x="68.8677" y="502.3848">Submit Report to Backend API</text><rect fill="#F1F1F1" height="33.9688" rx="12.5" ry="12.5" style="stroke:#181818;stroke-width:0.5;" width="245.7852" x="36.4321" y="535.2148"/><text fill="#000000" font-family="sans-serif" font-size="12" lengthAdjust="spacing" textLength="225.7852" x="46.4321" y="556.3535">Store in MongoDB (threats collection)</text><rect fill="#F1F1F1" height="33.9688" rx="12.5" ry="12.5" style="stroke:#181818;stroke-width:0.5;" width="218.4395" x="50.105" y="589.1836"/><text fill="#000000" font-family="sans-serif" font-size="12" lengthAdjust="spacing" textLength="198.4395" x="60.105" y="610.3223">Update Safety Score for Location</text><rect fill="#F1F1F1" height="33.9688" rx="12.5" ry="12.5" style="stroke:#181818;stroke-width:0.5;" width="235.1328" x="41.7583" y="643.1523"/><text fill="#000000" font-family="sans-serif" font-size="12" lengthAdjust="spacing" textLength="215.1328" x="51.7583" y="664.291">Notify Admin for Review (if flagged)</text><rect fill="#F1F1F1" height="33.9688" rx="12.5" ry="12.5" style="stroke:#181818;stroke-width:0.5;" width="192.9219" x="62.8638" y="697.1211"/><text fill="#000000" font-family="sans-serif" font-size="12" lengthAdjust="spacing" textLength="172.9219" x="72.8638" y="718.2598">Display Confirmation to User</text><ellipse cx="159.3247" cy="762.0898" fill="none" rx="11" ry="11" style="stroke:#222222;stroke-width:1;"/><ellipse cx="159.3247" cy="762.0898" fill="#222222" rx="6" ry="6" style="stroke:#222222;stroke-width:1;"/><line style="stroke:#181818;stroke-width:1;" x1="159.3247" x2="159.3247" y1="35" y2="55"/><polygon fill="#181818" points="155.3247,45,159.3247,55,163.3247,45,159.3247,49" style="stroke:#181818;stroke-width:1;"/><line style="stroke:#181818;stroke-width:1;" x1="111.9775" x2="79.9238" y1="120.9688" y2="120.9688"/><line style="stroke:#181818;stroke-width:1;" x1="79.9238" x2="79.9238" y1="120.9688" y2="142.9688"/><polygon fill="#181818" points="75.9238,132.9688,79.9238,142.9688,83.9238,132.9688,79.9238,136.9688" style="stroke:#181818;stroke-width:1;"/><line style="stroke:#181818;stroke-width:1;" x1="206.6719" x2="238.7256" y1="120.9688" y2="120.9688"/><line style="stroke:#181818;stroke-width:1;" x1="238.7256" x2="238.7256" y1="120.9688" y2="142.9688"/><polygon fill="#181818" points="234.7256,132.9688,238.7256,142.9688,242.7256,132.9688,238.7256,136.9688" style="stroke:#181818;stroke-width:1;"/><line style="stroke:#181818;stroke-width:1;" x1="79.9238" x2="79.9238" y1="176.9375" y2="194.9375"/><line style="stroke:#181818;stroke-width:1;" x1="79.9238" x2="147.3247" y1="194.9375" y2="194.9375"/><polygon fill="#181818" points="137.3247,190.9375,147.3247,194.9375,137.3247,198.9375,141.3247,194.9375" style="stroke:#181818;stroke-width:1;"/><line style="stroke:#181818;stroke-width:1;" x1="238.7256" x2="238.7256" y1="176.9375" y2="194.9375"/><line style="stroke:#181818;stroke-width:1;" x1="238.7256" x2="171.3247" y1="194.9375" y2="194.9375"/><polygon fill="#181818" points="181.3247,190.9375,171.3247,194.9375,181.3247,198.9375,177.3247,194.9375" style="stroke:#181818;stroke-width:1;"/><line style="stroke:#181818;stroke-width:1;" x1="159.3247" x2="159.3247" y1="88.9688" y2="108.9688"/><polygon fill="#181818" points="155.3247,98.9688,159.3247,108.9688,163.3247,98.9688,159.3247,102.9688" style="stroke:#181818;stroke-width:1;"/><line style="stroke:#181818;stroke-width:1;" x1="159.3247" x2="159.3247" y1="206.9375" y2="226.9375"/><polygon fill="#181818" points="155.3247,216.9375,159.3247,226.9375,163.3247,216.9375,159.3247,220.9375" style="stroke:#181818;stroke-width:1;"/><line style="stroke:#181818;stroke-width:1;" x1="159.3247" x2="159.3247" y1="260.9063" y2="280.9063"/><polygon fill="#181818" points="155.3247,270.9063,159.3247,280.9063,163.3247,270.9063,159.3247,274.9063" style="stroke:#181818;stroke-width:1;"/><line style="stroke:#181818;stroke-width:1;" x1="159.3247" x2="159.3247" y1="358.875" y2="383.2773"/><polygon fill="#181818" points="155.3247,373.2773,159.3247,383.2773,163.3247,373.2773,159.3247,377.2773" style="stroke:#181818;stroke-width:1;"/><line style="stroke:#181818;stroke-width:1;" x1="232.0745" x2="244.0745" y1="346.875" y2="346.875"/><polygon fill="#181818" points="240.0745,390.2617,244.0745,400.2617,248.0745,390.2617,244.0745,394.2617" style="stroke:#181818;stroke-width:1;"/><line style="stroke:#181818;stroke-width:1;" x1="244.0745" x2="244.0745" y1="346.875" y2="449.2461"/><line style="stroke:#181818;stroke-width:1;" x1="244.0745" x2="171.3247" y1="449.2461" y2="449.2461"/><polygon fill="#181818" points="181.3247,445.2461,171.3247,449.2461,181.3247,453.2461,177.3247,449.2461" style="stroke:#181818;stroke-width:1;"/><line style="stroke:#181818;stroke-width:1;" x1="159.3247" x2="159.3247" y1="417.2461" y2="437.2461"/><polygon fill="#181818" points="155.3247,427.2461,159.3247,437.2461,163.3247,427.2461,159.3247,431.2461" style="stroke:#181818;stroke-width:1;"/><line style="stroke:#181818;stroke-width:1;" x1="159.3247" x2="159.3247" y1="314.875" y2="334.875"/><polygon fill="#181818" points="155.3247,324.875,159.3247,334.875,163.3247,324.875,159.3247,328.875" style="stroke:#181818;stroke-width:1;"/><line style="stroke:#181818;stroke-width:1;" x1="159.3247" x2="159.3247" y1="461.2461" y2="481.2461"/><polygon fill="#181818" points="155.3247,471.2461,159.3247,481.2461,163.3247,471.2461,159.3247,475.2461" style="stroke:#181818;stroke-width:1;"/><line style="stroke:#181818;stroke-width:1;" x1="159.3247" x2="159.3247" y1="515.2148" y2="535.2148"/><polygon fill="#181818" points="155.3247,525.2148,159.3247,535.2148,163.3247,525.2148,159.3247,529.2148" style="stroke:#181818;stroke-width:1;"/><line style="stroke:#181818;stroke-width:1;" x1="159.3247" x2="159.3247" y1="569.1836" y2="589.1836"/><polygon fill="#181818" points="155.3247,579.1836,159.3247,589.1836,163.3247,579.1836,159.3247,583.1836" style="stroke:#181818;stroke-width:1;"/><line style="stroke:#181818;stroke-width:1;" x1="159.3247" x2="159.3247" y1="623.1523" y2="643.1523"/><polygon fill="#181818" points="155.3247,633.1523,159.3247,643.1523,163.3247,633.1523,159.3247,637.1523" style="stroke:#181818;stroke-width:1;"/><line style="stroke:#181818;stroke-width:1;" x1="159.3247" x2="159.3247" y1="677.1211" y2="697.1211"/><polygon fill="#181818" points="155.3247,687.1211,159.3247,697.1211,163.3247,687.1211,159.3247,691.1211" style="stroke:#181818;stroke-width:1;"/><line style="stroke:#181818;stroke-width:1;" x1="159.3247" x2="159.3247" y1="731.0898" y2="751.0898"/><polygon fill="#181818" points="155.3247,741.0898,159.3247,751.0898,163.3247,741.0898,159.3247,745.0898" style="stroke:#181818;stroke-width:1;"/><?plantuml-src PP71Ri8m38RlVGeVoubxEKnbI0XfJ8YE1yWQfrXBuyXncVhsSzcO9ksKm-_y_Zwvg1Ejcaj10SwO2fmnioYSt82RYWBKRU8qZpoLfnNe5HFKCvPL1T3iCQ4uHL0SCnnscmfZGQWJtsCh1S61YgAWXomSA5ef9a-XQZgCs2kyNGMTFNEsg6czXnVkdHBRelsfMnzTcbnS_R1Ot4wUU7t6diLJ6lvHNN9avq4PJEg6yfVgiNfw7qaVgZQvTVs7PT2U3WRHAGi29JXo6dYtXLhla0LwZWkqmHcGRVABVUS2wWnTl_mABBy2DlBAIc66rezMjsHdl15-Gcqs8RfXGByqxQZaw6PuvXH8nczzurhkigcASlu2?></g></svg>