<svg xmlns="http://www.w3.org/2000/svg" xmlns:xlink="http://www.w3.org/1999/xlink" contentStyleType="text/css" data-diagram-type="CLASS" height="687px" preserveAspectRatio="none" style="width:695px;height:687px;background:#FFFFFF;" version="1.1" viewBox="0 0 695 687" width="695px" zoomAndPan="magnify"><?plantuml 1.2026.3beta6?><defs/><g><!--class User--><g class="entity" data-qualified-name="User" data-source-line="1" id="ent0002"><rect fill="#F1F1F1" height="113.1875" rx="2.5" ry="2.5" style="stroke:#181818;stroke-width:0.5;" width="178.5371" x="474.54" y="163.89"/><ellipse cx="543.6035" cy="179.89" fill="#ADD1B2" rx="11" ry="11" style="stroke:#181818;stroke-width:1;"/><path d="M546.5722,185.5306 Q545.9941,185.8275 545.3535,185.9681 Q544.7129,186.1244 544.0097,186.1244 Q541.5097,186.1244 540.1816,184.4838 Q538.8691,182.8275 538.8691,179.7025 Q538.8691,176.5775 540.1816,174.9213 Q541.5097,173.265 544.0097,173.265 Q544.7129,173.265 545.3535,173.4213 Q546.0097,173.5775 546.5722,173.8744 L546.5722,176.5931 Q545.9472,176.015 545.3535,175.7494 Q544.7597,175.4681 544.1347,175.4681 Q542.791,175.4681 542.1035,176.5463 Q541.416,177.6088 541.416,179.7025 Q541.416,181.7963 542.1035,182.8744 Q542.791,183.9369 544.1347,183.9369 Q544.7597,183.9369 545.3535,183.6713 Q545.9472,183.39 546.5722,182.8119 L546.5722,185.5306 Z " fill="#000000"/><text fill="#000000" font-family="sans-serif" font-size="14" lengthAdjust="spacing" textLength="31.9102" x="564.1035" y="184.7367">User</text><line style="stroke:#181818;stroke-width:0.5;" x1="475.54" x2="652.0771" y1="195.89" y2="195.89"/><g data-visibility-modifier="PRIVATE_FIELD"><rect fill="none" height="6" style="stroke:#C82930;stroke-width:1;" width="6" x="482.54" y="206.5384"/></g><text fill="#000000" font-family="sans-serif" font-size="14" lengthAdjust="spacing" textLength="78.0186" x="494.54" y="212.8851">user_id: str</text><g data-visibility-modifier="PRIVATE_FIELD"><rect fill="none" height="6" style="stroke:#C82930;stroke-width:1;" width="6" x="482.54" y="222.8353"/></g><text fill="#000000" font-family="sans-serif" font-size="14" lengthAdjust="spacing" textLength="106.75" x="494.54" y="229.182">email: EmailStr</text><g data-visibility-modifier="PRIVATE_FIELD"><rect fill="none" height="6" style="stroke:#C82930;stroke-width:1;" width="6" x="482.54" y="239.1322"/></g><text fill="#000000" font-family="sans-serif" font-size="14" lengthAdjust="spacing" textLength="152.5371" x="494.54" y="245.4789">hashed_password: str</text><line style="stroke:#181818;stroke-width:0.5;" x1="475.54" x2="652.0771" y1="252.7806" y2="252.7806"/><g data-visibility-modifier="PUBLIC_METHOD"><ellipse cx="485.54" cy="266.4291" fill="#84BE84" rx="3" ry="3" style="stroke:#038048;stroke-width:1;"/></g><text fill="#000000" font-family="sans-serif" font-size="14" lengthAdjust="spacing" textLength="124.3936" x="494.54" y="269.7757">verify_password()</text></g><!--class SOSEvent--><g class="entity" data-qualified-name="SOSEvent" data-source-line="8" id="ent0003"><rect fill="#F1F1F1" height="145.7813" rx="2.5" ry="2.5" style="stroke:#181818;stroke-width:0.5;" width="189.543" x="469.04" y="337.07"/><ellipse cx="525.1118" cy="353.07" fill="#ADD1B2" rx="11" ry="11" style="stroke:#181818;stroke-width:1;"/><path d="M528.0805,358.7106 Q527.5024,359.0075 526.8618,359.1481 Q526.2212,359.3044 525.518,359.3044 Q523.018,359.3044 521.6899,357.6638 Q520.3774,356.0075 520.3774,352.8825 Q520.3774,349.7575 521.6899,348.1013 Q523.018,346.445 525.518,346.445 Q526.2212,346.445 526.8618,346.6013 Q527.518,346.7575 528.0805,347.0544 L528.0805,349.7731 Q527.4555,349.195 526.8618,348.9294 Q526.268,348.6481 525.643,348.6481 Q524.2993,348.6481 523.6118,349.7263 Q522.9243,350.7888 522.9243,352.8825 Q522.9243,354.9763 523.6118,356.0544 Q524.2993,357.1169 525.643,357.1169 Q526.268,357.1169 526.8618,356.8513 Q527.4555,356.57 528.0805,355.9919 L528.0805,358.7106 Z " fill="#000000"/><text fill="#000000" font-family="sans-serif" font-size="14" lengthAdjust="spacing" textLength="68.8994" x="545.6118" y="357.9167">SOSEvent</text><line style="stroke:#181818;stroke-width:0.5;" x1="470.04" x2="657.583" y1="369.07" y2="369.07"/><g data-visibility-modifier="PRIVATE_FIELD"><rect fill="none" height="6" style="stroke:#C82930;stroke-width:1;" width="6" x="477.04" y="379.7184"/></g><text fill="#000000" font-family="sans-serif" font-size="14" lengthAdjust="spacing" textLength="70.6357" x="489.04" y="386.0651">sos_id: str</text><g data-visibility-modifier="PRIVATE_FIELD"><rect fill="none" height="6" style="stroke:#C82930;stroke-width:1;" width="6" x="477.04" y="396.0153"/></g><text fill="#000000" font-family="sans-serif" font-size="14" lengthAdjust="spacing" textLength="78.0186" x="489.04" y="402.362">user_id: str</text><g data-visibility-modifier="PRIVATE_FIELD"><rect fill="none" height="6" style="stroke:#C82930;stroke-width:1;" width="6" x="477.04" y="412.3122"/></g><text fill="#000000" font-family="sans-serif" font-size="14" lengthAdjust="spacing" textLength="147.8818" x="489.04" y="418.6589">timestamp: datetime</text><g data-visibility-modifier="PRIVATE_FIELD"><rect fill="none" height="6" style="stroke:#C82930;stroke-width:1;" width="6" x="477.04" y="428.6091"/></g><text fill="#000000" font-family="sans-serif" font-size="14" lengthAdjust="spacing" textLength="125.5898" x="489.04" y="434.9557">status: SOSStatus</text><line style="stroke:#181818;stroke-width:0.5;" x1="470.04" x2="657.583" y1="442.2575" y2="442.2575"/><g data-visibility-modifier="PUBLIC_METHOD"><ellipse cx="480.04" cy="455.9059" fill="#84BE84" rx="3" ry="3" style="stroke:#038048;stroke-width:1;"/></g><text fill="#000000" font-family="sans-serif" font-size="14" lengthAdjust="spacing" textLength="94.999" x="489.04" y="459.2526">create_alert()</text><g data-visibility-modifier="PUBLIC_METHOD"><ellipse cx="480.04" cy="472.2028" fill="#84BE84" rx="3" ry="3" style="stroke:#038048;stroke-width:1;"/></g><text fill="#000000" font-family="sans-serif" font-size="14" lengthAdjust="spacing" textLength="163.543" x="489.04" y="475.5495">dispatch_notifications()</text></g><!--class ThreatDetectionService--><g class="entity" data-qualified-name="ThreatDetectionService" data-source-line="17" id="ent0004"><rect fill="#F1F1F1" height="129.4844" rx="2.5" ry="2.5" style="stroke:#181818;stroke-width:0.5;" width="197.6143" x="7" y="345.22"/><ellipse cx="22" cy="361.22" fill="#ADD1B2" rx="11" ry="11" style="stroke:#181818;stroke-width:1;"/><path d="M24.9688,366.8606 Q24.3906,367.1575 23.75,367.2981 Q23.1094,367.4544 22.4063,367.4544 Q19.9063,367.4544 18.5781,365.8138 Q17.2656,364.1575 17.2656,361.0325 Q17.2656,357.9075 18.5781,356.2513 Q19.9063,354.595 22.4063,354.595 Q23.1094,354.595 23.75,354.7513 Q24.4063,354.9075 24.9688,355.2044 L24.9688,357.9231 Q24.3438,357.345 23.75,357.0794 Q23.1563,356.7981 22.5313,356.7981 Q21.1875,356.7981 20.5,357.8763 Q19.8125,358.9388 19.8125,361.0325 Q19.8125,363.1263 20.5,364.2044 Q21.1875,365.2669 22.5313,365.2669 Q23.1563,365.2669 23.75,365.0013 Q24.3438,364.72 24.9688,364.1419 L24.9688,366.8606 Z " fill="#000000"/><text fill="#000000" font-family="sans-serif" font-size="14" lengthAdjust="spacing" textLength="165.6143" x="36" y="366.0667">ThreatDetectionService</text><line style="stroke:#181818;stroke-width:0.5;" x1="8" x2="203.6143" y1="377.22" y2="377.22"/><g data-visibility-modifier="PRIVATE_FIELD"><rect fill="none" height="6" style="stroke:#C82930;stroke-width:1;" width="6" x="15" y="387.8684"/></g><text fill="#000000" font-family="sans-serif" font-size="14" lengthAdjust="spacing" textLength="100.2148" x="27" y="394.2151">whisper_client</text><g data-visibility-modifier="PRIVATE_FIELD"><rect fill="none" height="6" style="stroke:#C82930;stroke-width:1;" width="6" x="15" y="404.1653"/></g><text fill="#000000" font-family="sans-serif" font-size="14" lengthAdjust="spacing" textLength="150.3975" x="27" y="410.512">threat_keywords: List</text><line style="stroke:#181818;stroke-width:0.5;" x1="8" x2="203.6143" y1="417.8138" y2="417.8138"/><g data-visibility-modifier="PUBLIC_METHOD"><ellipse cx="18" cy="431.4622" fill="#84BE84" rx="3" ry="3" style="stroke:#038048;stroke-width:1;"/></g><text fill="#000000" font-family="sans-serif" font-size="14" lengthAdjust="spacing" textLength="127.5518" x="27" y="434.8089">transcribe_audio()</text><g data-visibility-modifier="PUBLIC_METHOD"><ellipse cx="18" cy="447.7591" fill="#84BE84" rx="3" ry="3" style="stroke:#038048;stroke-width:1;"/></g><text fill="#000000" font-family="sans-serif" font-size="14" lengthAdjust="spacing" textLength="112.8066" x="27" y="451.1057">detect_threats()</text><g data-visibility-modifier="PUBLIC_METHOD"><ellipse cx="18" cy="464.0559" fill="#84BE84" rx="3" ry="3" style="stroke:#038048;stroke-width:1;"/></g><text fill="#000000" font-family="sans-serif" font-size="14" lengthAdjust="spacing" textLength="137.457" x="27" y="467.4026">calculate_severity()</text></g><!--class NotificationService--><g class="entity" data-qualified-name="NotificationService" data-source-line="25" id="ent0005"><rect fill="#F1F1F1" height="129.4844" rx="2.5" ry="2.5" style="stroke:#181818;stroke-width:0.5;" width="197.2471" x="238.18" y="542.86"/><ellipse cx="268.1095" cy="558.86" fill="#ADD1B2" rx="11" ry="11" style="stroke:#181818;stroke-width:1;"/><path d="M271.0783,564.5006 Q270.5002,564.7975 269.8595,564.9381 Q269.2189,565.0944 268.5158,565.0944 Q266.0158,565.0944 264.6877,563.4538 Q263.3752,561.7975 263.3752,558.6725 Q263.3752,555.5475 264.6877,553.8913 Q266.0158,552.235 268.5158,552.235 Q269.2189,552.235 269.8595,552.3913 Q270.5158,552.5475 271.0783,552.8444 L271.0783,555.5631 Q270.4533,554.985 269.8595,554.7194 Q269.2658,554.4381 268.6408,554.4381 Q267.297,554.4381 266.6095,555.5163 Q265.922,556.5788 265.922,558.6725 Q265.922,560.7663 266.6095,561.8444 Q267.297,562.9069 268.6408,562.9069 Q269.2658,562.9069 269.8595,562.6413 Q270.4533,562.36 271.0783,561.7819 L271.0783,564.5006 Z " fill="#000000"/><text fill="#000000" font-family="sans-serif" font-size="14" lengthAdjust="spacing" textLength="132.0703" x="285.4272" y="563.7067">NotificationService</text><line style="stroke:#181818;stroke-width:0.5;" x1="239.18" x2="434.4271" y1="574.86" y2="574.86"/><g data-visibility-modifier="PRIVATE_FIELD"><rect fill="none" height="6" style="stroke:#C82930;stroke-width:1;" width="6" x="246.18" y="585.5084"/></g><text fill="#000000" font-family="sans-serif" font-size="14" lengthAdjust="spacing" textLength="71.7158" x="258.18" y="591.8551">fcm_client</text><g data-visibility-modifier="PRIVATE_FIELD"><rect fill="none" height="6" style="stroke:#C82930;stroke-width:1;" width="6" x="246.18" y="601.8053"/></g><text fill="#000000" font-family="sans-serif" font-size="14" lengthAdjust="spacing" textLength="73.6777" x="258.18" y="608.152">sms_client</text><line style="stroke:#181818;stroke-width:0.5;" x1="239.18" x2="434.4271" y1="615.4538" y2="615.4538"/><g data-visibility-modifier="PUBLIC_METHOD"><ellipse cx="249.18" cy="629.1022" fill="#84BE84" rx="3" ry="3" style="stroke:#038048;stroke-width:1;"/></g><text fill="#000000" font-family="sans-serif" font-size="14" lengthAdjust="spacing" textLength="171.2471" x="258.18" y="632.4489">send_push_notification()</text><g data-visibility-modifier="PUBLIC_METHOD"><ellipse cx="249.18" cy="645.3991" fill="#84BE84" rx="3" ry="3" style="stroke:#038048;stroke-width:1;"/></g><text fill="#000000" font-family="sans-serif" font-size="14" lengthAdjust="spacing" textLength="79.8164" x="258.18" y="648.7457">send_sms()</text><g data-visibility-modifier="PUBLIC_METHOD"><ellipse cx="249.18" cy="661.6959" fill="#84BE84" rx="3" ry="3" style="stroke:#038048;stroke-width:1;"/></g><text fill="#000000" font-family="sans-serif" font-size="14" lengthAdjust="spacing" textLength="149.6797" x="258.18" y="665.0426">broadcast_to_group()</text></g><!--class GroupSafetyService--><g class="entity" data-qualified-name="GroupSafetyService" data-source-line="33" id="ent0006"><rect fill="#F1F1F1" height="113.1875" rx="2.5" ry="2.5" style="stroke:#181818;stroke-width:0.5;" width="194.5879" x="239.51" y="353.37"/><ellipse cx="264.9206" cy="369.37" fill="#ADD1B2" rx="11" ry="11" style="stroke:#181818;stroke-width:1;"/><path d="M267.8894,375.0106 Q267.3113,375.3075 266.6706,375.4481 Q266.03,375.6044 265.3269,375.6044 Q262.8269,375.6044 261.4988,373.9638 Q260.1863,372.3075 260.1863,369.1825 Q260.1863,366.0575 261.4988,364.4013 Q262.8269,362.745 265.3269,362.745 Q266.03,362.745 266.6706,362.9013 Q267.3269,363.0575 267.8894,363.3544 L267.8894,366.0731 Q267.2644,365.495 266.6706,365.2294 Q266.0769,364.9481 265.4519,364.9481 Q264.1081,364.9481 263.4206,366.0263 Q262.7331,367.0888 262.7331,369.1825 Q262.7331,371.2763 263.4206,372.3544 Q264.1081,373.4169 265.4519,373.4169 Q266.0769,373.4169 266.6706,373.1513 Q267.2644,372.87 267.8894,372.2919 L267.8894,375.0106 Z " fill="#000000"/><text fill="#000000" font-family="sans-serif" font-size="14" lengthAdjust="spacing" textLength="139.4531" x="281.2341" y="374.2167">GroupSafetyService</text><line style="stroke:#181818;stroke-width:0.5;" x1="240.51" x2="433.0979" y1="385.37" y2="385.37"/><g data-visibility-modifier="PRIVATE_FIELD"><rect fill="none" height="6" style="stroke:#C82930;stroke-width:1;" width="6" x="247.51" y="396.0184"/></g><text fill="#000000" font-family="sans-serif" font-size="14" lengthAdjust="spacing" textLength="168.5879" x="259.51" y="402.3651">active_websockets: Dict</text><line style="stroke:#181818;stroke-width:0.5;" x1="240.51" x2="433.0979" y1="409.6669" y2="409.6669"/><g data-visibility-modifier="PUBLIC_METHOD"><ellipse cx="250.51" cy="423.3153" fill="#84BE84" rx="3" ry="3" style="stroke:#038048;stroke-width:1;"/></g><text fill="#000000" font-family="sans-serif" font-size="14" lengthAdjust="spacing" textLength="103.6396" x="259.51" y="426.662">create_group()</text><g data-visibility-modifier="PUBLIC_METHOD"><ellipse cx="250.51" cy="439.6122" fill="#84BE84" rx="3" ry="3" style="stroke:#038048;stroke-width:1;"/></g><text fill="#000000" font-family="sans-serif" font-size="14" lengthAdjust="spacing" textLength="112.5879" x="259.51" y="442.9589">share_location()</text><g data-visibility-modifier="PUBLIC_METHOD"><ellipse cx="250.51" cy="455.9091" fill="#84BE84" rx="3" ry="3" style="stroke:#038048;stroke-width:1;"/></g><text fill="#000000" font-family="sans-serif" font-size="14" lengthAdjust="spacing" textLength="140.3555" x="259.51" y="459.2557">handle_websocket()</text></g><!--class AnalyticsService--><g class="entity" data-qualified-name="AnalyticsService" data-source-line="40" id="ent0007"><rect fill="#F1F1F1" height="96.8906" rx="2.5" ry="2.5" style="stroke:#181818;stroke-width:0.5;" width="234.3184" x="446.65" y="7"/><ellipse cx="501.9015" cy="23" fill="#ADD1B2" rx="11" ry="11" style="stroke:#181818;stroke-width:1;"/><path d="M504.8702,28.6406 Q504.2921,28.9375 503.6515,29.0781 Q503.0108,29.2344 502.3077,29.2344 Q499.8077,29.2344 498.4796,27.5938 Q497.1671,25.9375 497.1671,22.8125 Q497.1671,19.6875 498.4796,18.0313 Q499.8077,16.375 502.3077,16.375 Q503.0108,16.375 503.6515,16.5313 Q504.3077,16.6875 504.8702,16.9844 L504.8702,19.7031 Q504.2452,19.125 503.6515,18.8594 Q503.0577,18.5781 502.4327,18.5781 Q501.089,18.5781 500.4015,19.6563 Q499.714,20.7188 499.714,22.8125 Q499.714,24.9063 500.4015,25.9844 Q501.089,27.0469 502.4327,27.0469 Q503.0577,27.0469 503.6515,26.7813 Q504.2452,26.5 504.8702,25.9219 L504.8702,28.6406 Z " fill="#000000"/><text fill="#000000" font-family="sans-serif" font-size="14" lengthAdjust="spacing" textLength="115.3154" x="522.4015" y="27.8467">AnalyticsService</text><line style="stroke:#181818;stroke-width:0.5;" x1="447.65" x2="679.9684" y1="39" y2="39"/><g data-visibility-modifier="PRIVATE_FIELD"><rect fill="none" height="6" style="stroke:#C82930;stroke-width:1;" width="6" x="454.65" y="49.6484"/></g><text fill="#000000" font-family="sans-serif" font-size="14" lengthAdjust="spacing" textLength="140.957" x="466.65" y="55.9951">safety_model: joblib</text><line style="stroke:#181818;stroke-width:0.5;" x1="447.65" x2="679.9684" y1="63.2969" y2="63.2969"/><g data-visibility-modifier="PUBLIC_METHOD"><ellipse cx="457.65" cy="76.9453" fill="#84BE84" rx="3" ry="3" style="stroke:#038048;stroke-width:1;"/></g><text fill="#000000" font-family="sans-serif" font-size="14" lengthAdjust="spacing" textLength="167.8018" x="466.65" y="80.292">compute_safety_score()</text><g data-visibility-modifier="PUBLIC_METHOD"><ellipse cx="457.65" cy="93.2422" fill="#84BE84" rx="3" ry="3" style="stroke:#038048;stroke-width:1;"/></g><text fill="#000000" font-family="sans-serif" font-size="14" lengthAdjust="spacing" textLength="208.3184" x="466.65" y="96.5889">generate_recommendations()</text></g><!--class AIService--><g class="entity" data-qualified-name="AIService" data-source-line="46" id="ent0008"><rect fill="#F1F1F1" height="96.8906" rx="2.5" ry="2.5" style="stroke:#181818;stroke-width:0.5;" width="171.2432" x="30.19" y="7"/><ellipse cx="78.8379" cy="23" fill="#ADD1B2" rx="11" ry="11" style="stroke:#181818;stroke-width:1;"/><path d="M81.8067,28.6406 Q81.2286,28.9375 80.5879,29.0781 Q79.9473,29.2344 79.2442,29.2344 Q76.7442,29.2344 75.4161,27.5938 Q74.1036,25.9375 74.1036,22.8125 Q74.1036,19.6875 75.4161,18.0313 Q76.7442,16.375 79.2442,16.375 Q79.9473,16.375 80.5879,16.5313 Q81.2442,16.6875 81.8067,16.9844 L81.8067,19.7031 Q81.1817,19.125 80.5879,18.8594 Q79.9942,18.5781 79.3692,18.5781 Q78.0254,18.5781 77.3379,19.6563 Q76.6504,20.7188 76.6504,22.8125 Q76.6504,24.9063 77.3379,25.9844 Q78.0254,27.0469 79.3692,27.0469 Q79.9942,27.0469 80.5879,26.7813 Q81.1817,26.5 81.8067,25.9219 L81.8067,28.6406 Z " fill="#000000"/><text fill="#000000" font-family="sans-serif" font-size="14" lengthAdjust="spacing" textLength="65.4473" x="99.3379" y="27.8467">AIService</text><line style="stroke:#181818;stroke-width:0.5;" x1="31.19" x2="200.4332" y1="39" y2="39"/><g data-visibility-modifier="PRIVATE_FIELD"><rect fill="none" height="6" style="stroke:#C82930;stroke-width:1;" width="6" x="38.19" y="49.6484"/></g><text fill="#000000" font-family="sans-serif" font-size="14" lengthAdjust="spacing" textLength="93.2422" x="50.19" y="55.9951">gemini_client</text><line style="stroke:#181818;stroke-width:0.5;" x1="31.19" x2="200.4332" y1="63.2969" y2="63.2969"/><g data-visibility-modifier="PUBLIC_METHOD"><ellipse cx="41.19" cy="76.9453" fill="#84BE84" rx="3" ry="3" style="stroke:#038048;stroke-width:1;"/></g><text fill="#000000" font-family="sans-serif" font-size="14" lengthAdjust="spacing" textLength="145.2432" x="50.19" y="80.292">generate_response()</text><g data-visibility-modifier="PUBLIC_METHOD"><ellipse cx="41.19" cy="93.2422" fill="#84BE84" rx="3" ry="3" style="stroke:#038048;stroke-width:1;"/></g><text fill="#000000" font-family="sans-serif" font-size="14" lengthAdjust="spacing" textLength="116.6621" x="50.19" y="96.5889">get_safety_tips()</text></g><!--class FileUploadService--><g class="entity" data-qualified-name="FileUploadService" data-source-line="52" id="ent0009"><rect fill="#F1F1F1" height="96.8906" rx="2.5" ry="2.5" style="stroke:#181818;stroke-width:0.5;" width="165.3643" x="236.12" y="7"/><ellipse cx="254.7754" cy="23" fill="#ADD1B2" rx="11" ry="11" style="stroke:#181818;stroke-width:1;"/><path d="M257.7441,28.6406 Q257.166,28.9375 256.5254,29.0781 Q255.8847,29.2344 255.1816,29.2344 Q252.6816,29.2344 251.3535,27.5938 Q250.041,25.9375 250.041,22.8125 Q250.041,19.6875 251.3535,18.0313 Q252.6816,16.375 255.1816,16.375 Q255.8847,16.375 256.5254,16.5313 Q257.1816,16.6875 257.7441,16.9844 L257.7441,19.7031 Q257.1191,19.125 256.5254,18.8594 Q255.9316,18.5781 255.3066,18.5781 Q253.9629,18.5781 253.2754,19.6563 Q252.5879,20.7188 252.5879,22.8125 Q252.5879,24.9063 253.2754,25.9844 Q253.9629,27.0469 255.3066,27.0469 Q255.9316,27.0469 256.5254,26.7813 Q257.1191,26.5 257.7441,25.9219 L257.7441,28.6406 Z " fill="#000000"/><text fill="#000000" font-family="sans-serif" font-size="14" lengthAdjust="spacing" textLength="125.2412" x="269.5877" y="27.8467">FileUploadService</text><line style="stroke:#181818;stroke-width:0.5;" x1="237.12" x2="400.4843" y1="39" y2="39"/><g data-visibility-modifier="PRIVATE_FIELD"><rect fill="none" height="6" style="stroke:#C82930;stroke-width:1;" width="6" x="244.12" y="49.6484"/></g><text fill="#000000" font-family="sans-serif" font-size="14" lengthAdjust="spacing" textLength="113.7637" x="256.12" y="55.9951">upload_dir: Path</text><line style="stroke:#181818;stroke-width:0.5;" x1="237.12" x2="400.4843" y1="63.2969" y2="63.2969"/><g data-visibility-modifier="PUBLIC_METHOD"><ellipse cx="247.12" cy="76.9453" fill="#84BE84" rx="3" ry="3" style="stroke:#038048;stroke-width:1;"/></g><text fill="#000000" font-family="sans-serif" font-size="14" lengthAdjust="spacing" textLength="138.9131" x="256.12" y="80.292">save_audio_chunk()</text><g data-visibility-modifier="PUBLIC_METHOD"><ellipse cx="247.12" cy="93.2422" fill="#84BE84" rx="3" ry="3" style="stroke:#038048;stroke-width:1;"/></g><text fill="#000000" font-family="sans-serif" font-size="14" lengthAdjust="spacing" textLength="139.3643" x="256.12" y="96.5889">upload_sos_media()</text></g><!--class AuthMiddleware--><g class="entity" data-qualified-name="AuthMiddleware" data-source-line="58" id="ent0010"><rect fill="#F1F1F1" height="96.8906" rx="2.5" ry="2.5" style="stroke:#181818;stroke-width:0.5;" width="155.5068" x="38.05" y="172.04"/><ellipse cx="57.5729" cy="188.04" fill="#ADD1B2" rx="11" ry="11" style="stroke:#181818;stroke-width:1;"/><path d="M60.5416,193.6806 Q59.9635,193.9775 59.3229,194.1181 Q58.6822,194.2744 57.9791,194.2744 Q55.4791,194.2744 54.151,192.6338 Q52.8385,190.9775 52.8385,187.8525 Q52.8385,184.7275 54.151,183.0713 Q55.4791,181.415 57.9791,181.415 Q58.6822,181.415 59.3229,181.5713 Q59.9791,181.7275 60.5416,182.0244 L60.5416,184.7431 Q59.9166,184.165 59.3229,183.8994 Q58.7291,183.6181 58.1041,183.6181 Q56.7604,183.6181 56.0729,184.6963 Q55.3854,185.7588 55.3854,187.8525 Q55.3854,189.9463 56.0729,191.0244 Q56.7604,192.0869 58.1041,192.0869 Q58.7291,192.0869 59.3229,191.8213 Q59.9166,191.54 60.5416,190.9619 L60.5416,193.6806 Z " fill="#000000"/><text fill="#000000" font-family="sans-serif" font-size="14" lengthAdjust="spacing" textLength="113.4561" x="72.5779" y="192.8867">AuthMiddleware</text><line style="stroke:#181818;stroke-width:0.5;" x1="39.05" x2="192.5568" y1="204.04" y2="204.04"/><g data-visibility-modifier="PRIVATE_FIELD"><rect fill="none" height="6" style="stroke:#C82930;stroke-width:1;" width="6" x="46.05" y="214.6884"/></g><text fill="#000000" font-family="sans-serif" font-size="14" lengthAdjust="spacing" textLength="98.998" x="58.05" y="221.0351">jwt_secret: str</text><line style="stroke:#181818;stroke-width:0.5;" x1="39.05" x2="192.5568" y1="228.3369" y2="228.3369"/><g data-visibility-modifier="PUBLIC_METHOD"><ellipse cx="49.05" cy="241.9853" fill="#84BE84" rx="3" ry="3" style="stroke:#038048;stroke-width:1;"/></g><text fill="#000000" font-family="sans-serif" font-size="14" lengthAdjust="spacing" textLength="97.3301" x="58.05" y="245.332">verify_token()</text><g data-visibility-modifier="PUBLIC_METHOD"><ellipse cx="49.05" cy="258.2822" fill="#84BE84" rx="3" ry="3" style="stroke:#038048;stroke-width:1;"/></g><text fill="#000000" font-family="sans-serif" font-size="14" lengthAdjust="spacing" textLength="129.5068" x="58.05" y="261.6289">get_current_user()</text></g><!--class DatabaseConnection--><g class="entity" data-qualified-name="DatabaseConnection" data-source-line="64" id="ent0011"><rect fill="#F1F1F1" height="96.8906" rx="2.5" ry="2.5" style="stroke:#181818;stroke-width:0.5;" width="211.4795" x="228.07" y="172.04"/><ellipse cx="258.1287" cy="188.04" fill="#ADD1B2" rx="11" ry="11" style="stroke:#181818;stroke-width:1;"/><path d="M261.0975,193.6806 Q260.5194,193.9775 259.8787,194.1181 Q259.2381,194.2744 258.535,194.2744 Q256.035,194.2744 254.7069,192.6338 Q253.3944,190.9775 253.3944,187.8525 Q253.3944,184.7275 254.7069,183.0713 Q256.035,181.415 258.535,181.415 Q259.2381,181.415 259.8787,181.5713 Q260.535,181.7275 261.0975,182.0244 L261.0975,184.7431 Q260.4725,184.165 259.8787,183.8994 Q259.285,183.6181 258.66,183.6181 Q257.3162,183.6181 256.6287,184.6963 Q255.9412,185.7588 255.9412,187.8525 Q255.9412,189.9463 256.6287,191.0244 Q257.3162,192.0869 258.66,192.0869 Q259.285,192.0869 259.8787,191.8213 Q260.4725,191.54 261.0975,190.9619 L261.0975,193.6806 Z " fill="#000000"/><text fill="#000000" font-family="sans-serif" font-size="14" lengthAdjust="spacing" textLength="146.0156" x="275.4751" y="192.8867">DatabaseConnection</text><line style="stroke:#181818;stroke-width:0.5;" x1="229.07" x2="438.5495" y1="204.04" y2="204.04"/><g data-visibility-modifier="PRIVATE_FIELD"><rect fill="none" height="6" style="stroke:#C82930;stroke-width:1;" width="6" x="236.07" y="214.6884"/></g><text fill="#000000" font-family="sans-serif" font-size="14" lengthAdjust="spacing" textLength="185.4795" x="248.07" y="221.0351">client: AsyncIOMotorClient</text><line style="stroke:#181818;stroke-width:0.5;" x1="229.07" x2="438.5495" y1="228.3369" y2="228.3369"/><g data-visibility-modifier="PUBLIC_METHOD"><ellipse cx="239.07" cy="241.9853" fill="#84BE84" rx="3" ry="3" style="stroke:#038048;stroke-width:1;"/></g><text fill="#000000" font-family="sans-serif" font-size="14" lengthAdjust="spacing" textLength="66.7324" x="248.07" y="245.332">connect()</text><g data-visibility-modifier="PUBLIC_METHOD"><ellipse cx="239.07" cy="258.2822" fill="#84BE84" rx="3" ry="3" style="stroke:#038048;stroke-width:1;"/></g><text fill="#000000" font-family="sans-serif" font-size="14" lengthAdjust="spacing" textLength="108.083" x="248.07" y="261.6289">get_collection()</text></g><!--link User to SOSEvent--><g class="link" data-entity-1="ent0002" data-entity-2="ent0003" data-link-type="dependency" data-source-line="70" id="lnk12"><path codeLine="70" d="M563.81,277.48 C563.81,296.04 563.81,310.97 563.81,330.58" fill="none" id="User-to-SOSEvent" style="stroke:#181818;stroke-width:1;"/><polygon fill="#181818" points="563.81,336.58,567.81,327.58,563.81,331.58,559.81,327.58,563.81,336.58" style="stroke:#181818;stroke-width:1;"/></g><!--link SOSEvent to NotificationService--><g class="link" data-entity-1="ent0003" data-entity-2="ent0005" data-link-type="dependency" data-source-line="71" id="lnk13"><path codeLine="71" d="M479.93,483.26 C457.32,502.74 437.5745,519.7524 415.5345,538.7524" fill="none" id="SOSEvent-to-NotificationService" style="stroke:#181818;stroke-width:1;"/><polygon fill="#181818" points="410.99,542.67,420.4184,539.8232,414.777,539.4053,415.1949,533.7639,410.99,542.67" style="stroke:#181818;stroke-width:1;"/></g><!--link ThreatDetectionService to NotificationService--><g class="link" data-entity-1="ent0004" data-entity-2="ent0005" data-link-type="dependency" data-source-line="72" id="lnk14"><path codeLine="72" d="M181.45,475.02 C206.97,496.64 230.8814,516.8923 256.4214,538.5223" fill="none" id="ThreatDetectionService-to-NotificationService" style="stroke:#181818;stroke-width:1;"/><polygon fill="#181818" points="261,542.4,256.7172,533.5311,257.1845,539.1686,251.547,539.6359,261,542.4" style="stroke:#181818;stroke-width:1;"/></g><!--link GroupSafetyService to NotificationService--><g class="link" data-entity-1="ent0006" data-entity-2="ent0005" data-link-type="dependency" data-source-line="73" id="lnk15"><path codeLine="73" d="M336.81,467.03 C336.81,490.62 336.81,512.21 336.81,536.6" fill="none" id="GroupSafetyService-to-NotificationService" style="stroke:#181818;stroke-width:1;"/><polygon fill="#181818" points="336.81,542.6,340.81,533.6,336.81,537.6,332.81,533.6,336.81,542.6" style="stroke:#181818;stroke-width:1;"/></g><!--link AnalyticsService to User--><g class="link" data-entity-1="ent0007" data-entity-2="ent0002" data-link-type="dependency" data-source-line="74" id="lnk16"><path codeLine="74" d="M563.81,104.04 C563.81,122.65 563.81,138.13 563.81,157.48" fill="none" id="AnalyticsService-to-User" style="stroke:#181818;stroke-width:1;"/><polygon fill="#181818" points="563.81,163.48,567.81,154.48,563.81,158.48,559.81,154.48,563.81,163.48" style="stroke:#181818;stroke-width:1;"/></g><?plantuml-src TPJFRjim3CRlVWeTDnHv0Hy614qt55ZN0LxF0YqpiHfPCaGwWJ7itIV9IY8ZxSaMHNxVJzGVPO18l15wyRSIOYEcy2jrLmjYdm8uW3QrU8gV9iTwe1uxEORQi_FNv0TnGg_tytNYozVgNrMfvD6yDaydj9nzoD7AviwNzO34C8orw80n3fT21fweZdfD-at6ocD8ac3GSt2DeKxJ2AnwQHthlLR0sbagaVxqiMg7Z2hEDUXFMc46FFUXFZ0femFrWfJovH7dkBZ0y5CJ9o_sO4bvtGQ4gTFkWf2avL97EQZ0gCb4MiBOBvvBfby5x1fehuOIXWQw3Hy4eGqRCj5wkTaoJOQ2F6ozWqu11J8d3zvDOqdm8mOQs2FFQm08NJgXF6DBJXsHGmDsMd7P_ujOCkt1epHkHTA3xKoXKHflBPYPjQArBIKKERWEmpbyTwtHxUBfXd6ARLmII3cFsUQ05dq4yXYoXh3y-ztVFgzz3ZXegykU5YeqXkgREbzCMOyhqU_QuDjeGd_NubEAoKxxMlm6xfSEmIcV5wdwoHwpVCwDDsJ0JiCAUkB-HNUXX-VGtIp-VWuy6BQ0xsuYkoFQ0bjDteVboNZTIjqTCBH0-EYiNMv3rbxQKOijpLOzlxuuTlxnrYArv9SEpfX5OT5FRyjcy-tw05JNbo16FpZlrIVtyhFq3mxiPwbtHomcHiB_?></g></svg>