<svg xmlns="http://www.w3.org/2000/svg" xmlns:xlink="http://www.w3.org/1999/xlink" contentStyleType="text/css" data-diagram-type="DESCRIPTION" height="388px" preserveAspectRatio="none" style="width:612px;height:388px;background:#FFFFFF;" version="1.1" viewBox="0 0 612 388" width="612px" zoomAndPan="magnify"><?plantuml 1.2026.3beta6?><defs/><g><!--entity System--><g class="entity" data-qualified-name="System" data-source-line="1" id="ent0002"><ellipse cx="248.79" cy="167.79" fill="#F1F1F1" rx="8" ry="8" style="stroke:#181818;stroke-width:0.5;"/><text fill="#000000" font-family="sans-serif" font-size="14" lengthAdjust="spacing" textLength="61.8311" x="217.8745" y="197.7851">She Safe</text></g><!--entity User--><g class="entity" data-qualified-name="User" data-source-line="3" id="ent0003"><ellipse cx="79.7851" cy="307.29" fill="#F1F1F1" rx="8" ry="8" style="stroke:#181818;stroke-width:0.5;"/><path d="M79.7851,315.29 L79.7851,342.29 M66.7851,323.29 L92.7851,323.29 M79.7851,342.29 L66.7851,357.29 M79.7851,342.29 L92.7851,357.29" fill="none" style="stroke:#181818;stroke-width:0.5;"/><text fill="#000000" font-family="sans-serif" font-size="14" lengthAdjust="spacing" textLength="31.9102" x="63.83" y="371.7851">User</text></g><!--entity Contacts--><g class="entity" data-qualified-name="Contacts" data-source-line="4" id="ent0004"><ellipse cx="237.7804" cy="307.29" fill="#F1F1F1" rx="8" ry="8" style="stroke:#181818;stroke-width:0.5;"/><path d="M237.7804,315.29 L237.7804,342.29 M224.7804,323.29 L250.7804,323.29 M237.7804,342.29 L224.7804,357.29 M237.7804,342.29 L250.7804,357.29" fill="none" style="stroke:#181818;stroke-width:0.5;"/><text fill="#000000" font-family="sans-serif" font-size="14" lengthAdjust="spacing" textLength="145.4209" x="165.07" y="371.7851">Emergency Contacts</text></g><!--entity Admin--><g class="entity" data-qualified-name="Admin" data-source-line="5" id="ent0005"><ellipse cx="248.7821" cy="14" fill="#F1F1F1" rx="8" ry="8" style="stroke:#181818;stroke-width:0.5;"/><path d="M248.7821,22 L248.7821,49 M235.7821,30 L261.7821,30 M248.7821,49 L235.7821,64 M248.7821,49 L261.7821,64" fill="none" style="stroke:#181818;stroke-width:0.5;"/><text fill="#000000" font-family="sans-serif" font-size="14" lengthAdjust="spacing" textLength="44.8643" x="226.35" y="78.4951">Admin</text></g><!--entity FCM--><g class="entity" data-qualified-name="FCM" data-source-line="6" id="ent0006"><ellipse cx="388.7893" cy="307.29" fill="#F1F1F1" rx="8" ry="8" style="stroke:#181818;stroke-width:0.5;"/><path d="M388.7893,315.29 L388.7893,342.29 M375.7893,323.29 L401.7893,323.29 M388.7893,342.29 L375.7893,357.29 M388.7893,342.29 L401.7893,357.29" fill="none" style="stroke:#181818;stroke-width:0.5;"/><text fill="#000000" font-family="sans-serif" font-size="14" lengthAdjust="spacing" textLength="86.0986" x="345.74" y="371.7851">FCM Service</text></g><!--entity SMS--><g class="entity" data-qualified-name="SMS" data-source-line="7" id="ent0007"><ellipse cx="535.7837" cy="307.29" fill="#F1F1F1" rx="8" ry="8" style="stroke:#181818;stroke-width:0.5;"/><path d="M535.7837,315.29 L535.7837,342.29 M522.7837,323.29 L548.7837,323.29 M535.7837,342.29 L522.7837,357.29 M535.7837,342.29 L548.7837,357.29" fill="none" style="stroke:#181818;stroke-width:0.5;"/><text fill="#000000" font-family="sans-serif" font-size="14" lengthAdjust="spacing" textLength="96.1475" x="487.71" y="371.7851">SMS Gateway</text></g><!--link User to System--><g class="link" data-entity-1="ent0003" data-entity-2="ent0002" data-link-type="dependency" data-source-line="9" id="lnk8"><path d="M96.13,300.44 C110.73,271.99 134.47,232.68 164.79,206.79 C187.91,187.04 217.1947,177.2705 233.7447,172.7205" fill="none" id="User-to-System" style="stroke:#181818;stroke-width:1;"/><polygon fill="#181818" points="239.53,171.13,229.7916,169.6589,234.7089,172.4554,231.9123,177.3727,239.53,171.13" style="stroke:#181818;stroke-width:1;"/><text fill="#000000" font-family="sans-serif" font-size="13" lengthAdjust="spacing" textLength="64.8032" x="165.79" y="219.8569">User Data</text><text fill="#000000" font-family="sans-serif" font-size="13" lengthAdjust="spacing" textLength="55.2119" x="172.6518" y="234.9897">Location</text><text fill="#000000" font-family="sans-serif" font-size="13" lengthAdjust="spacing" textLength="36.9497" x="179.7168" y="250.1225">Audio</text><text fill="#000000" font-family="sans-serif" font-size="13" lengthAdjust="spacing" textLength="50.1973" x="175.1591" y="265.2553">Queries</text></g><!--link System to User--><g class="link" data-entity-1="ent0002" data-entity-2="ent0003" data-link-type="dependency" data-source-line="10" id="lnk9"><path d="M239.44,168.85 C200.53,169.3 52.17,173.21 23.79,206.79 C6,227.84 14.4,242.89 23.79,268.79 C31.64,290.49 45.4755,306.0483 59.0255,318.3983" fill="none" id="System-to-User" style="stroke:#181818;stroke-width:1;"/><polygon fill="#181818" points="63.46,322.44,59.5028,313.4211,59.7646,319.0719,54.1138,319.3337,63.46,322.44" style="stroke:#181818;stroke-width:1;"/><text fill="#000000" font-family="sans-serif" font-size="13" lengthAdjust="spacing" textLength="81.3643" x="24.79" y="242.3569">Notifications</text></g><!--link System to Contacts--><g class="link" data-entity-1="ent0002" data-entity-2="ent0004" data-link-type="dependency" data-source-line="12" id="lnk10"><path d="M248.25,176.86 C246.83,198.44 243.2637,252.6229 240.6437,292.4629" fill="none" id="System-to-Contacts" style="stroke:#181818;stroke-width:1;"/><polygon fill="#181818" points="240.25,298.45,244.832,289.7319,240.5781,293.4608,236.8492,289.2069,240.25,298.45" style="stroke:#181818;stroke-width:1;"/><text fill="#000000" font-family="sans-serif" font-size="13" lengthAdjust="spacing" textLength="68.5864" x="247.79" y="242.3569">SOS Alerts</text></g><!--link Admin to System--><g class="link" data-entity-1="ent0005" data-entity-2="ent0002" data-link-type="dependency" data-source-line="14" id="lnk11"><path d="M248.79,82.29 C248.79,109.21 248.79,137.28 248.79,152.64" fill="none" id="Admin-to-System" style="stroke:#181818;stroke-width:1;"/><polygon fill="#181818" points="248.79,158.64,252.79,149.64,248.79,153.64,244.79,149.64,248.79,158.64" style="stroke:#181818;stroke-width:1;"/><text fill="#000000" font-family="sans-serif" font-size="13" lengthAdjust="spacing" textLength="154.2036" x="249.79" y="124.8569">Manage, View Analytics</text></g><!--link System to FCM--><g class="link" data-entity-1="ent0002" data-entity-2="ent0006" data-link-type="dependency" data-source-line="16" id="lnk12"><path d="M258.13,171.33 C273.74,175.98 305.31,187.25 324.79,206.79 C350.31,232.41 365.3901,264.6002 375.4401,292.7102" fill="none" id="System-to-FCM" style="stroke:#181818;stroke-width:1;"/><polygon fill="#181818" points="377.46,298.36,378.1966,288.5387,375.7767,293.6519,370.6636,291.232,377.46,298.36" style="stroke:#181818;stroke-width:1;"/><text fill="#000000" font-family="sans-serif" font-size="13" lengthAdjust="spacing" textLength="115.1021" x="366.79" y="242.3569">Push notifications</text></g><!--link System to SMS--><g class="link" data-entity-1="ent0002" data-entity-2="ent0007" data-link-type="dependency" data-source-line="17" id="lnk13"><path d="M258.27,169.02 C298.47,170.15 454.47,176.47 490.79,206.79 C517.76,229.31 527.7169,263.0239 532.0469,292.4639" fill="none" id="System-to-SMS" style="stroke:#181818;stroke-width:1;"/><polygon fill="#181818" points="532.92,298.4,535.5678,288.9137,532.1924,293.4532,527.653,290.0778,532.92,298.4" style="stroke:#181818;stroke-width:1;"/><text fill="#000000" font-family="sans-serif" font-size="13" lengthAdjust="spacing" textLength="68.6436" x="527.79" y="242.3569">SMS alerts</text></g><?plantuml-src LO-zRiCm38HtFSN1S_827WeOwSzIfms4Tif2A4n2mAO0IMxWjwyisq2y22Bv7U_e9BYEKTaxmzALAr247MFYtXXooGVyH0xBjthhETnOtOY3rvIRiGZMOi6QIo-wIjuFBIo7Ft7pybol8zjQV53Y1uspRskDcUomtxyiAL2N07YbH3ZhftUKnEjPc-4YFdTE0mVXQ1PyKXP1ZQDFSfMPZ-OPMFDco7vPD1s77DwKt5llbfHklCEly0EDKZScSTjbqu4rleTuXsuSdvZfqhgyLBp-0G00?></g></svg>