<svg xmlns="http://www.w3.org/2000/svg" xmlns:xlink="http://www.w3.org/1999/xlink" contentStyleType="text/css" data-diagram-type="CLASS" height="570px" preserveAspectRatio="none" style="width:1033px;height:570px;background:#FFFFFF;" version="1.1" viewBox="0 0 1033 570" width="1033px" zoomAndPan="magnify"><?plantuml 1.2026.3beta6?><defs/><g><!--class Mobile--><g class="entity" data-qualified-name="Mobile" data-source-line="3" id="ent0002"><rect fill="#F1F1F1" height="48" rx="2.5" ry="2.5" style="stroke:#181818;stroke-width:0.5;" width="122.9043" x="417.38" y="7"/><ellipse cx="432.38" cy="23" fill="#ADD1B2" rx="11" ry="11" style="stroke:#181818;stroke-width:1;"/><path d="M435.3488,28.6406 Q434.7706,28.9375 434.13,29.0781 Q433.4894,29.2344 432.7863,29.2344 Q430.2863,29.2344 428.9581,27.5938 Q427.6456,25.9375 427.6456,22.8125 Q427.6456,19.6875 428.9581,18.0313 Q430.2863,16.375 432.7863,16.375 Q433.4894,16.375 434.13,16.5313 Q434.7863,16.6875 435.3488,16.9844 L435.3488,19.7031 Q434.7238,19.125 434.13,18.8594 Q433.5363,18.5781 432.9113,18.5781 Q431.5675,18.5781 430.88,19.6563 Q430.1925,20.7188 430.1925,22.8125 Q430.1925,24.9063 430.88,25.9844 Q431.5675,27.0469 432.9113,27.0469 Q433.5363,27.0469 434.13,26.7813 Q434.7238,26.5 435.3488,25.9219 L435.3488,28.6406 Z " fill="#000000"/><text fill="#000000" font-family="sans-serif" font-size="14" lengthAdjust="spacing" textLength="90.9043" x="446.38" y="27.8467">Mobile Client</text><line style="stroke:#181818;stroke-width:0.5;" x1="418.38" x2="539.2843" y1="39" y2="39"/><line style="stroke:#181818;stroke-width:0.5;" x1="418.38" x2="539.2843" y1="47" y2="47"/></g><!--class Auth--><g class="entity" data-qualified-name="Auth" data-source-line="4" id="ent0003"><rect fill="#F1F1F1" height="48" rx="2.5" ry="2.5" style="stroke:#181818;stroke-width:0.5;" width="120.1699" x="16.75" y="132"/><ellipse cx="31.75" cy="148" fill="#ADD1B2" rx="11" ry="11" style="stroke:#181818;stroke-width:1;"/><path d="M34.7188,153.6406 Q34.1406,153.9375 33.5,154.0781 Q32.8594,154.2344 32.1563,154.2344 Q29.6563,154.2344 28.3281,152.5938 Q27.0156,150.9375 27.0156,147.8125 Q27.0156,144.6875 28.3281,143.0313 Q29.6563,141.375 32.1563,141.375 Q32.8594,141.375 33.5,141.5313 Q34.1563,141.6875 34.7188,141.9844 L34.7188,144.7031 Q34.0938,144.125 33.5,143.8594 Q32.9063,143.5781 32.2813,143.5781 Q30.9375,143.5781 30.25,144.6563 Q29.5625,145.7188 29.5625,147.8125 Q29.5625,149.9063 30.25,150.9844 Q30.9375,152.0469 32.2813,152.0469 Q32.9063,152.0469 33.5,151.7813 Q34.0938,151.5 34.7188,150.9219 L34.7188,153.6406 Z " fill="#000000"/><text fill="#000000" font-family="sans-serif" font-size="14" lengthAdjust="spacing" textLength="88.1699" x="45.75" y="152.8467">Auth Module</text><line style="stroke:#181818;stroke-width:0.5;" x1="17.75" x2="135.9199" y1="164" y2="164"/><line style="stroke:#181818;stroke-width:0.5;" x1="17.75" x2="135.9199" y1="172" y2="172"/></g><!--class UserDB--><g class="entity" data-qualified-name="UserDB" data-source-line="5" id="ent0004"><rect fill="#F1F1F1" height="48" rx="2.5" ry="2.5" style="stroke:#181818;stroke-width:0.5;" width="105.6709" x="7" y="257"/><ellipse cx="22" cy="273" fill="#ADD1B2" rx="11" ry="11" style="stroke:#181818;stroke-width:1;"/><path d="M24.9688,278.6406 Q24.3906,278.9375 23.75,279.0781 Q23.1094,279.2344 22.4063,279.2344 Q19.9063,279.2344 18.5781,277.5938 Q17.2656,275.9375 17.2656,272.8125 Q17.2656,269.6875 18.5781,268.0313 Q19.9063,266.375 22.4063,266.375 Q23.1094,266.375 23.75,266.5313 Q24.4063,266.6875 24.9688,266.9844 L24.9688,269.7031 Q24.3438,269.125 23.75,268.8594 Q23.1563,268.5781 22.5313,268.5781 Q21.1875,268.5781 20.5,269.6563 Q19.8125,270.7188 19.8125,272.8125 Q19.8125,274.9063 20.5,275.9844 Q21.1875,277.0469 22.5313,277.0469 Q23.1563,277.0469 23.75,276.7813 Q24.3438,276.5 24.9688,275.9219 L24.9688,278.6406 Z " fill="#000000"/><text fill="#000000" font-family="sans-serif" font-size="14" lengthAdjust="spacing" textLength="73.6709" x="36" y="277.8467">User Store</text><line style="stroke:#181818;stroke-width:0.5;" x1="8" x2="111.6709" y1="289" y2="289"/><line style="stroke:#181818;stroke-width:0.5;" x1="8" x2="111.6709" y1="297" y2="297"/></g><!--class SOS--><g class="entity" data-qualified-name="SOS" data-source-line="6" id="ent0005"><rect fill="#F1F1F1" height="48" rx="2.5" ry="2.5" style="stroke:#181818;stroke-width:0.5;" width="116.1504" x="339.76" y="132"/><ellipse cx="354.76" cy="148" fill="#ADD1B2" rx="11" ry="11" style="stroke:#181818;stroke-width:1;"/><path d="M357.7288,153.6406 Q357.1506,153.9375 356.51,154.0781 Q355.8694,154.2344 355.1663,154.2344 Q352.6663,154.2344 351.3381,152.5938 Q350.0256,150.9375 350.0256,147.8125 Q350.0256,144.6875 351.3381,143.0313 Q352.6663,141.375 355.1663,141.375 Q355.8694,141.375 356.51,141.5313 Q357.1663,141.6875 357.7288,141.9844 L357.7288,144.7031 Q357.1038,144.125 356.51,143.8594 Q355.9163,143.5781 355.2913,143.5781 Q353.9475,143.5781 353.26,144.6563 Q352.5725,145.7188 352.5725,147.8125 Q352.5725,149.9063 353.26,150.9844 Q353.9475,152.0469 355.2913,152.0469 Q355.9163,152.0469 356.51,151.7813 Q357.1038,151.5 357.7288,150.9219 L357.7288,153.6406 Z " fill="#000000"/><text fill="#000000" font-family="sans-serif" font-size="14" lengthAdjust="spacing" textLength="84.1504" x="368.76" y="152.8467">SOS Module</text><line style="stroke:#181818;stroke-width:0.5;" x1="340.76" x2="454.9104" y1="164" y2="164"/><line style="stroke:#181818;stroke-width:0.5;" x1="340.76" x2="454.9104" y1="172" y2="172"/></g><!--class Threat--><g class="entity" data-qualified-name="Threat" data-source-line="7" id="ent0006"><rect fill="#F1F1F1" height="48" rx="2.5" ry="2.5" style="stroke:#181818;stroke-width:0.5;" width="150.3232" x="334.67" y="257"/><ellipse cx="349.67" cy="273" fill="#ADD1B2" rx="11" ry="11" style="stroke:#181818;stroke-width:1;"/><path d="M352.6388,278.6406 Q352.0606,278.9375 351.42,279.0781 Q350.7794,279.2344 350.0763,279.2344 Q347.5763,279.2344 346.2481,277.5938 Q344.9356,275.9375 344.9356,272.8125 Q344.9356,269.6875 346.2481,268.0313 Q347.5763,266.375 350.0763,266.375 Q350.7794,266.375 351.42,266.5313 Q352.0763,266.6875 352.6388,266.9844 L352.6388,269.7031 Q352.0138,269.125 351.42,268.8594 Q350.8263,268.5781 350.2013,268.5781 Q348.8575,268.5781 348.17,269.6563 Q347.4825,270.7188 347.4825,272.8125 Q347.4825,274.9063 348.17,275.9844 Q348.8575,277.0469 350.2013,277.0469 Q350.8263,277.0469 351.42,276.7813 Q352.0138,276.5 352.6388,275.9219 L352.6388,278.6406 Z " fill="#000000"/><text fill="#000000" font-family="sans-serif" font-size="14" lengthAdjust="spacing" textLength="118.3232" x="363.67" y="277.8467">Threat Detection</text><line style="stroke:#181818;stroke-width:0.5;" x1="335.67" x2="483.9932" y1="289" y2="289"/><line style="stroke:#181818;stroke-width:0.5;" x1="335.67" x2="483.9932" y1="297" y2="297"/></g><!--class Whisper--><g class="entity" data-qualified-name="Whisper" data-source-line="8" id="ent0007"><rect fill="#F1F1F1" height="48" rx="2.5" ry="2.5" style="stroke:#181818;stroke-width:0.5;" width="145.3467" x="201.16" y="382"/><ellipse cx="216.16" cy="398" fill="#ADD1B2" rx="11" ry="11" style="stroke:#181818;stroke-width:1;"/><path d="M219.1288,403.6406 Q218.5506,403.9375 217.91,404.0781 Q217.2694,404.2344 216.5663,404.2344 Q214.0663,404.2344 212.7381,402.5938 Q211.4256,400.9375 211.4256,397.8125 Q211.4256,394.6875 212.7381,393.0313 Q214.0663,391.375 216.5663,391.375 Q217.2694,391.375 217.91,391.5313 Q218.5663,391.6875 219.1288,391.9844 L219.1288,394.7031 Q218.5038,394.125 217.91,393.8594 Q217.3163,393.5781 216.6913,393.5781 Q215.3475,393.5781 214.66,394.6563 Q213.9725,395.7188 213.9725,397.8125 Q213.9725,399.9063 214.66,400.9844 Q215.3475,402.0469 216.6913,402.0469 Q217.3163,402.0469 217.91,401.7813 Q218.5038,401.5 219.1288,400.9219 L219.1288,403.6406 Z " fill="#000000"/><text fill="#000000" font-family="sans-serif" font-size="14" lengthAdjust="spacing" textLength="113.3467" x="230.16" y="402.8467">Whisper Service</text><line style="stroke:#181818;stroke-width:0.5;" x1="202.16" x2="345.5067" y1="414" y2="414"/><line style="stroke:#181818;stroke-width:0.5;" x1="202.16" x2="345.5067" y1="422" y2="422"/></g><!--class Notify--><g class="entity" data-qualified-name="Notify" data-source-line="9" id="ent0008"><rect fill="#F1F1F1" height="48" rx="2.5" ry="2.5" style="stroke:#181818;stroke-width:0.5;" width="192.6377" x="394.52" y="382"/><ellipse cx="409.52" cy="398" fill="#ADD1B2" rx="11" ry="11" style="stroke:#181818;stroke-width:1;"/><path d="M412.4888,403.6406 Q411.9106,403.9375 411.27,404.0781 Q410.6294,404.2344 409.9263,404.2344 Q407.4263,404.2344 406.0981,402.5938 Q404.7856,400.9375 404.7856,397.8125 Q404.7856,394.6875 406.0981,393.0313 Q407.4263,391.375 409.9263,391.375 Q410.6294,391.375 411.27,391.5313 Q411.9263,391.6875 412.4888,391.9844 L412.4888,394.7031 Q411.8638,394.125 411.27,393.8594 Q410.6763,393.5781 410.0513,393.5781 Q408.7075,393.5781 408.02,394.6563 Q407.3325,395.7188 407.3325,397.8125 Q407.3325,399.9063 408.02,400.9844 Q408.7075,402.0469 410.0513,402.0469 Q410.6763,402.0469 411.27,401.7813 Q411.8638,401.5 412.4888,400.9219 L412.4888,403.6406 Z " fill="#000000"/><text fill="#000000" font-family="sans-serif" font-size="14" lengthAdjust="spacing" textLength="160.6377" x="423.52" y="402.8467">Notification Dispatcher</text><line style="stroke:#181818;stroke-width:0.5;" x1="395.52" x2="586.1577" y1="414" y2="414"/><line style="stroke:#181818;stroke-width:0.5;" x1="395.52" x2="586.1577" y1="422" y2="422"/></g><!--class Analytics--><g class="entity" data-qualified-name="Analytics" data-source-line="10" id="ent0009"><rect fill="#F1F1F1" height="48" rx="2.5" ry="2.5" style="stroke:#181818;stroke-width:0.5;" width="151.7656" x="147.95" y="257"/><ellipse cx="162.95" cy="273" fill="#ADD1B2" rx="11" ry="11" style="stroke:#181818;stroke-width:1;"/><path d="M165.9188,278.6406 Q165.3406,278.9375 164.7,279.0781 Q164.0594,279.2344 163.3563,279.2344 Q160.8563,279.2344 159.5281,277.5938 Q158.2156,275.9375 158.2156,272.8125 Q158.2156,269.6875 159.5281,268.0313 Q160.8563,266.375 163.3563,266.375 Q164.0594,266.375 164.7,266.5313 Q165.3563,266.6875 165.9188,266.9844 L165.9188,269.7031 Q165.2938,269.125 164.7,268.8594 Q164.1063,268.5781 163.4813,268.5781 Q162.1375,268.5781 161.45,269.6563 Q160.7625,270.7188 160.7625,272.8125 Q160.7625,274.9063 161.45,275.9844 Q162.1375,277.0469 163.4813,277.0469 Q164.1063,277.0469 164.7,276.7813 Q165.2938,276.5 165.9188,275.9219 L165.9188,278.6406 Z " fill="#000000"/><text fill="#000000" font-family="sans-serif" font-size="14" lengthAdjust="spacing" textLength="119.7656" x="176.95" y="277.8467">Analytics Service</text><line style="stroke:#181818;stroke-width:0.5;" x1="148.95" x2="298.7156" y1="289" y2="289"/><line style="stroke:#181818;stroke-width:0.5;" x1="148.95" x2="298.7156" y1="297" y2="297"/></g><!--class Group--><g class="entity" data-qualified-name="Group" data-source-line="11" id="ent0010"><rect fill="#F1F1F1" height="48" rx="2.5" ry="2.5" style="stroke:#181818;stroke-width:0.5;" width="124.1621" x="640.75" y="132"/><ellipse cx="655.75" cy="148" fill="#ADD1B2" rx="11" ry="11" style="stroke:#181818;stroke-width:1;"/><path d="M658.7188,153.6406 Q658.1406,153.9375 657.5,154.0781 Q656.8594,154.2344 656.1563,154.2344 Q653.6563,154.2344 652.3281,152.5938 Q651.0156,150.9375 651.0156,147.8125 Q651.0156,144.6875 652.3281,143.0313 Q653.6563,141.375 656.1563,141.375 Q656.8594,141.375 657.5,141.5313 Q658.1563,141.6875 658.7188,141.9844 L658.7188,144.7031 Q658.0938,144.125 657.5,143.8594 Q656.9063,143.5781 656.2813,143.5781 Q654.9375,143.5781 654.25,144.6563 Q653.5625,145.7188 653.5625,147.8125 Q653.5625,149.9063 654.25,150.9844 Q654.9375,152.0469 656.2813,152.0469 Q656.9063,152.0469 657.5,151.7813 Q658.0938,151.5 658.7188,150.9219 L658.7188,153.6406 Z " fill="#000000"/><text fill="#000000" font-family="sans-serif" font-size="14" lengthAdjust="spacing" textLength="92.1621" x="669.75" y="152.8467">Group Safety</text><line style="stroke:#181818;stroke-width:0.5;" x1="641.75" x2="763.9121" y1="164" y2="164"/><line style="stroke:#181818;stroke-width:0.5;" x1="641.75" x2="763.9121" y1="172" y2="172"/></g><!--class LocDB--><g class="entity" data-qualified-name="LocDB" data-source-line="12" id="ent0011"><rect fill="#F1F1F1" height="48" rx="2.5" ry="2.5" style="stroke:#181818;stroke-width:0.5;" width="133.2197" x="636.23" y="257"/><ellipse cx="651.23" cy="273" fill="#ADD1B2" rx="11" ry="11" style="stroke:#181818;stroke-width:1;"/><path d="M654.1988,278.6406 Q653.6206,278.9375 652.98,279.0781 Q652.3394,279.2344 651.6363,279.2344 Q649.1363,279.2344 647.8081,277.5938 Q646.4956,275.9375 646.4956,272.8125 Q646.4956,269.6875 647.8081,268.0313 Q649.1363,266.375 651.6363,266.375 Q652.3394,266.375 652.98,266.5313 Q653.6363,266.6875 654.1988,266.9844 L654.1988,269.7031 Q653.5738,269.125 652.98,268.8594 Q652.3863,268.5781 651.7613,268.5781 Q650.4175,268.5781 649.73,269.6563 Q649.0425,270.7188 649.0425,272.8125 Q649.0425,274.9063 649.73,275.9844 Q650.4175,277.0469 651.7613,277.0469 Q652.3863,277.0469 652.98,276.7813 Q653.5738,276.5 654.1988,275.9219 L654.1988,278.6406 Z " fill="#000000"/><text fill="#000000" font-family="sans-serif" font-size="14" lengthAdjust="spacing" textLength="101.2197" x="665.23" y="277.8467">Location Store</text><line style="stroke:#181818;stroke-width:0.5;" x1="637.23" x2="768.4497" y1="289" y2="289"/><line style="stroke:#181818;stroke-width:0.5;" x1="637.23" x2="768.4497" y1="297" y2="297"/></g><!--class WS--><g class="entity" data-qualified-name="WS" data-source-line="13" id="ent0012"><rect fill="#F1F1F1" height="48" rx="2.5" ry="2.5" style="stroke:#181818;stroke-width:0.5;" width="173.1484" x="845.26" y="257"/><ellipse cx="860.26" cy="273" fill="#ADD1B2" rx="11" ry="11" style="stroke:#181818;stroke-width:1;"/><path d="M863.2288,278.6406 Q862.6506,278.9375 862.01,279.0781 Q861.3694,279.2344 860.6663,279.2344 Q858.1663,279.2344 856.8381,277.5938 Q855.5256,275.9375 855.5256,272.8125 Q855.5256,269.6875 856.8381,268.0313 Q858.1663,266.375 860.6663,266.375 Q861.3694,266.375 862.01,266.5313 Q862.6663,266.6875 863.2288,266.9844 L863.2288,269.7031 Q862.6038,269.125 862.01,268.8594 Q861.4163,268.5781 860.7913,268.5781 Q859.4475,268.5781 858.76,269.6563 Q858.0725,270.7188 858.0725,272.8125 Q858.0725,274.9063 858.76,275.9844 Q859.4475,277.0469 860.7913,277.0469 Q861.4163,277.0469 862.01,276.7813 Q862.6038,276.5 863.2288,275.9219 L863.2288,278.6406 Z " fill="#000000"/><text fill="#000000" font-family="sans-serif" font-size="14" lengthAdjust="spacing" textLength="141.1484" x="874.26" y="277.8467">WebSocket Updates</text><line style="stroke:#181818;stroke-width:0.5;" x1="846.26" x2="1017.4084" y1="289" y2="289"/><line style="stroke:#181818;stroke-width:0.5;" x1="846.26" x2="1017.4084" y1="297" y2="297"/></g><!--class ContactDB--><g class="entity" data-qualified-name="ContactDB" data-source-line="14" id="ent0013"><rect fill="#F1F1F1" height="48" rx="2.5" ry="2.5" style="stroke:#181818;stroke-width:0.5;" width="93.7627" x="443.95" y="507"/><ellipse cx="458.95" cy="523" fill="#ADD1B2" rx="11" ry="11" style="stroke:#181818;stroke-width:1;"/><path d="M461.9188,528.6406 Q461.3406,528.9375 460.7,529.0781 Q460.0594,529.2344 459.3563,529.2344 Q456.8563,529.2344 455.5281,527.5938 Q454.2156,525.9375 454.2156,522.8125 Q454.2156,519.6875 455.5281,518.0313 Q456.8563,516.375 459.3563,516.375 Q460.0594,516.375 460.7,516.5313 Q461.3563,516.6875 461.9188,516.9844 L461.9188,519.7031 Q461.2938,519.125 460.7,518.8594 Q460.1063,518.5781 459.4813,518.5781 Q458.1375,518.5781 457.45,519.6563 Q456.7625,520.7188 456.7625,522.8125 Q456.7625,524.9063 457.45,525.9844 Q458.1375,527.0469 459.4813,527.0469 Q460.1063,527.0469 460.7,526.7813 Q461.2938,526.5 461.9188,525.9219 L461.9188,528.6406 Z " fill="#000000"/><text fill="#000000" font-family="sans-serif" font-size="14" lengthAdjust="spacing" textLength="61.7627" x="472.95" y="527.8467">Contacts</text><line style="stroke:#181818;stroke-width:0.5;" x1="444.95" x2="536.7127" y1="539" y2="539"/><line style="stroke:#181818;stroke-width:0.5;" x1="444.95" x2="536.7127" y1="547" y2="547"/></g><!--link Mobile to Auth--><g class="link" data-entity-1="ent0002" data-entity-2="ent0003" data-link-type="dependency" data-source-line="16" id="lnk14"><path codeLine="16" d="M417.19,35.24 C328.79,40.88 171.43,54.9 123.84,85 C106.51,95.95 96.7126,110.4684 89.0026,126.2584" fill="none" id="Mobile-to-Auth" style="stroke:#181818;stroke-width:1;"/><polygon fill="#181818" points="86.37,131.65,93.9133,125.3177,88.5639,127.157,86.7245,121.8075,86.37,131.65" style="stroke:#181818;stroke-width:1;"/><text fill="#000000" font-family="sans-serif" font-size="13" lengthAdjust="spacing" textLength="72.0396" x="124.84" y="98.0669">credentials</text></g><!--link Auth to UserDB--><g class="link" data-entity-1="ent0003" data-entity-2="ent0004" data-link-type="dependency" data-source-line="17" id="lnk15"><path codeLine="17" d="M73.6,180.42 C70.57,202.31 66.9011,228.8565 63.8811,250.7165" fill="none" id="Auth-to-UserDB" style="stroke:#181818;stroke-width:1;"/><polygon fill="#181818" points="63.06,256.66,68.254,248.2921,63.7443,251.707,60.3293,247.1973,63.06,256.66" style="stroke:#181818;stroke-width:1;"/><text fill="#000000" font-family="sans-serif" font-size="13" lengthAdjust="spacing" textLength="66.625" x="70.84" y="223.0669">read/write</text></g><!--link Mobile to SOS--><g class="link" data-entity-1="ent0002" data-entity-2="ent0005" data-link-type="dependency" data-source-line="18" id="lnk16"><path codeLine="18" d="M434.38,55.41 C423.33,63.34 412.7,73.23 405.84,85 C397.64,99.05 395.7499,111.4002 395.8699,125.7802" fill="none" id="Mobile-to-SOS" style="stroke:#181818;stroke-width:1;"/><polygon fill="#181818" points="395.92,131.78,399.8448,122.7469,395.8783,126.7802,391.845,122.8137,395.92,131.78" style="stroke:#181818;stroke-width:1;"/><text fill="#000000" font-family="sans-serif" font-size="13" lengthAdjust="spacing" textLength="119.0566" x="406.84" y="98.0669">SOS trigger, audio</text></g><!--link SOS to Threat--><g class="link" data-entity-1="ent0005" data-entity-2="ent0006" data-link-type="dependency" data-source-line="19" id="lnk17"><path codeLine="19" d="M394.13,180.44 C392.56,194.09 391.56,211.59 393.84,227 C395.3,236.89 396.3597,241.7824 399.3097,250.8824" fill="none" id="SOS-to-Threat" style="stroke:#181818;stroke-width:1;"/><polygon fill="#181818" points="401.16,256.59,402.1897,246.7951,399.6181,251.8337,394.5796,249.2621,401.16,256.59" style="stroke:#181818;stroke-width:1;"/><text fill="#000000" font-family="sans-serif" font-size="13" lengthAdjust="spacing" textLength="114.7974" x="394.84" y="223.0669">audio for analysis</text></g><!--link Threat to Whisper--><g class="link" data-entity-1="ent0006" data-entity-2="ent0007" data-link-type="dependency" data-source-line="20" id="lnk18"><path codeLine="20" d="M334.26,301.01 C278.82,315.13 212.85,332.38 210.84,335 C198.28,351.33 208.471,365.0578 227.011,378.3278" fill="none" id="Threat-to-Whisper" style="stroke:#181818;stroke-width:1;"/><polygon fill="#181818" points="231.89,381.82,226.8996,373.3291,227.8241,378.9099,222.2434,379.8344,231.89,381.82" style="stroke:#181818;stroke-width:1;"/><text fill="#000000" font-family="sans-serif" font-size="13" lengthAdjust="spacing" textLength="65.7744" x="211.84" y="348.0669">transcribe</text></g><!--link Whisper to Threat--><g class="link" data-entity-1="ent0007" data-entity-2="ent0006" data-link-type="dependency" data-source-line="21" id="lnk19"><path codeLine="21" d="M294.42,381.76 C307.27,367.7 324.43,349.71 340.84,335 C352.3,324.71 360.7992,317.8223 372.6292,308.9023" fill="none" id="Whisper-to-Threat" style="stroke:#181818;stroke-width:1;"/><polygon fill="#181818" points="377.42,305.29,367.8257,307.5146,373.4277,308.3002,372.6421,313.9023,377.42,305.29" style="stroke:#181818;stroke-width:1;"/><text fill="#000000" font-family="sans-serif" font-size="13" lengthAdjust="spacing" textLength="82.6782" x="341.84" y="348.0669">transcription</text></g><!--link Threat to Notify--><g class="link" data-entity-1="ent0006" data-entity-2="ent0008" data-link-type="dependency" data-source-line="22" id="lnk20"><path codeLine="22" d="M418.33,305.35 C423.98,319.44 432.13,337.43 441.84,352 C448.78,362.43 453.6324,368.4644 462.0124,377.2244" fill="none" id="Threat-to-Notify" style="stroke:#181818;stroke-width:1;"/><polygon fill="#181818" points="466.16,381.56,462.8291,372.2915,462.7037,377.947,457.0482,377.8216,466.16,381.56" style="stroke:#181818;stroke-width:1;"/><text fill="#000000" font-family="sans-serif" font-size="13" lengthAdjust="spacing" textLength="83.8525" x="442.84" y="348.0669">alert request</text></g><!--link Notify to ContactDB--><g class="link" data-entity-1="ent0008" data-entity-2="ent0013" data-link-type="dependency" data-source-line="23" id="lnk21"><path codeLine="23" d="M490.84,430.42 C490.84,452.31 490.84,478.8 490.84,500.66" fill="none" id="Notify-to-ContactDB" style="stroke:#181818;stroke-width:1;"/><polygon fill="#181818" points="490.84,506.66,494.84,497.66,490.84,501.66,486.84,497.66,490.84,506.66" style="stroke:#181818;stroke-width:1;"/><text fill="#000000" font-family="sans-serif" font-size="13" lengthAdjust="spacing" textLength="80.9009" x="491.84" y="473.0669">get contacts</text></g><!--link Notify to Mobile--><g class="link" data-entity-1="ent0008" data-entity-2="ent0002" data-link-type="dependency" data-source-line="24" id="lnk22"><path codeLine="24" d="M513.64,381.6 C520.54,372.99 527.25,362.71 530.84,352 C568.53,239.48 575.72,194.85 530.84,85 C526.25,73.78 522.3249,67.8395 513.7449,59.5095" fill="none" id="Notify-to-Mobile" style="stroke:#181818;stroke-width:1;"/><polygon fill="#181818" points="509.44,55.33,513.111,64.4691,513.0274,58.8129,518.6836,58.7293,509.44,55.33" style="stroke:#181818;stroke-width:1;"/><text fill="#000000" font-family="sans-serif" font-size="13" lengthAdjust="spacing" textLength="108.7417" x="563.84" y="223.0669">push notification</text></g><!--link SOS to Analytics--><g class="link" data-entity-1="ent0005" data-entity-2="ent0009" data-link-type="dependency" data-source-line="25" id="lnk23"><path codeLine="25" d="M358.33,180.4 C343.8,189.33 327.35,199.81 312.84,210 C291.76,224.79 273.6048,238.9941 256.3548,253.0241" fill="none" id="SOS-to-Analytics" style="stroke:#181818;stroke-width:1;"/><polygon fill="#181818" points="251.7,256.81,261.2061,254.2344,255.579,253.6551,256.1582,248.028,251.7,256.81" style="stroke:#181818;stroke-width:1;"/><text fill="#000000" font-family="sans-serif" font-size="13" lengthAdjust="spacing" textLength="70.4399" x="313.84" y="223.0669">event data</text></g><!--link Analytics to Mobile--><g class="link" data-entity-1="ent0009" data-entity-2="ent0002" data-link-type="dependency" data-source-line="26" id="lnk24"><path codeLine="26" d="M219.81,256.61 C215.74,225.03 213.44,168.51 240.84,132 C282.66,76.25 355.6041,52.4946 411.0441,41.5246" fill="none" id="Analytics-to-Mobile" style="stroke:#181818;stroke-width:1;"/><polygon fill="#181818" points="416.93,40.36,407.3247,38.1831,412.0251,41.3305,408.8776,46.0309,416.93,40.36" style="stroke:#181818;stroke-width:1;"/><text fill="#000000" font-family="sans-serif" font-size="13" lengthAdjust="spacing" textLength="79.4536" x="241.84" y="160.5669">safety score</text></g><!--link Mobile to Group--><g class="link" data-entity-1="ent0002" data-entity-2="ent0010" data-link-type="dependency" data-source-line="27" id="lnk25"><path codeLine="27" d="M523.77,55.49 C541.04,64.61 560.91,75.19 578.84,85 C606.7,100.25 632.6267,114.8499 656.7267,128.5799" fill="none" id="Mobile-to-Group" style="stroke:#181818;stroke-width:1;"/><polygon fill="#181818" points="661.94,131.55,656.1001,123.6193,657.5956,129.0749,652.14,130.5704,661.94,131.55" style="stroke:#181818;stroke-width:1;"/><text fill="#000000" font-family="sans-serif" font-size="13" lengthAdjust="spacing" textLength="64.1177" x="607.84" y="98.0669">join/share</text></g><!--link Group to LocDB--><g class="link" data-entity-1="ent0010" data-entity-2="ent0011" data-link-type="dependency" data-source-line="28" id="lnk26"><path codeLine="28" d="M701.22,180.47 C700.66,189.67 700.11,200.33 699.84,210 C699.4,225.56 699.7716,237.0719 700.6316,250.6819" fill="none" id="Group-to-LocDB" style="stroke:#181818;stroke-width:1;"/><polygon fill="#181818" points="701.01,256.67,704.4345,247.4357,700.6947,251.68,696.4504,247.9402,701.01,256.67" style="stroke:#181818;stroke-width:1;"/><text fill="#000000" font-family="sans-serif" font-size="13" lengthAdjust="spacing" textLength="88.8799" x="700.84" y="223.0669">store location</text></g><!--link Group to WS--><g class="link" data-entity-1="ent0010" data-entity-2="ent0012" data-link-type="dependency" data-source-line="29" id="lnk27"><path codeLine="29" d="M744.74,180.43 C769.43,194.16 801.31,211.73 829.84,227 C848.22,236.84 863.2601,244.7246 880.9401,253.8646" fill="none" id="Group-to-WS" style="stroke:#181818;stroke-width:1;"/><polygon fill="#181818" points="886.27,256.62,880.1121,248.9336,881.8284,254.3238,876.4382,256.0402,886.27,256.62" style="stroke:#181818;stroke-width:1;"/><text fill="#000000" font-family="sans-serif" font-size="13" lengthAdjust="spacing" textLength="115.6924" x="830.84" y="223.0669">real-time updates</text></g><!--link WS to Mobile--><g class="link" data-entity-1="ent0012" data-entity-2="ent0002" data-link-type="dependency" data-source-line="30" id="lnk28"><path codeLine="30" d="M947.18,256.5 C954.45,242.18 959.78,224.01 950.84,210 C944.98,200.83 724.78,100.75 680.84,85 C634.76,68.48 586.9544,56.0074 546.5244,46.6174" fill="none" id="WS-to-Mobile" style="stroke:#181818;stroke-width:1;"/><polygon fill="#181818" points="540.68,45.26,548.5417,51.1924,545.5504,46.3912,550.3516,43.3998,540.68,45.26" style="stroke:#181818;stroke-width:1;"/><text fill="#000000" font-family="sans-serif" font-size="13" lengthAdjust="spacing" textLength="120.4658" x="892.84" y="160.5669">location broadcast</text></g><?plantuml-src LLBBRjj03BplLx0vryXTXmAf7UII9a2Lm6TwHLjCDrfrIQNmttTVjbSN0PmPakBCVXleo1F1xyVjsyFBq_CZM8SYnjo0kr_-m8vWwvWclGCKA4YhULXqZF2mECgALBVykr20NdqeT2ftFrj1_zgt_R5isRSn42hiICag-obh2jZAzYFBd1PH-69R9bMibRruvIDRJ9DW5sbKErB8yioTLwTDwCxALbPZhsWhVGf-cQ778-avgpBGAfvzNNlp8a9hA_PqwBtzGmhlyu1AKkvO6RBrawBLGjKYJZ4rgytcHuu0Eh21XfWRenEJeSGL_oCR7Hpk_mLMQbjJ65t-Qk3JYS9tm6LWRnAK13MFhi1mz04m6I8ifd99TicZYtDm4XluGEO2hkPS-3cPquueUQHDZeB6__sxaAYfS59Shu-YKpJDLcjQJRsjWtcH4QOc_-j9jvWxeA_e64JlqTpWrHp96OFOc6BhN7a17NnudkvbnCWMA94vwTISiWTNdq8ZsFSb4hTH_YHOIlnctw-NNphX43mE5aN_0m00?></g></svg>