<svg xmlns="http://www.w3.org/2000/svg" xmlns:xlink="http://www.w3.org/1999/xlink" contentStyleType="text/css" data-diagram-type="CLASS" height="563px" preserveAspectRatio="none" style="width:802px;height:563px;background:#FFFFFF;" version="1.1" viewBox="0 0 802 563" width="802px" zoomAndPan="magnify"><?plantuml 1.2026.3beta6?><defs/><g><!--class User--><g class="entity" data-qualified-name="User" data-source-line="3" id="ent0002"><rect fill="#F1F1F1" height="129.4844" rx="2.5" ry="2.5" style="stroke:#181818;stroke-width:0.5;" width="119.3311" x="395.38" y="7"/><ellipse cx="435.3194" cy="23" fill="#ADD1B2" rx="11" ry="11" style="stroke:#181818;stroke-width:1;"/><path d="M438.2882,28.6406 Q437.71,28.9375 437.0694,29.0781 Q436.4288,29.2344 435.7257,29.2344 Q433.2257,29.2344 431.8975,27.5938 Q430.585,25.9375 430.585,22.8125 Q430.585,19.6875 431.8975,18.0313 Q433.2257,16.375 435.7257,16.375 Q436.4288,16.375 437.0694,16.5313 Q437.7257,16.6875 438.2882,16.9844 L438.2882,19.7031 Q437.6632,19.125 437.0694,18.8594 Q436.4757,18.5781 435.8507,18.5781 Q434.5069,18.5781 433.8194,19.6563 Q433.1319,20.7188 433.1319,22.8125 Q433.1319,24.9063 433.8194,25.9844 Q434.5069,27.0469 435.8507,27.0469 Q436.4757,27.0469 437.0694,26.7813 Q437.6632,26.5 438.2882,25.9219 L438.2882,28.6406 Z " fill="#000000"/><text fill="#000000" font-family="sans-serif" font-size="14" lengthAdjust="spacing" textLength="31.9102" x="454.8615" y="27.8467">User</text><line style="stroke:#181818;stroke-width:0.5;" x1="396.38" x2="513.7111" y1="39" y2="39"/><g data-visibility-modifier="IE_MANDATORY"><ellipse cx="406.38" cy="52.6484" fill="#000000" rx="3" ry="3" style="stroke:#000000;stroke-width:1;"/></g><text fill="#000000" font-family="sans-serif" font-size="14" lengthAdjust="spacing" textLength="81.5527" x="415.38" y="55.9951">user_id : PK</text><line style="stroke:#181818;stroke-width:1;" x1="396.38" x2="513.7111" y1="63.2969" y2="63.2969"/><text fill="#000000" font-family="sans-serif" font-size="14" lengthAdjust="spacing" textLength="38.6094" x="401.38" y="80.292">email</text><text fill="#000000" font-family="sans-serif" font-size="14" lengthAdjust="spacing" textLength="43.8115" x="401.38" y="96.5889">phone</text><text fill="#000000" font-family="sans-serif" font-size="14" lengthAdjust="spacing" textLength="107.3311" x="401.38" y="112.8857">password_hash</text><text fill="#000000" font-family="sans-serif" font-size="14" lengthAdjust="spacing" textLength="68.2842" x="401.38" y="129.1826">full_name</text></g><!--class SOS_Event--><g class="entity" data-qualified-name="SOS_Event" data-source-line="12" id="ent0003"><rect fill="#F1F1F1" height="162.0781" rx="2.5" ry="2.5" style="stroke:#181818;stroke-width:0.5;" width="124.0889" x="7" y="196.49"/><ellipse cx="29.2853" cy="212.49" fill="#ADD1B2" rx="11" ry="11" style="stroke:#181818;stroke-width:1;"/><path d="M32.254,218.1306 Q31.6759,218.4275 31.0353,218.5681 Q30.3946,218.7244 29.6915,218.7244 Q27.1915,218.7244 25.8634,217.0837 Q24.5509,215.4275 24.5509,212.3025 Q24.5509,209.1775 25.8634,207.5212 Q27.1915,205.865 29.6915,205.865 Q30.3946,205.865 31.0353,206.0212 Q31.6915,206.1775 32.254,206.4744 L32.254,209.1931 Q31.629,208.615 31.0353,208.3494 Q30.4415,208.0681 29.8165,208.0681 Q28.4728,208.0681 27.7853,209.1462 Q27.0978,210.2087 27.0978,212.3025 Q27.0978,214.3962 27.7853,215.4744 Q28.4728,216.5369 29.8165,216.5369 Q30.4415,216.5369 31.0353,216.2712 Q31.629,215.99 32.254,215.4119 L32.254,218.1306 Z " fill="#000000"/><text fill="#000000" font-family="sans-serif" font-size="14" lengthAdjust="spacing" textLength="75.8994" x="44.9042" y="217.3367">SOS_Event</text><line style="stroke:#181818;stroke-width:0.5;" x1="8" x2="130.0889" y1="228.49" y2="228.49"/><g data-visibility-modifier="IE_MANDATORY"><ellipse cx="18" cy="242.1384" fill="#000000" rx="3" ry="3" style="stroke:#000000;stroke-width:1;"/></g><text fill="#000000" font-family="sans-serif" font-size="14" lengthAdjust="spacing" textLength="74.1699" x="27" y="245.4851">sos_id : PK</text><line style="stroke:#181818;stroke-width:1;" x1="8" x2="130.0889" y1="252.7869" y2="252.7869"/><text fill="#000000" font-family="sans-serif" font-size="14" lengthAdjust="spacing" textLength="81.1631" x="13" y="269.782">user_id : FK</text><text fill="#000000" font-family="sans-serif" font-size="14" lengthAdjust="spacing" textLength="75.5166" x="13" y="286.0789">timestamp</text><text fill="#000000" font-family="sans-serif" font-size="14" lengthAdjust="spacing" textLength="53.71" x="13" y="302.3757">latitude</text><text fill="#000000" font-family="sans-serif" font-size="14" lengthAdjust="spacing" textLength="65.9668" x="13" y="318.6726">longitude</text><text fill="#000000" font-family="sans-serif" font-size="14" lengthAdjust="spacing" textLength="43.0186" x="13" y="334.9695">status</text><text fill="#000000" font-family="sans-serif" font-size="14" lengthAdjust="spacing" textLength="112.0889" x="13" y="351.2664">threat_detected</text></g><!--class Emergency_Contact--><g class="entity" data-qualified-name="Emergency_Contact" data-source-line="23" id="ent0004"><rect fill="#F1F1F1" height="129.4844" rx="2.5" ry="2.5" style="stroke:#181818;stroke-width:0.5;" width="172.6768" x="165.71" y="212.78"/><ellipse cx="180.71" cy="228.78" fill="#ADD1B2" rx="11" ry="11" style="stroke:#181818;stroke-width:1;"/><path d="M183.6788,234.4206 Q183.1006,234.7175 182.46,234.8581 Q181.8194,235.0144 181.1163,235.0144 Q178.6163,235.0144 177.2881,233.3737 Q175.9756,231.7175 175.9756,228.5925 Q175.9756,225.4675 177.2881,223.8112 Q178.6163,222.155 181.1163,222.155 Q181.8194,222.155 182.46,222.3112 Q183.1163,222.4675 183.6788,222.7644 L183.6788,225.4831 Q183.0538,224.905 182.46,224.6394 Q181.8663,224.3581 181.2413,224.3581 Q179.8975,224.3581 179.21,225.4362 Q178.5225,226.4987 178.5225,228.5925 Q178.5225,230.6862 179.21,231.7644 Q179.8975,232.8269 181.2413,232.8269 Q181.8663,232.8269 182.46,232.5612 Q183.0538,232.28 183.6788,231.7019 L183.6788,234.4206 Z " fill="#000000"/><text fill="#000000" font-family="sans-serif" font-size="14" lengthAdjust="spacing" textLength="140.6768" x="194.71" y="233.6267">Emergency_Contact</text><line style="stroke:#181818;stroke-width:0.5;" x1="166.71" x2="337.3868" y1="244.78" y2="244.78"/><g data-visibility-modifier="IE_MANDATORY"><ellipse cx="176.71" cy="258.4284" fill="#000000" rx="3" ry="3" style="stroke:#000000;stroke-width:1;"/></g><text fill="#000000" font-family="sans-serif" font-size="14" lengthAdjust="spacing" textLength="103.4072" x="185.71" y="261.7751">contact_id : PK</text><line style="stroke:#181818;stroke-width:1;" x1="166.71" x2="337.3868" y1="269.0769" y2="269.0769"/><text fill="#000000" font-family="sans-serif" font-size="14" lengthAdjust="spacing" textLength="81.1631" x="171.71" y="286.072">user_id : FK</text><text fill="#000000" font-family="sans-serif" font-size="14" lengthAdjust="spacing" textLength="39.7031" x="171.71" y="302.3689">name</text><text fill="#000000" font-family="sans-serif" font-size="14" lengthAdjust="spacing" textLength="43.8115" x="171.71" y="318.6657">phone</text><text fill="#000000" font-family="sans-serif" font-size="14" lengthAdjust="spacing" textLength="72.9736" x="171.71" y="334.9626">is_primary</text></g><!--class Group--><g class="entity" data-qualified-name="Group" data-source-line="32" id="ent0005"><rect fill="#F1F1F1" height="113.1875" rx="2.5" ry="2.5" style="stroke:#181818;stroke-width:0.5;" width="120.6572" x="654.72" y="15.15"/><ellipse cx="690.2974" cy="31.15" fill="#ADD1B2" rx="11" ry="11" style="stroke:#181818;stroke-width:1;"/><path d="M693.2661,36.7906 Q692.688,37.0875 692.0474,37.2281 Q691.4068,37.3844 690.7036,37.3844 Q688.2036,37.3844 686.8755,35.7437 Q685.563,34.0875 685.563,30.9625 Q685.563,27.8375 686.8755,26.1812 Q688.2036,24.525 690.7036,24.525 Q691.4068,24.525 692.0474,24.6812 Q692.7036,24.8375 693.2661,25.1344 L693.2661,27.8531 Q692.6411,27.275 692.0474,27.0094 Q691.4536,26.7281 690.8286,26.7281 Q689.4849,26.7281 688.7974,27.8062 Q688.1099,28.8687 688.1099,30.9625 Q688.1099,33.0562 688.7974,34.1344 Q689.4849,35.1969 690.8286,35.1969 Q691.4536,35.1969 692.0474,34.9312 Q692.6411,34.65 693.2661,34.0719 L693.2661,36.7906 Z " fill="#000000"/><text fill="#000000" font-family="sans-serif" font-size="14" lengthAdjust="spacing" textLength="42.9297" x="708.8701" y="35.9967">Group</text><line style="stroke:#181818;stroke-width:0.5;" x1="655.72" x2="774.3772" y1="47.15" y2="47.15"/><g data-visibility-modifier="IE_MANDATORY"><ellipse cx="665.72" cy="60.7984" fill="#000000" rx="3" ry="3" style="stroke:#000000;stroke-width:1;"/></g><text fill="#000000" font-family="sans-serif" font-size="14" lengthAdjust="spacing" textLength="91.9844" x="674.72" y="64.1451">group_id : PK</text><line style="stroke:#181818;stroke-width:1;" x1="655.72" x2="774.3772" y1="71.4469" y2="71.4469"/><text fill="#000000" font-family="sans-serif" font-size="14" lengthAdjust="spacing" textLength="39.7031" x="660.72" y="88.442">name</text><text fill="#000000" font-family="sans-serif" font-size="14" lengthAdjust="spacing" textLength="108.6572" x="660.72" y="104.7389">created_by : FK</text><text fill="#000000" font-family="sans-serif" font-size="14" lengthAdjust="spacing" textLength="91.752" x="660.72" y="121.0357">is_temporary</text></g><!--class Group_Member--><g class="entity" data-qualified-name="Group_Member" data-source-line="40" id="ent0006"><rect fill="#F1F1F1" height="113.1875" rx="2.5" ry="2.5" style="stroke:#181818;stroke-width:0.5;" width="144.8838" x="642.6" y="220.93"/><ellipse cx="660.0157" cy="236.93" fill="#ADD1B2" rx="11" ry="11" style="stroke:#181818;stroke-width:1;"/><path d="M662.9844,242.5706 Q662.4063,242.8675 661.7657,243.0081 Q661.125,243.1644 660.4219,243.1644 Q657.9219,243.1644 656.5938,241.5237 Q655.2813,239.8675 655.2813,236.7425 Q655.2813,233.6175 656.5938,231.9612 Q657.9219,230.305 660.4219,230.305 Q661.125,230.305 661.7657,230.4612 Q662.4219,230.6175 662.9844,230.9144 L662.9844,233.6331 Q662.3594,233.055 661.7657,232.7894 Q661.1719,232.5081 660.5469,232.5081 Q659.2032,232.5081 658.5157,233.5862 Q657.8282,234.6487 657.8282,236.7425 Q657.8282,238.8362 658.5157,239.9144 Q659.2032,240.9769 660.5469,240.9769 Q661.1719,240.9769 661.7657,240.7112 Q662.3594,240.43 662.9844,239.8519 L662.9844,242.5706 Z " fill="#000000"/><text fill="#000000" font-family="sans-serif" font-size="14" lengthAdjust="spacing" textLength="107.5156" x="674.5525" y="241.7767">Group_Member</text><line style="stroke:#181818;stroke-width:0.5;" x1="643.6" x2="786.4838" y1="252.93" y2="252.93"/><g data-visibility-modifier="IE_MANDATORY"><ellipse cx="653.6" cy="266.5784" fill="#000000" rx="3" ry="3" style="stroke:#000000;stroke-width:1;"/></g><text fill="#000000" font-family="sans-serif" font-size="14" lengthAdjust="spacing" textLength="91.5947" x="662.6" y="269.9251">group_id : FK</text><g data-visibility-modifier="IE_MANDATORY"><ellipse cx="653.6" cy="282.8753" fill="#000000" rx="3" ry="3" style="stroke:#000000;stroke-width:1;"/></g><text fill="#000000" font-family="sans-serif" font-size="14" lengthAdjust="spacing" textLength="81.1631" x="662.6" y="286.222">user_id : FK</text><line style="stroke:#181818;stroke-width:1;" x1="643.6" x2="786.4838" y1="293.5237" y2="293.5237"/><text fill="#000000" font-family="sans-serif" font-size="14" lengthAdjust="spacing" textLength="63.7861" x="648.6" y="310.5189">joined_at</text><text fill="#000000" font-family="sans-serif" font-size="14" lengthAdjust="spacing" textLength="132.8838" x="648.6" y="326.8157">is_sharing_location</text></g><!--class Threat_Report--><g class="entity" data-qualified-name="Threat_Report" data-source-line="48" id="ent0007"><rect fill="#F1F1F1" height="145.7813" rx="2.5" ry="2.5" style="stroke:#181818;stroke-width:0.5;" width="164.0313" x="373.03" y="204.64"/><ellipse cx="402.4889" cy="220.64" fill="#ADD1B2" rx="11" ry="11" style="stroke:#181818;stroke-width:1;"/><path d="M405.4576,226.2806 Q404.8795,226.5775 404.2389,226.7181 Q403.5983,226.8744 402.8951,226.8744 Q400.3951,226.8744 399.067,225.2337 Q397.7545,223.5775 397.7545,220.4525 Q397.7545,217.3275 399.067,215.6712 Q400.3951,214.015 402.8951,214.015 Q403.5983,214.015 404.2389,214.1712 Q404.8951,214.3275 405.4576,214.6244 L405.4576,217.3431 Q404.8326,216.765 404.2389,216.4994 Q403.6451,216.2181 403.0201,216.2181 Q401.6764,216.2181 400.9889,217.2962 Q400.3014,218.3587 400.3014,220.4525 Q400.3014,222.5462 400.9889,223.6244 Q401.6764,224.6869 403.0201,224.6869 Q403.6451,224.6869 404.2389,224.4212 Q404.8326,224.14 405.4576,223.5619 L405.4576,226.2806 Z " fill="#000000"/><text fill="#000000" font-family="sans-serif" font-size="14" lengthAdjust="spacing" textLength="99.9004" x="419.702" y="225.4867">Threat_Report</text><line style="stroke:#181818;stroke-width:0.5;" x1="374.03" x2="536.0613" y1="236.64" y2="236.64"/><g data-visibility-modifier="IE_MANDATORY"><ellipse cx="384.03" cy="250.2884" fill="#000000" rx="3" ry="3" style="stroke:#000000;stroke-width:1;"/></g><text fill="#000000" font-family="sans-serif" font-size="14" lengthAdjust="spacing" textLength="94.083" x="393.03" y="253.6351">report_id : PK</text><line style="stroke:#181818;stroke-width:1;" x1="374.03" x2="536.0613" y1="260.9369" y2="260.9369"/><text fill="#000000" font-family="sans-serif" font-size="14" lengthAdjust="spacing" textLength="152.0313" x="379.03" y="277.932">user_id : FK (nullable)</text><text fill="#000000" font-family="sans-serif" font-size="14" lengthAdjust="spacing" textLength="53.71" x="379.03" y="294.2289">latitude</text><text fill="#000000" font-family="sans-serif" font-size="14" lengthAdjust="spacing" textLength="65.9668" x="379.03" y="310.5257">longitude</text><text fill="#000000" font-family="sans-serif" font-size="14" lengthAdjust="spacing" textLength="81.0742" x="379.03" y="326.8226">threat_type</text><text fill="#000000" font-family="sans-serif" font-size="14" lengthAdjust="spacing" textLength="99.7295" x="379.03" y="343.1195">is_anonymous</text></g><!--class Notification--><g class="entity" data-qualified-name="Notification" data-source-line="58" id="ent0008"><rect fill="#F1F1F1" height="129.4844" rx="2.5" ry="2.5" style="stroke:#181818;stroke-width:0.5;" width="112.3291" x="272.88" y="418.57"/><ellipse cx="287.88" cy="434.57" fill="#ADD1B2" rx="11" ry="11" style="stroke:#181818;stroke-width:1;"/><path d="M290.8488,440.2106 Q290.2706,440.5075 289.63,440.6481 Q288.9894,440.8044 288.2863,440.8044 Q285.7863,440.8044 284.4581,439.1637 Q283.1456,437.5075 283.1456,434.3825 Q283.1456,431.2575 284.4581,429.6012 Q285.7863,427.945 288.2863,427.945 Q288.9894,427.945 289.63,428.1012 Q290.2863,428.2575 290.8488,428.5544 L290.8488,431.2731 Q290.2238,430.695 289.63,430.4294 Q289.0363,430.1481 288.4113,430.1481 Q287.0675,430.1481 286.38,431.2262 Q285.6925,432.2887 285.6925,434.3825 Q285.6925,436.4762 286.38,437.5544 Q287.0675,438.6169 288.4113,438.6169 Q289.0363,438.6169 289.63,438.3512 Q290.2238,438.07 290.8488,437.4919 L290.8488,440.2106 Z " fill="#000000"/><text fill="#000000" font-family="sans-serif" font-size="14" lengthAdjust="spacing" textLength="80.3291" x="301.88" y="439.4167">Notification</text><line style="stroke:#181818;stroke-width:0.5;" x1="273.88" x2="384.2091" y1="450.57" y2="450.57"/><g data-visibility-modifier="IE_MANDATORY"><ellipse cx="283.88" cy="464.2184" fill="#000000" rx="3" ry="3" style="stroke:#000000;stroke-width:1;"/></g><text fill="#000000" font-family="sans-serif" font-size="14" lengthAdjust="spacing" textLength="82.7627" x="292.88" y="467.5651">notif_id : PK</text><line style="stroke:#181818;stroke-width:1;" x1="273.88" x2="384.2091" y1="474.8669" y2="474.8669"/><text fill="#000000" font-family="sans-serif" font-size="14" lengthAdjust="spacing" textLength="81.1631" x="278.88" y="491.862">user_id : FK</text><text fill="#000000" font-family="sans-serif" font-size="14" lengthAdjust="spacing" textLength="73.7803" x="278.88" y="508.1589">sos_id : FK</text><text fill="#000000" font-family="sans-serif" font-size="14" lengthAdjust="spacing" textLength="31.2744" x="278.88" y="524.4557">type</text><text fill="#000000" font-family="sans-serif" font-size="14" lengthAdjust="spacing" textLength="50.0186" x="278.88" y="540.7526">is_read</text></g><!--link User to SOS_Event--><g class="link" data-entity-1="ent0002" data-entity-2="ent0003" data-link-type="crowfoot" data-source-line="67" id="lnk9"><path codeLine="67" d="M387.3218,91.2401 C322.7518,110.4401 226.48,144.25 148.04,196.49 C142.36,200.28 150.605,193.0292 145.155,197.5492" fill="none" id="User-SOS_Event" style="stroke:#181818;stroke-width:1;"/><line style="stroke:#181818;stroke-width:1;" x1="390.0158" x2="392.296" y1="86.266" y2="93.9342"/><line style="stroke:#181818;stroke-width:1;" x1="387.1403" x2="389.4204" y1="87.121" y2="94.7892"/><line style="stroke:#181818;stroke-width:1;" x1="387.3218" x2="394.99" y1="91.2401" y2="88.96"/><line style="stroke:#181818;stroke-width:1;" x1="137.4578" x2="135.1303" y1="203.933" y2="213.6583"/><line style="stroke:#181818;stroke-width:1;" x1="137.4578" x2="127.4697" y1="203.933" y2="204.4217"/><line style="stroke:#181818;stroke-width:1;" x1="137.4578" x2="131.3" y1="203.933" y2="209.04"/><ellipse cx="142.0761" cy="200.1027" fill="none" rx="4" ry="4" style="stroke:#181818;stroke-width:1;"/></g><!--link User to Emergency_Contact--><g class="link" data-entity-1="ent0002" data-entity-2="ent0004" data-link-type="crowfoot" data-source-line="68" id="lnk10"><path codeLine="68" d="M389.3145,138.7282 C364.4145,163.7282 353.8428,174.337 328.5628,199.717" fill="none" id="User-Emergency_Contact" style="stroke:#181818;stroke-width:1;"/><line style="stroke:#181818;stroke-width:1;" x1="389.3032" x2="394.9713" y1="133.0713" y2="138.7168"/><line style="stroke:#181818;stroke-width:1;" x1="387.1861" x2="392.8543" y1="135.1969" y2="140.8424"/><line style="stroke:#181818;stroke-width:1;" x1="389.3145" x2="394.96" y1="138.7282" y2="133.06"/><line style="stroke:#181818;stroke-width:1;" x1="321.5057" x2="320.111" y1="206.802" y2="216.7043"/><line style="stroke:#181818;stroke-width:1;" x1="321.5057" x2="311.609" y1="206.802" y2="208.2357"/><line style="stroke:#181818;stroke-width:1;" x1="321.5057" x2="315.86" y1="206.802" y2="212.47"/><ellipse cx="325.7399" cy="202.551" fill="none" rx="4" ry="4" style="stroke:#181818;stroke-width:1;"/></g><!--link User to Group_Member--><g class="link" data-entity-1="ent0002" data-entity-2="ent0006" data-link-type="crowfoot" data-source-line="69" id="lnk11"><path codeLine="69" d="M521.3071,123.0867 C551.7271,146.3267 582.82,170.3 616.04,196.49 C625.85,204.22 622.1147,201.1701 632.2147,209.2801" fill="none" id="User-Group_Member" style="stroke:#181818;stroke-width:1;"/><line style="stroke:#181818;stroke-width:1;" x1="515.7002" x2="520.5569" y1="123.8369" y2="117.4798"/><line style="stroke:#181818;stroke-width:1;" x1="518.0842" x2="522.9408" y1="125.6581" y2="119.301"/><line style="stroke:#181818;stroke-width:1;" x1="521.3071" x2="514.95" y1="123.0867" y2="118.23"/><line style="stroke:#181818;stroke-width:1;" x1="640.0121" x2="650.0066" y1="215.5411" y2="215.8716"/><line style="stroke:#181818;stroke-width:1;" x1="640.0121" x2="642.4934" y1="215.5411" y2="225.2284"/><line style="stroke:#181818;stroke-width:1;" x1="640.0121" x2="646.25" y1="215.5411" y2="220.55"/><ellipse cx="635.3337" cy="211.7845" fill="none" rx="4" ry="4" style="stroke:#181818;stroke-width:1;"/></g><!--link Group to Group_Member--><g class="link" data-entity-1="ent0005" data-entity-2="ent0006" data-link-type="crowfoot" data-source-line="70" id="lnk12"><path codeLine="70" d="M715.04,136.7 C715.04,165.33 715.04,174.08 715.04,202.7" fill="none" id="Group-Group_Member" style="stroke:#181818;stroke-width:1;"/><line style="stroke:#181818;stroke-width:1;" x1="711.04" x2="719.04" y1="132.7" y2="132.7"/><line style="stroke:#181818;stroke-width:1;" x1="711.04" x2="719.04" y1="135.7" y2="135.7"/><line style="stroke:#181818;stroke-width:1;" x1="715.04" x2="715.04" y1="136.7" y2="128.7"/><line style="stroke:#181818;stroke-width:1;" x1="715.04" x2="721.04" y1="212.7" y2="220.7"/><line style="stroke:#181818;stroke-width:1;" x1="715.04" x2="709.04" y1="212.7" y2="220.7"/><line style="stroke:#181818;stroke-width:1;" x1="715.04" x2="715.04" y1="212.7" y2="220.7"/><ellipse cx="715.04" cy="206.7" fill="none" rx="4" ry="4" style="stroke:#181818;stroke-width:1;"/></g><!--link User to Threat_Report--><g class="link" data-entity-1="ent0002" data-entity-2="ent0007" data-link-type="crowfoot" data-source-line="71" id="lnk13"><path codeLine="71" d="M455.04,144.94 C455.04,166.29 455.04,164.21 455.04,186.14" fill="none" id="User-Threat_Report" style="stroke:#181818;stroke-width:1;"/><line style="stroke:#181818;stroke-width:1;" x1="451.04" x2="459.04" y1="140.94" y2="140.94"/><line style="stroke:#181818;stroke-width:1;" x1="451.04" x2="459.04" y1="143.94" y2="143.94"/><line style="stroke:#181818;stroke-width:1;" x1="455.04" x2="455.04" y1="144.94" y2="136.94"/><line style="stroke:#181818;stroke-width:1;" x1="455.04" x2="461.04" y1="196.14" y2="204.14"/><line style="stroke:#181818;stroke-width:1;" x1="455.04" x2="449.04" y1="196.14" y2="204.14"/><line style="stroke:#181818;stroke-width:1;" x1="455.04" x2="455.04" y1="196.14" y2="204.14"/><ellipse cx="455.04" cy="190.14" fill="none" rx="4" ry="4" style="stroke:#181818;stroke-width:1;"/></g><!--link User to Notification--><g class="link" data-entity-1="ent0002" data-entity-2="ent0008" data-link-type="crowfoot" data-source-line="72" id="lnk14"><path codeLine="72" d="M520.2834,136.6658 C536.4134,155.9458 546.57,172.53 555.04,196.49 C579.06,264.4 591.77,296.59 555.04,358.57 C518.67,419.95 457.1453,447.7562 402.9253,463.8562" fill="none" id="User-Notification" style="stroke:#181818;stroke-width:1;"/><line style="stroke:#181818;stroke-width:1;" x1="514.6488" x2="520.7846" y1="136.1646" y2="131.0312"/><line style="stroke:#181818;stroke-width:1;" x1="516.5738" x2="522.7096" y1="138.4655" y2="133.3322"/><line style="stroke:#181818;stroke-width:1;" x1="520.2834" x2="515.15" y1="136.6658" y2="130.53"/><line style="stroke:#181818;stroke-width:1;" x1="393.339" x2="387.3779" y1="466.7028" y2="474.7318"/><line style="stroke:#181818;stroke-width:1;" x1="393.339" x2="383.9621" y1="466.7028" y2="463.2282"/><line style="stroke:#181818;stroke-width:1;" x1="393.339" x2="385.67" y1="466.7028" y2="468.98"/><ellipse cx="399.0908" cy="464.9948" fill="none" rx="4" ry="4" style="stroke:#181818;stroke-width:1;"/></g><!--link SOS_Event to Notification--><g class="link" data-entity-1="ent0003" data-entity-2="ent0008" data-link-type="crowfoot" data-source-line="73" id="lnk15"><path codeLine="73" d="M137.2711,349.3042 C142.7811,354.4042 142.5,353.94 148.04,358.57 C187.49,391.51 220.4891,414.4327 257.2291,437.8927" fill="none" id="SOS_Event-Notification" style="stroke:#181818;stroke-width:1;"/><line style="stroke:#181818;stroke-width:1;" x1="131.6184" x2="137.0526" y1="349.5226" y2="343.6516"/><line style="stroke:#181818;stroke-width:1;" x1="133.8201" x2="139.2543" y1="351.5605" y2="345.6894"/><line style="stroke:#181818;stroke-width:1;" x1="137.2711" x2="131.4" y1="349.3042" y2="343.87"/><line style="stroke:#181818;stroke-width:1;" x1="265.6574" x2="275.6291" y1="443.2746" y2="442.523"/><line style="stroke:#181818;stroke-width:1;" x1="265.6574" x2="269.1709" y1="443.2746" y2="452.637"/><line style="stroke:#181818;stroke-width:1;" x1="265.6574" x2="272.4" y1="443.2746" y2="447.58"/><ellipse cx="260.6004" cy="440.0455" fill="none" rx="4" ry="4" style="stroke:#181818;stroke-width:1;"/></g><?plantuml-src XLBBJiCm4BpdAymDAkK7kAB20V4GBMVBjRU9aH-HxO2Ybdzd7ITnqXQunFk8PzOpUoLWBmsGBTif85mnxuiY9UyU73aKXAn8Yo6LWjoIrqSib2L-G3Efy6ngQo2UUFNBEa5hvclCzwrIr30DnVU8k7dPqFKdc330UkjFKJFJVQm5gS47fXkC5Gioj29oAMkgCSPsQ7tyjtR00XKGW0SGcNQjmLLWU4Vlh0cCZ_GyPV-Cq3yXFrDwsZYfcUiomOEpRJE0LZ4-XHmmU1mG1Drr8pYY1T2DTUTuz0dqRd9W1jjVN9sEsVDyMFHIK1OIjA-PawQYodBKpfhCi4rQlG5IZtAuFlbB3N9jqDG8SFEx7uCDeMi6kPYnfjCMFPhedssGUvc66jXDBFrZnRGlQJSc1YJixUutzdWiItl8kxQedgt2eZlNlKYcNkhChoo4N7JcRopovb_e_W00?></g></svg>