<svg xmlns="http://www.w3.org/2000/svg" xmlns:xlink="http://www.w3.org/1999/xlink" contentStyleType="text/css" data-diagram-type="SEQUENCE" height="445px" preserveAspectRatio="none" style="width:621px;height:445px;background:#FFFFFF;" version="1.1" viewBox="0 0 621 445" width="621px" zoomAndPan="magnify"><?plantuml 1.2026.3beta6?><defs/><g><g><title>Mobile.Web</title><rect fill="#FFFFFF" height="233.0625" style="stroke:#181818;stroke-width:1;" width="10" x="170.6826" y="112.4297"/></g><g><title>Backend API</title><rect fill="#FFFFFF" height="174.7969" style="stroke:#181818;stroke-width:1;" width="10" x="332.4883" y="141.5625"/></g><g><title>Gemini API</title><rect fill="#FFFFFF" height="29.1328" style="stroke:#181818;stroke-width:1;" width="10" x="477.022" y="228.9609"/></g><g class="participant-lifeline" data-entity-uid="part1" data-qualified-name="User" data-source-line="1" id="part1-lifeline"><g><title>User</title><rect fill="#000000" fill-opacity="0.00000" height="282.1953" width="8" x="19.9551" y="81.2969"/><line style="stroke:#181818;stroke-width:0.5;stroke-dasharray:5,5;" x1="23" x2="23" y1="81.2969" y2="363.4922"/></g></g><g class="participant-lifeline" data-entity-uid="part2" data-qualified-name="Client" data-source-line="2" id="part2-lifeline"><g><title>Mobile.Web</title><rect fill="#000000" fill-opacity="0.00000" height="282.1953" width="8" x="171.6826" y="81.2969"/><line style="stroke:#181818;stroke-width:0.5;stroke-dasharray:5,5;" x1="174.6909" x2="174.6909" y1="81.2969" y2="363.4922"/></g></g><g class="participant-lifeline" data-entity-uid="part3" data-qualified-name="Backend" data-source-line="3" id="part3-lifeline"><g><title>Backend API</title><rect fill="#000000" fill-opacity="0.00000" height="282.1953" width="8" x="333.4883" y="81.2969"/><line style="stroke:#181818;stroke-width:0.5;stroke-dasharray:5,5;" x1="337.0083" x2="337.0083" y1="81.2969" y2="363.4922"/></g></g><g class="participant-lifeline" data-entity-uid="part4" data-qualified-name="Gemini" data-source-line="4" id="part4-lifeline"><g><title>Gemini API</title><rect fill="#000000" fill-opacity="0.00000" height="282.1953" width="8" x="478.022" y="81.2969"/><line style="stroke:#181818;stroke-width:0.5;stroke-dasharray:5,5;" x1="481.8467" x2="481.8467" y1="81.2969" y2="363.4922"/></g></g><g class="participant-lifeline" data-entity-uid="part5" data-qualified-name="DB" data-source-line="5" id="part5-lifeline"><g><title>MongoDB</title><rect fill="#000000" fill-opacity="0.00000" height="282.1953" width="8" x="569.8745" y="81.2969"/><line style="stroke:#181818;stroke-width:0.5;stroke-dasharray:5,5;" x1="573.1973" x2="573.1973" y1="81.2969" y2="363.4922"/></g></g><g class="participant participant-head" data-entity-uid="part1" data-qualified-name="User" data-source-line="1" id="part1-head"><text fill="#000000" font-family="sans-serif" font-size="14" lengthAdjust="spacing" textLength="31.9102" x="5" y="77.9951">User</text><ellipse cx="23.9551" cy="13.5" fill="#E2E2F0" rx="8" ry="8" style="stroke:#181818;stroke-width:0.5;"/><path d="M23.9551,21.5 L23.9551,48.5 M10.9551,29.5 L36.9551,29.5 M23.9551,48.5 L10.9551,63.5 M23.9551,48.5 L36.9551,63.5" fill="none" style="stroke:#181818;stroke-width:0.5;"/></g><g class="participant participant-tail" data-entity-uid="part1" data-qualified-name="User" data-source-line="1" id="part1-tail"><text fill="#000000" font-family="sans-serif" font-size="14" lengthAdjust="spacing" textLength="31.9102" x="5" y="375.4873">User</text><ellipse cx="23.9551" cy="387.2891" fill="#E2E2F0" rx="8" ry="8" style="stroke:#181818;stroke-width:0.5;"/><path d="M23.9551,395.2891 L23.9551,422.2891 M10.9551,403.2891 L36.9551,403.2891 M23.9551,422.2891 L10.9551,437.2891 M23.9551,422.2891 L36.9551,437.2891" fill="none" style="stroke:#181818;stroke-width:0.5;"/></g><g class="participant participant-head" data-entity-uid="part2" data-qualified-name="Client" data-source-line="2" id="part2-head"><rect fill="#E2E2F0" height="30.2969" rx="2.5" ry="2.5" style="stroke:#181818;stroke-width:0.5;" width="95.9834" x="127.6909" y="50"/><text fill="#000000" font-family="sans-serif" font-size="14" lengthAdjust="spacing" textLength="81.9834" x="134.6909" y="69.9951">Mobile/Web</text></g><g class="participant participant-tail" data-entity-uid="part2" data-qualified-name="Client" data-source-line="2" id="part2-tail"><rect fill="#E2E2F0" height="30.2969" rx="2.5" ry="2.5" style="stroke:#181818;stroke-width:0.5;" width="95.9834" x="127.6909" y="362.4922"/><text fill="#000000" font-family="sans-serif" font-size="14" lengthAdjust="spacing" textLength="81.9834" x="134.6909" y="382.4873">Mobile/Web</text></g><g class="participant participant-head" data-entity-uid="part3" data-qualified-name="Backend" data-source-line="3" id="part3-head"><rect fill="#E2E2F0" height="30.2969" rx="2.5" ry="2.5" style="stroke:#181818;stroke-width:0.5;" width="100.96" x="287.0083" y="50"/><text fill="#000000" font-family="sans-serif" font-size="14" lengthAdjust="spacing" textLength="86.96" x="294.0083" y="69.9951">Backend API</text></g><g class="participant participant-tail" data-entity-uid="part3" data-qualified-name="Backend" data-source-line="3" id="part3-tail"><rect fill="#E2E2F0" height="30.2969" rx="2.5" ry="2.5" style="stroke:#181818;stroke-width:0.5;" width="100.96" x="287.0083" y="362.4922"/><text fill="#000000" font-family="sans-serif" font-size="14" lengthAdjust="spacing" textLength="86.96" x="294.0083" y="382.4873">Backend API</text></g><g class="participant participant-head" data-entity-uid="part4" data-qualified-name="Gemini" data-source-line="4" id="part4-head"><rect fill="#E2E2F0" height="30.2969" rx="2.5" ry="2.5" style="stroke:#181818;stroke-width:0.5;" width="90.3506" x="436.8467" y="50"/><text fill="#000000" font-family="sans-serif" font-size="14" lengthAdjust="spacing" textLength="76.3506" x="443.8467" y="69.9951">Gemini API</text></g><g class="participant participant-tail" data-entity-uid="part4" data-qualified-name="Gemini" data-source-line="4" id="part4-tail"><rect fill="#E2E2F0" height="30.2969" rx="2.5" ry="2.5" style="stroke:#181818;stroke-width:0.5;" width="90.3506" x="436.8467" y="362.4922"/><text fill="#000000" font-family="sans-serif" font-size="14" lengthAdjust="spacing" textLength="76.3506" x="443.8467" y="382.4873">Gemini API</text></g><g class="participant participant-head" data-entity-uid="part5" data-qualified-name="DB" data-source-line="5" id="part5-head"><text fill="#000000" font-family="sans-serif" font-size="14" lengthAdjust="spacing" textLength="67.3545" x="537.1973" y="77.9951">MongoDB</text><path d="M555.8745,29 C555.8745,19 573.8745,19 573.8745,19 C573.8745,19 591.8745,19 591.8745,29 L591.8745,55 C591.8745,65 573.8745,65 573.8745,65 C573.8745,65 555.8745,65 555.8745,55 L555.8745,29" fill="#E2E2F0" style="stroke:#181818;stroke-width:0.5;"/><path d="M555.8745,29 C555.8745,39 573.8745,39 573.8745,39 C573.8745,39 591.8745,39 591.8745,29" fill="none" style="stroke:#181818;stroke-width:0.5;"/></g><g class="participant participant-tail" data-entity-uid="part5" data-qualified-name="DB" data-source-line="5" id="part5-tail"><text fill="#000000" font-family="sans-serif" font-size="14" lengthAdjust="spacing" textLength="67.3545" x="537.1973" y="375.4873">MongoDB</text><path d="M555.8745,388.7891 C555.8745,378.7891 573.8745,378.7891 573.8745,378.7891 C573.8745,378.7891 591.8745,378.7891 591.8745,388.7891 L591.8745,414.7891 C591.8745,424.7891 573.8745,424.7891 573.8745,424.7891 C573.8745,424.7891 555.8745,424.7891 555.8745,414.7891 L555.8745,388.7891" fill="#E2E2F0" style="stroke:#181818;stroke-width:0.5;"/><path d="M555.8745,388.7891 C555.8745,398.7891 573.8745,398.7891 573.8745,398.7891 C573.8745,398.7891 591.8745,398.7891 591.8745,388.7891" fill="none" style="stroke:#181818;stroke-width:0.5;"/></g><g><title>Mobile.Web</title><rect fill="#FFFFFF" height="233.0625" style="stroke:#181818;stroke-width:1;" width="10" x="170.6826" y="112.4297"/></g><g><title>Backend API</title><rect fill="#FFFFFF" height="174.7969" style="stroke:#181818;stroke-width:1;" width="10" x="332.4883" y="141.5625"/></g><g><title>Gemini API</title><rect fill="#FFFFFF" height="29.1328" style="stroke:#181818;stroke-width:1;" width="10" x="477.022" y="228.9609"/></g><g class="message" data-entity-1="part1" data-entity-2="part2" data-source-line="7" id="msg1"><polygon fill="#181818" points="158.6826,108.4297,168.6826,112.4297,158.6826,116.4297,162.6826,112.4297" style="stroke:#181818;stroke-width:1;"/><line style="stroke:#181818;stroke-width:1;" x1="23.9551" x2="164.6826" y1="112.4297" y2="112.4297"/><text fill="#000000" font-family="sans-serif" font-size="13" lengthAdjust="spacing" textLength="127.7275" x="30.9551" y="107.3638">Ask safety question</text></g><g class="message" data-entity-1="part2" data-entity-2="part3" data-source-line="9" id="msg2"><polygon fill="#181818" points="320.4883,137.5625,330.4883,141.5625,320.4883,145.5625,324.4883,141.5625" style="stroke:#181818;stroke-width:1;"/><line style="stroke:#181818;stroke-width:1;" x1="180.6826" x2="326.4883" y1="141.5625" y2="141.5625"/><text fill="#000000" font-family="sans-serif" font-size="13" lengthAdjust="spacing" textLength="132.8057" x="187.6826" y="136.4966">POST /ai/ask (query)</text></g><g class="message" data-entity-1="part3" data-entity-2="part5" data-source-line="11" id="msg3"><polygon fill="#181818" points="561.8745,166.6953,571.8745,170.6953,561.8745,174.6953,565.8745,170.6953" style="stroke:#181818;stroke-width:1;"/><line style="stroke:#181818;stroke-width:1;" x1="342.4883" x2="567.8745" y1="170.6953" y2="170.6953"/><text fill="#000000" font-family="sans-serif" font-size="13" lengthAdjust="spacing" textLength="175.9761" x="349.4883" y="165.6294">Get user context (optional)</text></g><g class="message" data-entity-1="part5" data-entity-2="part3" data-source-line="12" id="msg4"><polygon fill="#181818" points="353.4883,195.8281,343.4883,199.8281,353.4883,203.8281,349.4883,199.8281" style="stroke:#181818;stroke-width:1;"/><line style="stroke:#181818;stroke-width:1;stroke-dasharray:2,2;" x1="347.4883" x2="572.8745" y1="199.8281" y2="199.8281"/><text fill="#000000" font-family="sans-serif" font-size="13" lengthAdjust="spacing" textLength="61.769" x="359.4883" y="194.7622">user data</text></g><g class="message" data-entity-1="part3" data-entity-2="part4" data-source-line="13" id="msg5"><polygon fill="#181818" points="465.022,224.9609,475.022,228.9609,465.022,232.9609,469.022,228.9609" style="stroke:#181818;stroke-width:1;"/><line style="stroke:#181818;stroke-width:1;" x1="342.4883" x2="471.022" y1="228.9609" y2="228.9609"/><text fill="#000000" font-family="sans-serif" font-size="13" lengthAdjust="spacing" textLength="115.5337" x="349.4883" y="223.895">Prompt + context</text></g><g class="message" data-entity-1="part4" data-entity-2="part3" data-source-line="15" id="msg6"><polygon fill="#181818" points="353.4883,254.0938,343.4883,258.0938,353.4883,262.0938,349.4883,258.0938" style="stroke:#181818;stroke-width:1;"/><line style="stroke:#181818;stroke-width:1;stroke-dasharray:2,2;" x1="347.4883" x2="481.022" y1="258.0938" y2="258.0938"/><text fill="#000000" font-family="sans-serif" font-size="13" lengthAdjust="spacing" textLength="76.1909" x="359.4883" y="253.0278">AI response</text></g><g class="message" data-entity-1="part3" data-entity-2="part5" data-source-line="17" id="msg7"><polygon fill="#181818" points="561.8745,283.2266,571.8745,287.2266,561.8745,291.2266,565.8745,287.2266" style="stroke:#181818;stroke-width:1;"/><line style="stroke:#181818;stroke-width:1;" x1="342.4883" x2="567.8745" y1="287.2266" y2="287.2266"/><text fill="#000000" font-family="sans-serif" font-size="13" lengthAdjust="spacing" textLength="125.1504" x="349.4883" y="282.1606">Store query history</text></g><g class="message" data-entity-1="part3" data-entity-2="part2" data-source-line="18" id="msg8"><polygon fill="#181818" points="191.6826,312.3594,181.6826,316.3594,191.6826,320.3594,187.6826,316.3594" style="stroke:#181818;stroke-width:1;"/><line style="stroke:#181818;stroke-width:1;stroke-dasharray:2,2;" x1="185.6826" x2="336.4883" y1="316.3594" y2="316.3594"/><text fill="#000000" font-family="sans-serif" font-size="13" lengthAdjust="spacing" textLength="95.5068" x="197.6826" y="311.2935">JSON response</text></g><g class="message" data-entity-1="part2" data-entity-2="part1" data-source-line="20" id="msg9"><polygon fill="#181818" points="34.9551,341.4922,24.9551,345.4922,34.9551,349.4922,30.9551,345.4922" style="stroke:#181818;stroke-width:1;"/><line style="stroke:#181818;stroke-width:1;stroke-dasharray:2,2;" x1="28.9551" x2="174.6826" y1="345.4922" y2="345.4922"/><text fill="#000000" font-family="sans-serif" font-size="13" lengthAdjust="spacing" textLength="99.0044" x="40.9551" y="340.4263">Display answer</text></g><?plantuml-src RLBBQiCm4BphAvQS4ahmtOU2NKD98Kt0BJslxMqguaYgj6dhlwzaMxKTUXABPdOU4jQiBRmwiiAWPLbBWufXjTULR2bvese5wE2XbQHu2ScnFfDg83lkUimuBq6FT95A_c66KJJ8MA4Zs6jrqaKUhefSYE03jlUZN0gPEuF3T-8EFg_aM6ebi6RvXKpHqt04rcWWXUEXV844POAUl_PCssqcNlGP_NjcaQVU6iCrwDTQCVqmhBK9WjXkX7UudGlqk11YlcJ8vjMjlXY6kxXeKXxJZvqiDcOxiEICLev4GxUC6wkbVpE2FXTyIEUdReBCwdig3y__heqLnEuy9rIVGY6TQR43LExRVuaPPO3-0W00?></g></svg>