<svg xmlns="http://www.w3.org/2000/svg" xmlns:xlink="http://www.w3.org/1999/xlink" contentStyleType="text/css" data-diagram-type="SEQUENCE" height="772px" preserveAspectRatio="none" style="width:1020px;height:772px;background:#FFFFFF;" version="1.1" viewBox="0 0 1020 772" width="1020px" zoomAndPan="magnify"><?plantuml 1.2026.3beta6?><defs/><g><g><title>Mobile App</title><rect fill="#FFFFFF" height="553.2578" style="stroke:#181818;stroke-width:1;" width="10" x="182.4111" y="112.4297"/></g><g><title>Backend API</title><rect fill="#FFFFFF" height="481.9922" style="stroke:#181818;stroke-width:1;" width="10" x="389.8247" y="183.6953"/></g><g><title>Whisper API</title><rect fill="#FFFFFF" height="29.1328" style="stroke:#181818;stroke-width:1;" width="10" x="696.5391" y="313.2266"/></g><g><title>FCM.SMS</title><rect fill="#FFFFFF" height="58.2656" style="stroke:#181818;stroke-width:1;" width="10" x="794.6543" y="455.7578"/></g><g><title>FCM.SMS</title><rect fill="#FFFFFF" height="29.1328" style="stroke:#181818;stroke-width:1;" width="10" x="794.6543" y="543.1563"/></g><g class="participant-lifeline" data-entity-uid="part1" data-qualified-name="User" data-source-line="1" id="part1-lifeline"><g><title>User</title><rect fill="#000000" fill-opacity="0.00000" height="609.3906" width="8" x="19.9551" y="81.2969"/><line style="stroke:#181818;stroke-width:0.5;stroke-dasharray:5,5;" x1="23" x2="23" y1="81.2969" y2="690.6875"/></g></g><g class="participant-lifeline" data-entity-uid="part2" data-qualified-name="Mobile" data-source-line="2" id="part2-lifeline"><g><title>Mobile App</title><rect fill="#000000" fill-opacity="0.00000" height="609.3906" width="8" x="183.4111" y="81.2969"/><line style="stroke:#181818;stroke-width:0.5;stroke-dasharray:5,5;" x1="186.5488" x2="186.5488" y1="81.2969" y2="690.6875"/></g></g><g class="participant-lifeline" data-entity-uid="part3" data-qualified-name="Backend" data-source-line="3" id="part3-lifeline"><g><title>Backend API</title><rect fill="#000000" fill-opacity="0.00000" height="609.3906" width="8" x="390.8247" y="81.2969"/><line style="stroke:#181818;stroke-width:0.5;stroke-dasharray:5,5;" x1="394.3447" x2="394.3447" y1="81.2969" y2="690.6875"/></g></g><g class="participant-lifeline" data-entity-uid="part4" data-qualified-name="Whisper" data-source-line="4" id="part4-lifeline"><g><title>Whisper API</title><rect fill="#000000" fill-opacity="0.00000" height="609.3906" width="8" x="697.5391" y="81.2969"/><line style="stroke:#181818;stroke-width:0.5;stroke-dasharray:5,5;" x1="700.6621" x2="700.6621" y1="81.2969" y2="690.6875"/></g></g><g class="participant-lifeline" data-entity-uid="part5" data-qualified-name="Notify" data-source-line="5" id="part5-lifeline"><g><title>FCM.SMS</title><rect fill="#000000" fill-opacity="0.00000" height="609.3906" width="8" x="795.6543" y="81.2969"/><line style="stroke:#181818;stroke-width:0.5;stroke-dasharray:5,5;" x1="799.416" x2="799.416" y1="81.2969" y2="690.6875"/></g></g><g class="participant-lifeline" data-entity-uid="part6" data-qualified-name="Contact" data-source-line="6" id="part6-lifeline"><g><title>Emergency Contact</title><rect fill="#000000" fill-opacity="0.00000" height="609.3906" width="8" x="932.9834" y="81.2969"/><line style="stroke:#181818;stroke-width:0.5;stroke-dasharray:5,5;" x1="936.9199" x2="936.9199" y1="81.2969" y2="690.6875"/></g></g><g class="participant participant-head" data-entity-uid="part1" data-qualified-name="User" data-source-line="1" id="part1-head"><text fill="#000000" font-family="sans-serif" font-size="14" lengthAdjust="spacing" textLength="31.9102" x="5" y="77.9951">User</text><ellipse cx="23.9551" cy="13.5" fill="#E2E2F0" rx="8" ry="8" style="stroke:#181818;stroke-width:0.5;"/><path d="M23.9551,21.5 L23.9551,48.5 M10.9551,29.5 L36.9551,29.5 M23.9551,48.5 L10.9551,63.5 M23.9551,48.5 L36.9551,63.5" fill="none" style="stroke:#181818;stroke-width:0.5;"/></g><g class="participant participant-tail" data-entity-uid="part1" data-qualified-name="User" data-source-line="1" id="part1-tail"><text fill="#000000" font-family="sans-serif" font-size="14" lengthAdjust="spacing" textLength="31.9102" x="5" y="702.6826">User</text><ellipse cx="23.9551" cy="714.4844" fill="#E2E2F0" rx="8" ry="8" style="stroke:#181818;stroke-width:0.5;"/><path d="M23.9551,722.4844 L23.9551,749.4844 M10.9551,730.4844 L36.9551,730.4844 M23.9551,749.4844 L10.9551,764.4844 M23.9551,749.4844 L36.9551,764.4844" fill="none" style="stroke:#181818;stroke-width:0.5;"/></g><g class="participant participant-head" data-entity-uid="part2" data-qualified-name="Mobile" data-source-line="2" id="part2-head"><rect fill="#E2E2F0" height="30.2969" rx="2.5" ry="2.5" style="stroke:#181818;stroke-width:0.5;" width="91.7246" x="141.5488" y="50"/><text fill="#000000" font-family="sans-serif" font-size="14" lengthAdjust="spacing" textLength="77.7246" x="148.5488" y="69.9951">Mobile App</text></g><g class="participant participant-tail" data-entity-uid="part2" data-qualified-name="Mobile" data-source-line="2" id="part2-tail"><rect fill="#E2E2F0" height="30.2969" rx="2.5" ry="2.5" style="stroke:#181818;stroke-width:0.5;" width="91.7246" x="141.5488" y="689.6875"/><text fill="#000000" font-family="sans-serif" font-size="14" lengthAdjust="spacing" textLength="77.7246" x="148.5488" y="709.6826">Mobile App</text></g><g class="participant participant-head" data-entity-uid="part3" data-qualified-name="Backend" data-source-line="3" id="part3-head"><rect fill="#E2E2F0" height="30.2969" rx="2.5" ry="2.5" style="stroke:#181818;stroke-width:0.5;" width="100.96" x="344.3447" y="50"/><text fill="#000000" font-family="sans-serif" font-size="14" lengthAdjust="spacing" textLength="86.96" x="351.3447" y="69.9951">Backend API</text></g><g class="participant participant-tail" data-entity-uid="part3" data-qualified-name="Backend" data-source-line="3" id="part3-tail"><rect fill="#E2E2F0" height="30.2969" rx="2.5" ry="2.5" style="stroke:#181818;stroke-width:0.5;" width="100.96" x="344.3447" y="689.6875"/><text fill="#000000" font-family="sans-serif" font-size="14" lengthAdjust="spacing" textLength="86.96" x="351.3447" y="709.6826">Backend API</text></g><g class="participant participant-head" data-entity-uid="part4" data-qualified-name="Whisper" data-source-line="4" id="part4-head"><rect fill="#E2E2F0" height="30.2969" rx="2.5" ry="2.5" style="stroke:#181818;stroke-width:0.5;" width="97.7539" x="652.6621" y="50"/><text fill="#000000" font-family="sans-serif" font-size="14" lengthAdjust="spacing" textLength="83.7539" x="659.6621" y="69.9951">Whisper API</text></g><g class="participant participant-tail" data-entity-uid="part4" data-qualified-name="Whisper" data-source-line="4" id="part4-tail"><rect fill="#E2E2F0" height="30.2969" rx="2.5" ry="2.5" style="stroke:#181818;stroke-width:0.5;" width="97.7539" x="652.6621" y="689.6875"/><text fill="#000000" font-family="sans-serif" font-size="14" lengthAdjust="spacing" textLength="83.7539" x="659.6621" y="709.6826">Whisper API</text></g><g class="participant participant-head" data-entity-uid="part5" data-qualified-name="Notify" data-source-line="5" id="part5-head"><rect fill="#E2E2F0" height="30.2969" rx="2.5" ry="2.5" style="stroke:#181818;stroke-width:0.5;" width="78.4766" x="760.416" y="50"/><text fill="#000000" font-family="sans-serif" font-size="14" lengthAdjust="spacing" textLength="64.4766" x="767.416" y="69.9951">FCM/SMS</text></g><g class="participant participant-tail" data-entity-uid="part5" data-qualified-name="Notify" data-source-line="5" id="part5-tail"><rect fill="#E2E2F0" height="30.2969" rx="2.5" ry="2.5" style="stroke:#181818;stroke-width:0.5;" width="78.4766" x="760.416" y="689.6875"/><text fill="#000000" font-family="sans-serif" font-size="14" lengthAdjust="spacing" textLength="64.4766" x="767.416" y="709.6826">FCM/SMS</text></g><g class="participant participant-head" data-entity-uid="part6" data-qualified-name="Contact" data-source-line="6" id="part6-head"><text fill="#000000" font-family="sans-serif" font-size="14" lengthAdjust="spacing" textLength="138.127" x="864.9199" y="77.9951">Emergency Contact</text><ellipse cx="936.9834" cy="13.5" fill="#E2E2F0" rx="8" ry="8" style="stroke:#181818;stroke-width:0.5;"/><path d="M936.9834,21.5 L936.9834,48.5 M923.9834,29.5 L949.9834,29.5 M936.9834,48.5 L923.9834,63.5 M936.9834,48.5 L949.9834,63.5" fill="none" style="stroke:#181818;stroke-width:0.5;"/></g><g class="participant participant-tail" data-entity-uid="part6" data-qualified-name="Contact" data-source-line="6" id="part6-tail"><text fill="#000000" font-family="sans-serif" font-size="14" lengthAdjust="spacing" textLength="138.127" x="864.9199" y="702.6826">Emergency Contact</text><ellipse cx="936.9834" cy="714.4844" fill="#E2E2F0" rx="8" ry="8" style="stroke:#181818;stroke-width:0.5;"/><path d="M936.9834,722.4844 L936.9834,749.4844 M923.9834,730.4844 L949.9834,730.4844 M936.9834,749.4844 L923.9834,764.4844 M936.9834,749.4844 L949.9834,764.4844" fill="none" style="stroke:#181818;stroke-width:0.5;"/></g><g><title>Mobile App</title><rect fill="#FFFFFF" height="553.2578" style="stroke:#181818;stroke-width:1;" width="10" x="182.4111" y="112.4297"/></g><g><title>Backend API</title><rect fill="#FFFFFF" height="481.9922" style="stroke:#181818;stroke-width:1;" width="10" x="389.8247" y="183.6953"/></g><g><title>Whisper API</title><rect fill="#FFFFFF" height="29.1328" style="stroke:#181818;stroke-width:1;" width="10" x="696.5391" y="313.2266"/></g><g><title>FCM.SMS</title><rect fill="#FFFFFF" height="58.2656" style="stroke:#181818;stroke-width:1;" width="10" x="794.6543" y="455.7578"/></g><g><title>FCM.SMS</title><rect fill="#FFFFFF" height="29.1328" style="stroke:#181818;stroke-width:1;" width="10" x="794.6543" y="543.1563"/></g><g class="message" data-entity-1="part1" data-entity-2="part2" data-source-line="8" id="msg1"><polygon fill="#181818" points="170.4111,108.4297,180.4111,112.4297,170.4111,116.4297,174.4111,112.4297" style="stroke:#181818;stroke-width:1;"/><line style="stroke:#181818;stroke-width:1;" x1="23.9551" x2="176.4111" y1="112.4297" y2="112.4297"/><text fill="#000000" font-family="sans-serif" font-size="13" lengthAdjust="spacing" textLength="55.0278" x="30.9551" y="107.3638">Tap SOS</text></g><g class="message" data-entity-1="part2" data-entity-2="part2" data-source-line="10" id="msg2"><line style="stroke:#181818;stroke-width:1;" x1="192.4111" x2="234.4111" y1="141.5625" y2="141.5625"/><line style="stroke:#181818;stroke-width:1;" x1="234.4111" x2="234.4111" y1="141.5625" y2="154.5625"/><line style="stroke:#181818;stroke-width:1;" x1="193.4111" x2="234.4111" y1="154.5625" y2="154.5625"/><polygon fill="#181818" points="203.4111,150.5625,193.4111,154.5625,203.4111,158.5625,199.4111,154.5625" style="stroke:#181818;stroke-width:1;"/><text fill="#000000" font-family="sans-serif" font-size="13" lengthAdjust="spacing" textLength="135.0908" x="199.4111" y="136.4966">Start 13s countdown</text></g><g class="message" data-entity-1="part2" data-entity-2="part3" data-source-line="11" id="msg3"><polygon fill="#181818" points="377.8247,179.6953,387.8247,183.6953,377.8247,187.6953,381.8247,183.6953" style="stroke:#181818;stroke-width:1;"/><line style="stroke:#181818;stroke-width:1;" x1="192.4111" x2="383.8247" y1="183.6953" y2="183.6953"/><text fill="#000000" font-family="sans-serif" font-size="13" lengthAdjust="spacing" textLength="178.4136" x="199.4111" y="178.6294">POST /sos/trigger (location)</text></g><g class="message" data-entity-1="part3" data-entity-2="part3" data-source-line="13" id="msg4"><line style="stroke:#181818;stroke-width:1;" x1="399.8247" x2="441.8247" y1="212.8281" y2="212.8281"/><line style="stroke:#181818;stroke-width:1;" x1="441.8247" x2="441.8247" y1="212.8281" y2="225.8281"/><line style="stroke:#181818;stroke-width:1;" x1="400.8247" x2="441.8247" y1="225.8281" y2="225.8281"/><polygon fill="#181818" points="410.8247,221.8281,400.8247,225.8281,410.8247,229.8281,406.8247,225.8281" style="stroke:#181818;stroke-width:1;"/><text fill="#000000" font-family="sans-serif" font-size="13" lengthAdjust="spacing" textLength="115.5083" x="406.8247" y="207.7622">Create SOS event</text></g><g class="message" data-entity-1="part3" data-entity-2="part2" data-source-line="14" id="msg5"><polygon fill="#181818" points="203.4111,250.9609,193.4111,254.9609,203.4111,258.9609,199.4111,254.9609" style="stroke:#181818;stroke-width:1;"/><line style="stroke:#181818;stroke-width:1;stroke-dasharray:2,2;" x1="197.4111" x2="388.8247" y1="254.9609" y2="254.9609"/><text fill="#000000" font-family="sans-serif" font-size="13" lengthAdjust="spacing" textLength="119.8818" x="209.4111" y="249.895">sos_id, countdown</text></g><g class="message" data-entity-1="part2" data-entity-2="part3" data-source-line="16" id="msg6"><polygon fill="#181818" points="377.8247,280.0938,387.8247,284.0938,377.8247,288.0938,381.8247,284.0938" style="stroke:#181818;stroke-width:1;"/><line style="stroke:#181818;stroke-width:1;" x1="192.4111" x2="383.8247" y1="284.0938" y2="284.0938"/><text fill="#000000" font-family="sans-serif" font-size="13" lengthAdjust="spacing" textLength="137.7759" x="199.4111" y="279.0278">Stream audio chunks</text></g><g class="message" data-entity-1="part3" data-entity-2="part4" data-source-line="17" id="msg7"><polygon fill="#181818" points="684.5391,309.2266,694.5391,313.2266,684.5391,317.2266,688.5391,313.2266" style="stroke:#181818;stroke-width:1;"/><line style="stroke:#181818;stroke-width:1;" x1="399.8247" x2="690.5391" y1="313.2266" y2="313.2266"/><text fill="#000000" font-family="sans-serif" font-size="13" lengthAdjust="spacing" textLength="108.7734" x="406.8247" y="308.1606">Transcribe audio</text></g><g class="message" data-entity-1="part4" data-entity-2="part3" data-source-line="19" id="msg8"><polygon fill="#181818" points="410.8247,338.3594,400.8247,342.3594,410.8247,346.3594,406.8247,342.3594" style="stroke:#181818;stroke-width:1;"/><line style="stroke:#181818;stroke-width:1;stroke-dasharray:2,2;" x1="404.8247" x2="700.5391" y1="342.3594" y2="342.3594"/><text fill="#000000" font-family="sans-serif" font-size="13" lengthAdjust="spacing" textLength="82.6782" x="416.8247" y="337.2935">transcription</text></g><g class="message" data-entity-1="part3" data-entity-2="part3" data-source-line="22" id="msg9"><line style="stroke:#181818;stroke-width:1;" x1="399.8247" x2="441.8247" y1="371.4922" y2="371.4922"/><line style="stroke:#181818;stroke-width:1;" x1="441.8247" x2="441.8247" y1="371.4922" y2="384.4922"/><line style="stroke:#181818;stroke-width:1;" x1="400.8247" x2="441.8247" y1="384.4922" y2="384.4922"/><polygon fill="#181818" points="410.8247,380.4922,400.8247,384.4922,410.8247,388.4922,406.8247,384.4922" style="stroke:#181818;stroke-width:1;"/><text fill="#000000" font-family="sans-serif" font-size="13" lengthAdjust="spacing" textLength="212.0498" x="406.8247" y="366.4263">Threat detection (keyword scan)</text></g><g class="message" data-entity-1="part3" data-entity-2="part3" data-source-line="23" id="msg10"><line style="stroke:#181818;stroke-width:1;" x1="399.8247" x2="441.8247" y1="413.625" y2="413.625"/><line style="stroke:#181818;stroke-width:1;" x1="441.8247" x2="441.8247" y1="413.625" y2="426.625"/><line style="stroke:#181818;stroke-width:1;" x1="400.8247" x2="441.8247" y1="426.625" y2="426.625"/><polygon fill="#181818" points="410.8247,422.625,400.8247,426.625,410.8247,430.625,406.8247,426.625" style="stroke:#181818;stroke-width:1;"/><text fill="#000000" font-family="sans-serif" font-size="13" lengthAdjust="spacing" textLength="106.6724" x="406.8247" y="408.5591">Store SOS event</text></g><g class="message" data-entity-1="part3" data-entity-2="part5" data-source-line="25" id="msg11"><polygon fill="#181818" points="782.6543,451.7578,792.6543,455.7578,782.6543,459.7578,786.6543,455.7578" style="stroke:#181818;stroke-width:1;"/><line style="stroke:#181818;stroke-width:1;" x1="399.8247" x2="788.6543" y1="455.7578" y2="455.7578"/><text fill="#000000" font-family="sans-serif" font-size="13" lengthAdjust="spacing" textLength="108.9385" x="406.8247" y="450.6919">Send alert (FCM)</text></g><g class="message" data-entity-1="part5" data-entity-2="part6" data-source-line="27" id="msg12"><polygon fill="#181818" points="924.9834,480.8906,934.9834,484.8906,924.9834,488.8906,928.9834,484.8906" style="stroke:#181818;stroke-width:1;"/><line style="stroke:#181818;stroke-width:1;" x1="804.6543" x2="930.9834" y1="484.8906" y2="484.8906"/><text fill="#000000" font-family="sans-serif" font-size="13" lengthAdjust="spacing" textLength="108.3291" x="811.6543" y="479.8247">Push notification</text></g><g class="message" data-entity-1="part5" data-entity-2="part3" data-source-line="28" id="msg13"><polygon fill="#181818" points="410.8247,510.0234,400.8247,514.0234,410.8247,518.0234,406.8247,514.0234" style="stroke:#181818;stroke-width:1;"/><line style="stroke:#181818;stroke-width:1;stroke-dasharray:2,2;" x1="404.8247" x2="798.6543" y1="514.0234" y2="514.0234"/><text fill="#000000" font-family="sans-serif" font-size="13" lengthAdjust="spacing" textLength="96.2813" x="416.8247" y="508.9575">delivery status</text></g><g class="message" data-entity-1="part3" data-entity-2="part5" data-source-line="31" id="msg14"><polygon fill="#181818" points="782.6543,539.1563,792.6543,543.1563,782.6543,547.1563,786.6543,543.1563" style="stroke:#181818;stroke-width:1;"/><line style="stroke:#181818;stroke-width:1;" x1="399.8247" x2="788.6543" y1="543.1563" y2="543.1563"/><text fill="#000000" font-family="sans-serif" font-size="13" lengthAdjust="spacing" textLength="82.5132" x="406.8247" y="538.0903">SMS fallback</text></g><g class="message" data-entity-1="part5" data-entity-2="part6" data-source-line="33" id="msg15"><polygon fill="#181818" points="924.9834,568.2891,934.9834,572.2891,924.9834,576.2891,928.9834,572.2891" style="stroke:#181818;stroke-width:1;"/><line style="stroke:#181818;stroke-width:1;" x1="799.6543" x2="930.9834" y1="572.2891" y2="572.2891"/><text fill="#000000" font-family="sans-serif" font-size="13" lengthAdjust="spacing" textLength="61.8706" x="806.6543" y="567.2231">SMS alert</text></g><g class="message" data-entity-1="part3" data-entity-2="part2" data-source-line="36" id="msg16"><polygon fill="#181818" points="203.4111,597.4219,193.4111,601.4219,203.4111,605.4219,199.4111,601.4219" style="stroke:#181818;stroke-width:1;"/><line style="stroke:#181818;stroke-width:1;stroke-dasharray:2,2;" x1="197.4111" x2="388.8247" y1="601.4219" y2="601.4219"/><text fill="#000000" font-family="sans-serif" font-size="13" lengthAdjust="spacing" textLength="149.7222" x="209.4111" y="596.356">Alert sent confirmation</text></g><g class="message" data-entity-1="part2" data-entity-2="part1" data-source-line="37" id="msg17"><polygon fill="#181818" points="34.9551,626.5547,24.9551,630.5547,34.9551,634.5547,30.9551,630.5547" style="stroke:#181818;stroke-width:1;"/><line style="stroke:#181818;stroke-width:1;stroke-dasharray:2,2;" x1="28.9551" x2="181.4111" y1="630.5547" y2="630.5547"/><text fill="#000000" font-family="sans-serif" font-size="13" lengthAdjust="spacing" textLength="134.4561" x="40.9551" y="625.4888">Display confirmation</text></g><g class="message" data-entity-1="part3" data-entity-2="part3" data-source-line="39" id="msg18"><line style="stroke:#181818;stroke-width:1;" x1="399.8247" x2="441.8247" y1="664.6875" y2="664.6875"/><line style="stroke:#181818;stroke-width:1;" x1="441.8247" x2="441.8247" y1="664.6875" y2="677.6875"/><line style="stroke:#181818;stroke-width:1;" x1="394.8247" x2="441.8247" y1="677.6875" y2="677.6875"/><polygon fill="#181818" points="404.8247,673.6875,394.8247,677.6875,404.8247,681.6875,400.8247,677.6875" style="stroke:#181818;stroke-width:1;"/><text fill="#000000" font-family="sans-serif" font-size="13" lengthAdjust="spacing" textLength="272.7144" x="406.8247" y="659.6216">WebSocket location push (if group active)</text></g><?plantuml-src ZLB1JW8n4BtlLqmuGQ8XnXi74qHDFA0cnN0qfJj0mz8sxIna_zxfRbTAt1XFstRVpBptvab5riDdG5yuwKahxQGX62tjHbS8S-T680Dqrsl8erG7D2NCFrvRJBfVWzPx7Hpw7r2wNuDU5ikfM8eMy6P9Rvj2jhn6pqVqEpIgWOKrn8yj9fsB8lA6suT4RmOhwK2yYrYjJvAmvvtKP4X1J03kxWCeMnigxTbag2Hb1X_lOWNJOCEKlDxjUDguiagIjcPocT8hxnt9EomyHWYp0ZoXeGieOyC3ldHvat4P8YE8Unr1rgMseFQrEOHyPBAMNV3I1ENr1ZliXMZlVh-LsxmzfJ8NrHKb_geQrBVQHu5G8g6AXJ0-O7EsleIW99iqL2DujxabEQZRFsFYNLR8MnfpFZAtKqAwJon9SU1jrM4F9hxhRaS_e7nwYPK-eMyWaAGwv4fJwq4-Im5RMLKR_lKVBX7Vql-pVvQ1UQiri1yS0xFL_jX9w8F0q1Zt6JpnDYhPNAC6VLxZHbW-4_IX1HSj6kijxBoj7RJCS99pxCESFNKKlW40?></g></svg>