<svg xmlns="http://www.w3.org/2000/svg" xmlns:xlink="http://www.w3.org/1999/xlink" contentStyleType="text/css" data-diagram-type="DESCRIPTION" height="737px" preserveAspectRatio="none" style="width:1600px;height:737px;background:#FFFFFF;" version="1.1" viewBox="0 0 1600 737" width="1600px" zoomAndPan="magnify"><?plantuml 1.2026.3beta6?><defs/><g><!--cluster Client Layer--><g class="cluster" data-qualified-name="Client Layer" data-source-line="5" id="ent0002"><path d="M784.5,6 L880.2939,6 A3.75,3.75 0 0 1 882.7939,8.5 L889.7939,28.2969 L927.5,28.2969 A2.5,2.5 0 0 1 930,30.7969 L930,90.8 A2.5,2.5 0 0 1 927.5,93.3 L784.5,93.3 A2.5,2.5 0 0 1 782,90.8 L782,8.5 A2.5,2.5 0 0 1 784.5,6" fill="none" style="stroke:#000000;stroke-width:1.5;"/><line style="stroke:#000000;stroke-width:1.5;" x1="782" x2="889.7939" y1="28.2969" y2="28.2969"/><text fill="#000000" font-family="sans-serif" font-size="14" font-weight="700" lengthAdjust="spacing" textLength="94.7939" x="786" y="20.9951">Client Layer</text></g><!--cluster API Gateway--><g class="cluster" data-qualified-name="API Gateway" data-source-line="9" id="ent0004"><path d="M787.5,117.3 L888.3115,117.3 A3.75,3.75 0 0 1 890.8115,119.8 L897.8115,139.5969 L924.5,139.5969 A2.5,2.5 0 0 1 927,142.0969 L927,202.1 A2.5,2.5 0 0 1 924.5,204.6 L787.5,204.6 A2.5,2.5 0 0 1 785,202.1 L785,119.8 A2.5,2.5 0 0 1 787.5,117.3" fill="none" style="stroke:#000000;stroke-width:1.5;"/><line style="stroke:#000000;stroke-width:1.5;" x1="785" x2="897.8115" y1="139.5969" y2="139.5969"/><text fill="#000000" font-family="sans-serif" font-size="14" font-weight="700" lengthAdjust="spacing" textLength="99.8115" x="789" y="132.2951">API Gateway</text></g><!--cluster Backend Layer (FastAPI)--><g class="cluster" data-qualified-name="Backend Layer .FastAPI." data-source-line="13" id="ent0006"><path d="M8.5,228.6 L203.4902,228.6 A3.75,3.75 0 0 1 205.9902,231.1 L212.9902,250.8969 L1531.5,250.8969 A2.5,2.5 0 0 1 1534,253.3969 L1534,491.69 A2.5,2.5 0 0 1 1531.5,494.19 L8.5,494.19 A2.5,2.5 0 0 1 6,491.69 L6,231.1 A2.5,2.5 0 0 1 8.5,228.6" fill="none" style="stroke:#000000;stroke-width:1.5;"/><line style="stroke:#000000;stroke-width:1.5;" x1="6" x2="212.9902" y1="250.8969" y2="250.8969"/><text fill="#000000" font-family="sans-serif" font-size="14" font-weight="700" lengthAdjust="spacing" textLength="193.9902" x="10" y="243.5951">Backend Layer (FastAPI)</text></g><!--cluster Middleware--><g class="cluster" data-qualified-name="Backend Layer .FastAPI..Middleware" data-source-line="14" id="ent0007"><path d="M32.5,271.6 L125.3477,271.6 A3.75,3.75 0 0 1 127.8477,274.1 L134.8477,293.8969 L238.5,293.8969 A2.5,2.5 0 0 1 241,296.3969 L241,467.69 A2.5,2.5 0 0 1 238.5,470.19 L32.5,470.19 A2.5,2.5 0 0 1 30,467.69 L30,274.1 A2.5,2.5 0 0 1 32.5,271.6" fill="none" style="stroke:#000000;stroke-width:1.5;"/><line style="stroke:#000000;stroke-width:1.5;" x1="30" x2="134.8477" y1="293.8969" y2="293.8969"/><text fill="#000000" font-family="sans-serif" font-size="14" font-weight="700" lengthAdjust="spacing" textLength="91.8477" x="34" y="286.5951">Middleware</text></g><!--cluster Route Handlers--><g class="cluster" data-qualified-name="Backend Layer .FastAPI..Route Handlers" data-source-line="19" id="ent0011"><path d="M426.5,271.6 L549.6104,271.6 A3.75,3.75 0 0 1 552.1104,274.1 L559.1104,293.8969 L1293.5,293.8969 A2.5,2.5 0 0 1 1296,296.3969 L1296,356.39 A2.5,2.5 0 0 1 1293.5,358.89 L426.5,358.89 A2.5,2.5 0 0 1 424,356.39 L424,274.1 A2.5,2.5 0 0 1 426.5,271.6" fill="none" style="stroke:#000000;stroke-width:1.5;"/><line style="stroke:#000000;stroke-width:1.5;" x1="424" x2="559.1104" y1="293.8969" y2="293.8969"/><text fill="#000000" font-family="sans-serif" font-size="14" font-weight="700" lengthAdjust="spacing" textLength="122.1104" x="428" y="286.5951">Route Handlers</text></g><!--cluster Service Layer--><g class="cluster" data-qualified-name="Backend Layer .FastAPI..Service Layer" data-source-line="27" id="ent0018"><path d="M267.5,382.89 L375.4688,382.89 A3.75,3.75 0 0 1 377.9688,385.39 L384.9688,405.1869 L1507.5,405.1869 A2.5,2.5 0 0 1 1510,407.6869 L1510,467.69 A2.5,2.5 0 0 1 1507.5,470.19 L267.5,470.19 A2.5,2.5 0 0 1 265,467.69 L265,385.39 A2.5,2.5 0 0 1 267.5,382.89" fill="none" style="stroke:#000000;stroke-width:1.5;"/><line style="stroke:#000000;stroke-width:1.5;" x1="265" x2="384.9688" y1="405.1869" y2="405.1869"/><text fill="#000000" font-family="sans-serif" font-size="14" font-weight="700" lengthAdjust="spacing" textLength="106.9688" x="269" y="397.8851">Service Layer</text></g><!--cluster External Services--><g class="cluster" data-qualified-name="External Services" data-source-line="43" id="ent0030"><path d="M691.5,518.19 L829.8066,518.19 A3.75,3.75 0 0 1 832.3066,520.69 L839.3066,540.4869 L1308.5,540.4869 A2.5,2.5 0 0 1 1311,542.9869 L1311,602.99 A2.5,2.5 0 0 1 1308.5,605.49 L691.5,605.49 A2.5,2.5 0 0 1 689,602.99 L689,520.69 A2.5,2.5 0 0 1 691.5,518.19" fill="none" style="stroke:#000000;stroke-width:1.5;"/><line style="stroke:#000000;stroke-width:1.5;" x1="689" x2="839.3066" y1="540.4869" y2="540.4869"/><text fill="#000000" font-family="sans-serif" font-size="14" font-weight="700" lengthAdjust="spacing" textLength="137.3066" x="693" y="533.1851">External Services</text></g><!--cluster ML & Data--><g class="cluster" data-qualified-name="ML . Data" data-source-line="51" id="ent0036"><path d="M1409.5,518.19 L1492.5176,518.19 A3.75,3.75 0 0 1 1495.0176,520.69 L1502.0176,540.4869 L1582.5,540.4869 A2.5,2.5 0 0 1 1585,542.9869 L1585,720.08 A2.5,2.5 0 0 1 1582.5,722.58 L1409.5,722.58 A2.5,2.5 0 0 1 1407,720.08 L1407,520.69 A2.5,2.5 0 0 1 1409.5,518.19" fill="none" style="stroke:#000000;stroke-width:1.5;"/><line style="stroke:#000000;stroke-width:1.5;" x1="1407" x2="1502.0176" y1="540.4869" y2="540.4869"/><text fill="#000000" font-family="sans-serif" font-size="14" font-weight="700" lengthAdjust="spacing" textLength="82.0176" x="1411" y="533.1851">ML &amp; Data</text></g><!--entity Mobile--><g class="entity" data-qualified-name="Client Layer.Mobile" data-source-line="6" id="ent0003"><rect fill="#F1F1F1" height="36.2969" rx="2.5" ry="2.5" style="stroke:#181818;stroke-width:0.5;" width="116.5371" x="797.73" y="41"/><text fill="#000000" font-family="sans-serif" font-size="14" lengthAdjust="spacing" textLength="96.5371" x="807.73" y="63.9951">Flutter Mobile</text></g><!--entity Gateway--><g class="entity" data-qualified-name="API Gateway.Gateway" data-source-line="10" id="ent0005"><rect fill="#F1F1F1" height="36.2969" rx="2.5" ry="2.5" style="stroke:#181818;stroke-width:0.5;" width="109.5371" x="801.23" y="152.3"/><text fill="#000000" font-family="sans-serif" font-size="14" lengthAdjust="spacing" textLength="89.5371" x="811.23" y="175.2951">Nginx/Caddy</text></g><!--entity CORS--><g class="entity" data-qualified-name="Backend Layer .FastAPI..Middleware.CORS" data-source-line="15" id="ent0008"><rect fill="#F1F1F1" height="36.2969" rx="2.5" ry="2.5" style="stroke:#181818;stroke-width:0.5;" width="59.4092" x="46.3" y="306.6"/><text fill="#000000" font-family="sans-serif" font-size="14" lengthAdjust="spacing" textLength="39.4092" x="56.3" y="329.5951">CORS</text></g><!--entity Auth JWT--><g class="entity" data-qualified-name="Backend Layer .FastAPI..Middleware.Auth JWT" data-source-line="16" id="ent0009"><rect fill="#F1F1F1" height="36.2969" rx="2.5" ry="2.5" style="stroke:#181818;stroke-width:0.5;" width="83.7861" x="141.11" y="306.6"/><text fill="#000000" font-family="sans-serif" font-size="14" lengthAdjust="spacing" textLength="63.7861" x="151.11" y="329.5951">Auth JWT</text></g><!--entity Rate Limiter--><g class="entity" data-qualified-name="Backend Layer .FastAPI..Middleware.Rate Limiter" data-source-line="17" id="ent0010"><rect fill="#F1F1F1" height="36.2969" rx="2.5" ry="2.5" style="stroke:#181818;stroke-width:0.5;" width="105.9346" x="46.03" y="417.89"/><text fill="#000000" font-family="sans-serif" font-size="14" lengthAdjust="spacing" textLength="85.9346" x="56.03" y="440.8851">Rate Limiter</text></g><!--entity Auth Routes--><g class="entity" data-qualified-name="Backend Layer .FastAPI..Route Handlers.Auth Routes" data-source-line="20" id="ent0012"><rect fill="#F1F1F1" height="36.2969" rx="2.5" ry="2.5" style="stroke:#181818;stroke-width:0.5;" width="105.8252" x="730.09" y="306.6"/><text fill="#000000" font-family="sans-serif" font-size="14" lengthAdjust="spacing" textLength="85.8252" x="740.09" y="329.5951">Auth Routes</text></g><!--entity SOS Routes--><g class="entity" data-qualified-name="Backend Layer .FastAPI..Route Handlers.SOS Routes" data-source-line="21" id="ent0013"><rect fill="#F1F1F1" height="36.2969" rx="2.5" ry="2.5" style="stroke:#181818;stroke-width:0.5;" width="101.8057" x="593.1" y="306.6"/><text fill="#000000" font-family="sans-serif" font-size="14" lengthAdjust="spacing" textLength="81.8057" x="603.1" y="329.5951">SOS Routes</text></g><!--entity Group Routes--><g class="entity" data-qualified-name="Backend Layer .FastAPI..Route Handlers.Group Routes" data-source-line="22" id="ent0014"><rect fill="#F1F1F1" height="36.2969" rx="2.5" ry="2.5" style="stroke:#181818;stroke-width:0.5;" width="115.9424" x="871.03" y="306.6"/><text fill="#000000" font-family="sans-serif" font-size="14" lengthAdjust="spacing" textLength="95.9424" x="881.03" y="329.5951">Group Routes</text></g><!--entity Threat Routes--><g class="entity" data-qualified-name="Backend Layer .FastAPI..Route Handlers.Threat Routes" data-source-line="23" id="ent0015"><rect fill="#F1F1F1" height="36.2969" rx="2.5" ry="2.5" style="stroke:#181818;stroke-width:0.5;" width="118.875" x="439.56" y="306.6"/><text fill="#000000" font-family="sans-serif" font-size="14" lengthAdjust="spacing" textLength="98.875" x="449.56" y="329.5951">Threat Routes</text></g><!--entity AI Routes--><g class="entity" data-qualified-name="Backend Layer .FastAPI..Route Handlers.AI Routes" data-source-line="24" id="ent0016"><rect fill="#F1F1F1" height="36.2969" rx="2.5" ry="2.5" style="stroke:#181818;stroke-width:0.5;" width="86.7188" x="1193.64" y="306.6"/><text fill="#000000" font-family="sans-serif" font-size="14" lengthAdjust="spacing" textLength="66.7188" x="1203.64" y="329.5951">AI Routes</text></g><!--entity Analytics Routes--><g class="entity" data-qualified-name="Backend Layer .FastAPI..Route Handlers.Analytics Routes" data-source-line="25" id="ent0017"><rect fill="#F1F1F1" height="36.2969" rx="2.5" ry="2.5" style="stroke:#181818;stroke-width:0.5;" width="136.5869" x="1021.71" y="306.6"/><text fill="#000000" font-family="sans-serif" font-size="14" lengthAdjust="spacing" textLength="116.5869" x="1031.71" y="329.5951">Analytics Routes</text></g><!--entity User Service--><g class="entity" data-qualified-name="Backend Layer .FastAPI..Service Layer.User Service" data-source-line="28" id="ent0019"><rect fill="#F1F1F1" height="36.2969" rx="2.5" ry="2.5" style="stroke:#181818;stroke-width:0.5;" width="108.1016" x="727.95" y="417.89"/><text fill="#000000" font-family="sans-serif" font-size="14" lengthAdjust="spacing" textLength="88.1016" x="737.95" y="440.8851">User Service</text></g><!--entity SOS Service--><g class="entity" data-qualified-name="Backend Layer .FastAPI..Service Layer.SOS Service" data-source-line="29" id="ent0020"><rect fill="#F1F1F1" height="36.2969" rx="2.5" ry="2.5" style="stroke:#181818;stroke-width:0.5;" width="104.9844" x="587.51" y="417.89"/><text fill="#000000" font-family="sans-serif" font-size="14" lengthAdjust="spacing" textLength="84.9844" x="597.51" y="440.8851">SOS Service</text></g><!--entity Group Service--><g class="entity" data-qualified-name="Backend Layer .FastAPI..Service Layer.Group Service" data-source-line="30" id="ent0021"><rect fill="#F1F1F1" height="36.2969" rx="2.5" ry="2.5" style="stroke:#181818;stroke-width:0.5;" width="119.1211" x="871.44" y="417.89"/><text fill="#000000" font-family="sans-serif" font-size="14" lengthAdjust="spacing" textLength="99.1211" x="881.44" y="440.8851">Group Service</text></g><!--entity Threat Detection--><g class="entity" data-qualified-name="Backend Layer .FastAPI..Service Layer.Threat Detection" data-source-line="31" id="ent0022"><rect fill="#F1F1F1" height="36.2969" rx="2.5" ry="2.5" style="stroke:#181818;stroke-width:0.5;" width="138.3232" x="413.84" y="417.89"/><text fill="#000000" font-family="sans-serif" font-size="14" lengthAdjust="spacing" textLength="118.3232" x="423.84" y="440.8851">Threat Detection</text></g><!--entity Notification Service--><g class="entity" data-qualified-name="Backend Layer .FastAPI..Service Layer.Notification Service" data-source-line="32" id="ent0023"><rect fill="#F1F1F1" height="36.2969" rx="2.5" ry="2.5" style="stroke:#181818;stroke-width:0.5;" width="156.5205" x="1025.74" y="417.89"/><text fill="#000000" font-family="sans-serif" font-size="14" lengthAdjust="spacing" textLength="136.5205" x="1035.74" y="440.8851">Notification Service</text></g><!--entity Analytics Service--><g class="entity" data-qualified-name="Backend Layer .FastAPI..Service Layer.Analytics Service" data-source-line="33" id="ent0024"><rect fill="#F1F1F1" height="36.2969" rx="2.5" ry="2.5" style="stroke:#181818;stroke-width:0.5;" width="139.7656" x="1217.12" y="417.89"/><text fill="#000000" font-family="sans-serif" font-size="14" lengthAdjust="spacing" textLength="119.7656" x="1227.12" y="440.8851">Analytics Service</text></g><!--entity AI Assistant--><g class="entity" data-qualified-name="Backend Layer .FastAPI..Service Layer.AI Assistant" data-source-line="34" id="ent0025"><rect fill="#F1F1F1" height="36.2969" rx="2.5" ry="2.5" style="stroke:#181818;stroke-width:0.5;" width="101.9355" x="1392.03" y="417.89"/><text fill="#000000" font-family="sans-serif" font-size="14" lengthAdjust="spacing" textLength="81.9355" x="1402.03" y="440.8851">AI Assistant</text></g><!--entity File Upload--><g class="entity" data-qualified-name="Backend Layer .FastAPI..Service Layer.File Upload" data-source-line="35" id="ent0026"><rect fill="#F1F1F1" height="36.2969" rx="2.5" ry="2.5" style="stroke:#181818;stroke-width:0.5;" width="97.9502" x="281.02" y="417.89"/><text fill="#000000" font-family="sans-serif" font-size="14" lengthAdjust="spacing" textLength="77.9502" x="291.02" y="440.8851">File Upload</text></g><!--entity Gemini API--><g class="entity" data-qualified-name="External Services.Gemini API" data-source-line="44" id="ent0031"><rect fill="#F1F1F1" height="36.2969" rx="2.5" ry="2.5" style="stroke:#181818;stroke-width:0.5;" width="96.3506" x="1198.82" y="553.19"/><text fill="#000000" font-family="sans-serif" font-size="14" lengthAdjust="spacing" textLength="76.3506" x="1208.82" y="576.1851">Gemini API</text></g><!--entity Whisper API--><g class="entity" data-qualified-name="External Services.Whisper API" data-source-line="45" id="ent0032"><rect fill="#F1F1F1" height="36.2969" rx="2.5" ry="2.5" style="stroke:#181818;stroke-width:0.5;" width="103.7539" x="705.12" y="553.19"/><text fill="#000000" font-family="sans-serif" font-size="14" lengthAdjust="spacing" textLength="83.7539" x="715.12" y="576.1851">Whisper API</text></g><!--entity FCM--><g class="entity" data-qualified-name="External Services.FCM" data-source-line="46" id="ent0033"><rect fill="#F1F1F1" height="36.2969" rx="2.5" ry="2.5" style="stroke:#181818;stroke-width:0.5;" width="49.9072" x="1114.05" y="553.19"/><text fill="#000000" font-family="sans-serif" font-size="14" lengthAdjust="spacing" textLength="29.9072" x="1124.05" y="576.1851">FCM</text></g><!--entity SMS Gateway--><g class="entity" data-qualified-name="External Services.SMS Gateway" data-source-line="47" id="ent0034"><rect fill="#F1F1F1" height="36.2969" rx="2.5" ry="2.5" style="stroke:#181818;stroke-width:0.5;" width="116.1475" x="962.93" y="553.19"/><text fill="#000000" font-family="sans-serif" font-size="14" lengthAdjust="spacing" textLength="96.1475" x="972.93" y="576.1851">SMS Gateway</text></g><!--entity Maps API--><g class="entity" data-qualified-name="External Services.Maps API" data-source-line="48" id="ent0035"><rect fill="#F1F1F1" height="36.2969" rx="2.5" ry="2.5" style="stroke:#181818;stroke-width:0.5;" width="83.4375" x="844.28" y="553.19"/><text fill="#000000" font-family="sans-serif" font-size="14" lengthAdjust="spacing" textLength="63.4375" x="854.28" y="576.1851">Maps API</text></g><!--entity Scikit-learn Model--><g class="entity" data-qualified-name="ML . Data.Scikit-learn Model" data-source-line="52" id="ent0037"><rect fill="#F1F1F1" height="36.2969" rx="2.5" ry="2.5" style="stroke:#181818;stroke-width:0.5;" width="145.207" x="1423.4" y="553.19"/><text fill="#000000" font-family="sans-serif" font-size="14" lengthAdjust="spacing" textLength="125.207" x="1433.4" y="576.1851">Scikit-learn Model</text></g><!--entity Data--><g class="entity" data-qualified-name="ML . Data.Data" data-source-line="53" id="ent0038"><path d="M1438.41,656.49 L1438.41,704.0838 A2.5,2.5 0 0 0 1440.91,706.5838 L1551.0868,706.5838 A2.5,2.5 0 0 0 1553.5868,704.0838 L1553.5868,663.99 L1543.5868,653.99 L1440.91,653.99 A2.5,2.5 0 0 0 1438.41,656.49" fill="#F1F1F1" style="stroke:#181818;stroke-width:0.5;"/><path d="M1543.5868,653.99 L1543.5868,661.49 A2.5,2.5 0 0 0 1546.0868,663.99 L1553.5868,663.99" fill="#F1F1F1" style="stroke:#181818;stroke-width:0.5;"/><text fill="#000000" font-family="sans-serif" font-size="14" lengthAdjust="spacing" textLength="95.1768" x="1448.41" y="676.9851">Training Data</text><text fill="#000000" font-family="sans-serif" font-size="14" lengthAdjust="spacing" textLength="72.0371" x="1448.41" y="693.282">/crime.csv</text></g><!--entity Mongo--><g class="entity" data-qualified-name="Mongo" data-source-line="39" id="ent0027"><path d="M582.32,558.69 C582.32,548.69 625.9972,548.69 625.9972,548.69 C625.9972,548.69 669.6745,548.69 669.6745,558.69 L669.6745,583.9869 C669.6745,593.9869 625.9972,593.9869 625.9972,593.9869 C625.9972,593.9869 582.32,593.9869 582.32,583.9869 L582.32,558.69" fill="#F1F1F1" style="stroke:#181818;stroke-width:0.5;"/><path d="M582.32,558.69 C582.32,568.69 625.9972,568.69 625.9972,568.69 C625.9972,568.69 669.6745,568.69 669.6745,558.69" fill="none" style="stroke:#181818;stroke-width:0.5;"/><text fill="#000000" font-family="sans-serif" font-size="14" lengthAdjust="spacing" textLength="67.3545" x="592.32" y="585.6851">MongoDB</text></g><!--entity Redis--><g class="entity" data-qualified-name="Redis" data-source-line="40" id="ent0028"><path d="M1329.79,558.69 C1329.79,548.69 1358.9956,548.69 1358.9956,548.69 C1358.9956,548.69 1388.2011,548.69 1388.2011,558.69 L1388.2011,583.9869 C1388.2011,593.9869 1358.9956,593.9869 1358.9956,593.9869 C1358.9956,593.9869 1329.79,593.9869 1329.79,583.9869 L1329.79,558.69" fill="#F1F1F1" style="stroke:#181818;stroke-width:0.5;"/><path d="M1329.79,558.69 C1329.79,568.69 1358.9956,568.69 1358.9956,568.69 C1358.9956,568.69 1388.2011,568.69 1388.2011,558.69" fill="none" style="stroke:#181818;stroke-width:0.5;"/><text fill="#000000" font-family="sans-serif" font-size="14" lengthAdjust="spacing" textLength="38.4111" x="1339.79" y="585.6851">Redis</text></g><!--entity FileStorage--><g class="entity" data-qualified-name="FileStorage" data-source-line="41" id="ent0029"><path d="M432.45,558.69 C432.45,548.69 483.0008,548.69 483.0008,548.69 C483.0008,548.69 533.5516,548.69 533.5516,558.69 L533.5516,583.9869 C533.5516,593.9869 483.0008,593.9869 483.0008,593.9869 C483.0008,593.9869 432.45,593.9869 432.45,583.9869 L432.45,558.69" fill="#F1F1F1" style="stroke:#181818;stroke-width:0.5;"/><path d="M432.45,558.69 C432.45,568.69 483.0008,568.69 483.0008,568.69 C483.0008,568.69 533.5516,568.69 533.5516,558.69" fill="none" style="stroke:#181818;stroke-width:0.5;"/><text fill="#000000" font-family="sans-serif" font-size="14" lengthAdjust="spacing" textLength="81.1016" x="442.45" y="585.6851">File System</text></g><!--link Mobile to Gateway--><g class="link" data-entity-1="ent0003" data-entity-2="ent0005" data-link-type="dependency" data-source-line="57" id="lnk39"><path d="M856,77.71 C856,98.11 856,125.55 856,145.93" fill="none" id="Mobile-to-Gateway" style="stroke:#181818;stroke-width:1;"/><polygon fill="#181818" points="856,151.93,860,142.93,856,146.93,852,142.93,856,151.93" style="stroke:#181818;stroke-width:1;"/></g><!--link Gateway to Auth Routes--><g class="link" data-entity-1="ent0005" data-entity-2="ent0012" data-link-type="dependency" data-source-line="58" id="lnk40"><path d="M847.63,188.92 C833.54,218.3 807.8826,271.829 793.8726,301.069" fill="none" id="Gateway-to-Auth Routes" style="stroke:#181818;stroke-width:1;"/><polygon fill="#181818" points="791.28,306.48,798.7762,300.092,793.4405,301.9709,791.5616,296.6352,791.28,306.48" style="stroke:#181818;stroke-width:1;"/></g><!--link Gateway to SOS Routes--><g class="link" data-entity-1="ent0005" data-entity-2="ent0013" data-link-type="dependency" data-source-line="59" id="lnk41"><path d="M801.03,181.51 C772.6,188.78 738.58,200.9 713,220.6 C683.13,243.6 664.3484,277.8949 653.8784,300.7549" fill="none" id="Gateway-to-SOS Routes" style="stroke:#181818;stroke-width:1;"/><polygon fill="#181818" points="651.38,306.21,658.7644,299.693,653.462,301.6641,651.491,296.3618,651.38,306.21" style="stroke:#181818;stroke-width:1;"/></g><!--link Gateway to Group Routes--><g class="link" data-entity-1="ent0005" data-entity-2="ent0014" data-link-type="dependency" data-source-line="60" id="lnk42"><path d="M864.37,188.92 C878.46,218.3 904.1174,271.829 918.1274,301.069" fill="none" id="Gateway-to-Group Routes" style="stroke:#181818;stroke-width:1;"/><polygon fill="#181818" points="920.72,306.48,920.4384,296.6352,918.5595,301.9709,913.2238,300.092,920.72,306.48" style="stroke:#181818;stroke-width:1;"/></g><!--link Gateway to Threat Routes--><g class="link" data-entity-1="ent0005" data-entity-2="ent0015" data-link-type="dependency" data-source-line="61" id="lnk43"><path d="M800.99,176.27 C730.45,183.26 612.83,197.93 576,220.6 C542.31,241.33 521.0411,277.3126 509.4911,300.8726" fill="none" id="Gateway-to-Threat Routes" style="stroke:#181818;stroke-width:1;"/><polygon fill="#181818" points="506.85,306.26,514.4033,299.9396,509.0509,301.7705,507.2201,296.4181,506.85,306.26" style="stroke:#181818;stroke-width:1;"/></g><!--link Gateway to AI Routes--><g class="link" data-entity-1="ent0005" data-entity-2="ent0016" data-link-type="dependency" data-source-line="62" id="lnk44"><path d="M911.12,174.27 C990.95,179.3 1133.8,192.06 1176,220.6 C1206.51,241.22 1222.089,276.9491 1229.969,300.5391" fill="none" id="Gateway-to-AI Routes" style="stroke:#181818;stroke-width:1;"/><polygon fill="#181818" points="1231.87,306.23,1232.8125,296.4263,1230.2858,301.4876,1225.2246,298.961,1231.87,306.23" style="stroke:#181818;stroke-width:1;"/></g><!--link Gateway to Analytics Routes--><g class="link" data-entity-1="ent0005" data-entity-2="ent0017" data-link-type="dependency" data-source-line="63" id="lnk45"><path d="M910.99,182 C940.38,189.47 976.15,201.61 1004,220.6 C1037.72,243.57 1062.3492,278.2463 1076.5792,301.1063" fill="none" id="Gateway-to-Analytics Routes" style="stroke:#181818;stroke-width:1;"/><polygon fill="#181818" points="1079.75,306.2,1078.3897,296.4455,1077.1077,301.9552,1071.598,300.6732,1079.75,306.2" style="stroke:#181818;stroke-width:1;"/></g><!--link Auth Routes to User Service--><g class="link" data-entity-1="ent0012" data-entity-2="ent0019" data-link-type="dependency" data-source-line="65" id="lnk46"><path d="M782.84,343.3 C782.65,363.7 782.406,391.1503 782.216,411.5203" fill="none" id="Auth Routes-to-User Service" style="stroke:#181818;stroke-width:1;"/><polygon fill="#181818" points="782.16,417.52,786.2438,408.5577,782.2066,412.5202,778.2441,408.4831,782.16,417.52" style="stroke:#181818;stroke-width:1;"/></g><!--link SOS Routes to SOS Service--><g class="link" data-entity-1="ent0013" data-entity-2="ent0020" data-link-type="dependency" data-source-line="66" id="lnk47"><path d="M643.36,343.3 C642.61,363.7 641.6108,391.1541 640.8608,411.5241" fill="none" id="SOS Routes-to-SOS Service" style="stroke:#181818;stroke-width:1;"/><polygon fill="#181818" points="640.64,417.52,644.9684,408.6733,640.824,412.5234,636.9739,408.3789,640.64,417.52" style="stroke:#181818;stroke-width:1;"/></g><!--link Group Routes to Group Service--><g class="link" data-entity-1="ent0014" data-entity-2="ent0021" data-link-type="dependency" data-source-line="67" id="lnk48"><path d="M929.32,343.3 C929.69,363.7 930.201,391.151 930.571,411.521" fill="none" id="Group Routes-to-Group Service" style="stroke:#181818;stroke-width:1;"/><polygon fill="#181818" points="930.68,417.52,934.5159,408.4488,930.5892,412.5208,926.5172,408.5941,930.68,417.52" style="stroke:#181818;stroke-width:1;"/></g><!--link Threat Routes to Threat Detection--><g class="link" data-entity-1="ent0015" data-entity-2="ent0022" data-link-type="dependency" data-source-line="68" id="lnk49"><path d="M496.43,343.3 C493.44,363.7 489.4214,391.2136 486.4314,411.5836" fill="none" id="Threat Routes-to-Threat Detection" style="stroke:#181818;stroke-width:1;"/><polygon fill="#181818" points="485.56,417.52,490.8246,409.1963,486.2861,412.573,482.9095,408.0345,485.56,417.52" style="stroke:#181818;stroke-width:1;"/></g><!--link AI Routes to AI Assistant--><g class="link" data-entity-1="ent0016" data-entity-2="ent0025" data-link-type="dependency" data-source-line="69" id="lnk50"><path d="M1280.79,336.91 C1308.63,345.09 1344.8,357.75 1374,374.89 C1393.87,386.56 1409.1322,400.0525 1422.3022,413.2525" fill="none" id="AI Routes-to-AI Assistant" style="stroke:#181818;stroke-width:1;"/><polygon fill="#181818" points="1426.54,417.5,1423.0149,408.3036,1423.0085,413.9604,1417.3516,413.954,1426.54,417.5" style="stroke:#181818;stroke-width:1;"/></g><!--link Analytics Routes to Analytics Service--><g class="link" data-entity-1="ent0017" data-entity-2="ent0024" data-link-type="dependency" data-source-line="70" id="lnk51"><path d="M1124.29,343.36 C1139.87,351.05 1158.66,359.89 1176,366.89 C1186.42,371.1 1189.94,369.87 1200,374.89 C1223.82,386.79 1243.8222,400.8415 1260.8022,413.9615" fill="none" id="Analytics Routes-to-Analytics Service" style="stroke:#181818;stroke-width:1;"/><polygon fill="#181818" points="1265.55,417.63,1260.8739,408.962,1261.5935,414.5729,1255.9826,415.2924,1265.55,417.63" style="stroke:#181818;stroke-width:1;"/></g><!--link User Service to Mongo--><g class="link" data-entity-1="ent0019" data-entity-2="ent0027" data-link-type="dependency" data-source-line="72" id="lnk52"><path d="M766.28,454.5 C752.57,468.88 731.56,488.98 710,502.19 C701.48,507.41 697.45,504.86 689,510.19 C672.5,520.6 660.7365,531.4061 649.0465,543.9161" fill="none" id="User Service-to-Mongo" style="stroke:#181818;stroke-width:1;"/><polygon fill="#181818" points="644.95,548.3,654.0174,544.4552,648.3638,544.6468,648.1722,538.9932,644.95,548.3" style="stroke:#181818;stroke-width:1;"/></g><!--link SOS Service to Mongo--><g class="link" data-entity-1="ent0020" data-entity-2="ent0027" data-link-type="dependency" data-source-line="73" id="lnk53"><path d="M638.17,454.47 C635.63,478.6 631.6865,516.2228 628.9265,542.5128" fill="none" id="SOS Service-to-Mongo" style="stroke:#181818;stroke-width:1;"/><polygon fill="#181818" points="628.3,548.48,633.2178,539.9468,628.822,543.5073,625.2615,539.1116,628.3,548.48" style="stroke:#181818;stroke-width:1;"/></g><!--link Group Service to Mongo--><g class="link" data-entity-1="ent0021" data-entity-2="ent0027" data-link-type="dependency" data-source-line="74" id="lnk54"><path d="M916.57,454.51 C902.45,470.17 879.42,492.18 854,502.19 C819.85,515.65 722.73,495.71 689,510.19 C670.1,518.3 657.3464,530.1651 645.9364,543.8251" fill="none" id="Group Service-to-Mongo" style="stroke:#181818;stroke-width:1;"/><polygon fill="#181818" points="642.09,548.43,650.9295,544.0869,645.2953,544.5926,644.7897,538.9584,642.09,548.43" style="stroke:#181818;stroke-width:1;"/></g><!--link Threat Detection to Mongo--><g class="link" data-entity-1="ent0022" data-entity-2="ent0027" data-link-type="dependency" data-source-line="75" id="lnk55"><path d="M501.69,454.47 C527.59,478.6 569.9613,518.0986 598.1613,544.3886" fill="none" id="Threat Detection-to-Mongo" style="stroke:#181818;stroke-width:1;"/><polygon fill="#181818" points="602.55,548.48,598.6946,539.4171,598.8928,545.0705,593.2394,545.2687,602.55,548.48" style="stroke:#181818;stroke-width:1;"/></g><!--link Notification Service to Mongo--><g class="link" data-entity-1="ent0023" data-entity-2="ent0027" data-link-type="dependency" data-source-line="76" id="lnk56"><path d="M1085.54,454.4 C1067.39,470.21 1038.11,492.52 1008,502.19 C974.24,513.03 721.74,496.59 689,510.19 C670.01,518.08 657.2405,529.9419 645.8605,543.6619" fill="none" id="Notification Service-to-Mongo" style="stroke:#181818;stroke-width:1;"/><polygon fill="#181818" points="642.03,548.28,650.8545,543.9065,645.2221,544.4315,644.697,538.7991,642.03,548.28" style="stroke:#181818;stroke-width:1;"/></g><!--link Analytics Service to Mongo--><g class="link" data-entity-1="ent0024" data-entity-2="ent0027" data-link-type="dependency" data-source-line="77" id="lnk57"><path d="M1270.61,454.44 C1254.4,470.28 1228.03,492.61 1200,502.19 C1146.26,520.55 741.54,488.66 689,510.19 C669.97,517.99 657.2052,529.8575 645.8352,543.5975" fill="none" id="Analytics Service-to-Mongo" style="stroke:#181818;stroke-width:1;"/><polygon fill="#181818" points="642.01,548.22,650.8295,543.8363,645.1977,544.3679,644.6661,538.7361,642.01,548.22" style="stroke:#181818;stroke-width:1;"/></g><!--link Group Service to Redis--><g class="link" data-entity-1="ent0021" data-entity-2="ent0028" data-link-type="dependency" data-source-line="79" id="lnk58"><path d="M945.38,454.64 C959.47,470.39 982.48,492.46 1008,502.19 C1039.47,514.19 1280.85,495.18 1311,510.19 C1327.27,518.29 1336.7219,529.5997 1344.8919,543.2697" fill="none" id="Group Service-to-Redis" style="stroke:#181818;stroke-width:1;"/><polygon fill="#181818" points="1347.97,548.42,1346.7864,538.6425,1345.4049,544.1281,1339.9193,542.7467,1347.97,548.42" style="stroke:#181818;stroke-width:1;"/></g><!--link Notification Service to Redis--><g class="link" data-entity-1="ent0023" data-entity-2="ent0028" data-link-type="dependency" data-source-line="80" id="lnk59"><path d="M1123.27,454.68 C1141.53,470.23 1170.51,491.95 1200,502.19 C1223.36,510.3 1289.12,498.67 1311,510.19 C1326.96,518.59 1336.3068,529.7369 1344.5368,543.2369" fill="none" id="Notification Service-to-Redis" style="stroke:#181818;stroke-width:1;"/><polygon fill="#181818" points="1347.66,548.36,1346.3906,538.5933,1345.0574,544.0908,1339.5599,542.7575,1347.66,548.36" style="stroke:#181818;stroke-width:1;"/></g><!--link SOS Service to FileStorage--><g class="link" data-entity-1="ent0020" data-entity-2="ent0029" data-link-type="dependency" data-source-line="82" id="lnk60"><path d="M621.97,454.62 C608.05,467.99 588.18,486.66 570,502.19 C551.33,518.14 534.3477,531.5373 517.2677,544.5873" fill="none" id="SOS Service-to-FileStorage" style="stroke:#181818;stroke-width:1;"/><polygon fill="#181818" points="512.5,548.23,522.08,545.9443,516.473,545.1944,517.223,539.5875,512.5,548.23" style="stroke:#181818;stroke-width:1;"/></g><!--link Threat Detection to FileStorage--><g class="link" data-entity-1="ent0022" data-entity-2="ent0029" data-link-type="dependency" data-source-line="83" id="lnk61"><path d="M483,454.47 C483,478.6 483,516.19 483,542.48" fill="none" id="Threat Detection-to-FileStorage" style="stroke:#181818;stroke-width:1;"/><polygon fill="#181818" points="483,548.48,487,539.48,483,543.48,479,539.48,483,548.48" style="stroke:#181818;stroke-width:1;"/></g><!--link File Upload to FileStorage--><g class="link" data-entity-1="ent0026" data-entity-2="ent0029" data-link-type="dependency" data-source-line="84" id="lnk62"><path d="M346.58,454.46 C359.63,467.91 378.47,486.77 396,502.19 C414.44,518.41 431.4068,531.8277 448.5468,544.8077" fill="none" id="File Upload-to-FileStorage" style="stroke:#181818;stroke-width:1;"/><polygon fill="#181818" points="453.33,548.43,448.5701,539.8078,449.344,545.4114,443.7403,546.1854,453.33,548.43" style="stroke:#181818;stroke-width:1;"/></g><!--link Threat Detection to Whisper API--><g class="link" data-entity-1="ent0022" data-entity-2="ent0032" data-link-type="dependency" data-source-line="86" id="lnk63"><path d="M499.82,454.41 C516.13,469.99 542.4,491.94 570,502.19 C618.86,520.33 638.77,490.42 687,510.19 C709.39,519.37 725.6947,534.1906 738.6047,548.4606" fill="none" id="Threat Detection-to-Whisper API" style="stroke:#181818;stroke-width:1;"/><polygon fill="#181818" points="742.63,552.91,739.5583,543.5524,739.2756,549.2022,733.6258,548.9195,742.63,552.91" style="stroke:#181818;stroke-width:1;"/></g><!--link AI Assistant to Gemini API--><g class="link" data-entity-1="ent0025" data-entity-2="ent0031" data-link-type="dependency" data-source-line="87" id="lnk64"><path d="M1429.79,454.65 C1417.24,469.96 1396.93,491.33 1374,502.19 C1348.89,514.09 1337.17,498.42 1312,510.19 C1291.11,519.96 1276.2632,534.3561 1264.3432,548.3961" fill="none" id="AI Assistant-to-Gemini API" style="stroke:#181818;stroke-width:1;"/><polygon fill="#181818" points="1260.46,552.97,1269.3341,548.698,1263.696,549.1584,1263.2356,543.5203,1260.46,552.97" style="stroke:#181818;stroke-width:1;"/></g><!--link Notification Service to FCM--><g class="link" data-entity-1="ent0023" data-entity-2="ent0033" data-link-type="dependency" data-source-line="88" id="lnk65"><path d="M1108.58,454.47 C1115.28,480.01 1126.1859,521.5568 1132.8959,547.1068" fill="none" id="Notification Service-to-FCM" style="stroke:#181818;stroke-width:1;"/><polygon fill="#181818" points="1134.42,552.91,1136.0027,543.1891,1133.15,548.074,1128.2651,545.2212,1134.42,552.91" style="stroke:#181818;stroke-width:1;"/></g><!--link Notification Service to SMS Gateway--><g class="link" data-entity-1="ent0023" data-entity-2="ent0034" data-link-type="dependency" data-source-line="89" id="lnk66"><path d="M1093.15,454.47 C1077.24,480.01 1050.9316,522.2668 1035.0216,547.8168" fill="none" id="Notification Service-to-SMS Gateway" style="stroke:#181818;stroke-width:1;"/><polygon fill="#181818" points="1031.85,552.91,1040.0028,547.3845,1034.493,548.6656,1033.2119,543.1558,1031.85,552.91" style="stroke:#181818;stroke-width:1;"/></g><!--link SOS Service to Maps API--><g class="link" data-entity-1="ent0020" data-entity-2="ent0035" data-link-type="dependency" data-source-line="90" id="lnk67"><path d="M653.07,454.68 C665.71,470.23 686.39,491.95 710,502.19 C757.41,522.75 778.98,488.75 826,510.19 C846.27,519.43 859.8909,533.8969 870.6209,548.1469" fill="none" id="SOS Service-to-Maps API" style="stroke:#181818;stroke-width:1;"/><polygon fill="#181818" points="874.23,552.94,872.0117,543.3442,871.2224,548.9457,865.6209,548.1564,874.23,552.94" style="stroke:#181818;stroke-width:1;"/></g><!--link Analytics Service to Scikit-learn Model--><g class="link" data-entity-1="ent0024" data-entity-2="ent0037" data-link-type="dependency" data-source-line="92" id="lnk68"><path d="M1305.86,454.4 C1322.79,469.12 1348.92,489.75 1375,502.19 C1387.84,508.31 1393.01,504.38 1406,510.19 C1431.04,521.4 1452.0335,535.7457 1469.5335,549.1257" fill="none" id="Analytics Service-to-Scikit-learn Model" style="stroke:#181818;stroke-width:1;"/><polygon fill="#181818" points="1474.3,552.77,1469.5798,544.1259,1470.328,549.7331,1464.7208,550.4812,1474.3,552.77" style="stroke:#181818;stroke-width:1;"/></g><!--link Scikit-learn Model to Data--><g class="link" data-entity-1="ent0037" data-entity-2="ent0038" data-link-type="dependency" data-source-line="93" id="lnk69"><path d="M1496,589.52 C1496,606.88 1496,627.9 1496,647.76" fill="none" id="Scikit-learn Model-to-Data" style="stroke:#181818;stroke-width:1;"/><polygon fill="#181818" points="1496,653.76,1500,644.76,1496,648.76,1492,644.76,1496,653.76" style="stroke:#181818;stroke-width:1;"/></g><?plantuml-src VLFBRjim4BphArWV-ZYu-OC2Zloe2yifB0Svk3am4cqJbaY1fDC8HVwzAvAnT_qwYPhPNSvoPp-LOYsLO8jHkXpC9xCHAtJTQ2MKInAxawhXXjT7C7Tj9PWHXUDgKuaaQNYnunl1UcabWMSptWhJO_yInbRZQk-SC2pJBx8IpupRU4pUKUBWzvHDk1D_UHlpvXkftkvINfQjJueioRg7Wr1bk8zz7NFheD2tKE4GbScoh23NY410yVHXaJ-7us3ljkpNqpB-Bk0QDfEr1CqTz8uhBVGUs9zSGJrZ3zLy2S_PM2L_o2amCNhVK6YvDO8xYWsc9_-ALwsJXKKmKPGByoeBWLySqXujF4Uaa2AA14aKYvg6mi5mfLOHdcidrxBW7NIISLHuWa_Pm5ffmI8kGcCOEdjiAitBq0UCikIElt3RJKchZHxUzu91u8ouXIYbzOm_8SRNp5lhHEtvxZztsi3Z89-Ctc2Q8FH3OnpTQY9ggIG3ptI2LazRQHjukO__SPhvRvxb7_Rp_nblR0Z2Pincx3CRWh9OF2_aJhf-9RXHq54fgYvvtGdkBGs7YzN6n_zHTuMHjVXUs5VVH0TsfR-mL2iL9c6Ji3Mit_zns8NuzHXr8M6m6mb1NKce4tVIcwPNy3Et9aHLYABcnEAEQeyqaOXL7qEeL28V6HcfFdI177ek_hIdmuK9RS771SSIxHYdaZ5p9XIJ5_SE1vohG-p5QyC2tQWS0YwqWbVhYcmIWjVzZBrMWUuWdL6SFjhP6ss4vRqLGBRwl5sqvLVV-UAENm9zTBVM_m40?></g></svg>