<svg xmlns="http://www.w3.org/2000/svg" xmlns:xlink="http://www.w3.org/1999/xlink" contentStyleType="text/css" data-diagram-type="DESCRIPTION" height="737px" preserveAspectRatio="none" style="width:1548px;height:737px;background:#FFFFFF;" version="1.1" viewBox="0 0 1548 737" width="1548px" zoomAndPan="magnify"><?plantuml 1.2026.3beta6?><defs/><g><!--cluster Client Layer--><g class="cluster" data-qualified-name="Client Layer" data-source-line="5" id="ent0002"><path d="M784.5,6 L880.2939,6 A3.75,3.75 0 0 1 882.7939,8.5 L889.7939,28.2969 L927.5,28.2969 A2.5,2.5 0 0 1 930,30.7969 L930,90.8 A2.5,2.5 0 0 1 927.5,93.3 L784.5,93.3 A2.5,2.5 0 0 1 782,90.8 L782,8.5 A2.5,2.5 0 0 1 784.5,6" fill="none" style="stroke:#000000;stroke-width:1.5;"/><line style="stroke:#000000;stroke-width:1.5;" x1="782" x2="889.7939" y1="28.2969" y2="28.2969"/><text fill="#000000" font-family="sans-serif" font-size="14" font-weight="700" lengthAdjust="spacing" textLength="94.7939" x="786" y="20.9951">Client Layer</text></g><!--cluster API Gateway--><g class="cluster" data-qualified-name="API Gateway" data-source-line="9" id="ent0004"><path d="M787.5,117.3 L888.3115,117.3 A3.75,3.75 0 0 1 890.8115,119.8 L897.8115,139.5969 L924.5,139.5969 A2.5,2.5 0 0 1 927,142.0969 L927,202.1 A2.5,2.5 0 0 1 924.5,204.6 L787.5,204.6 A2.5,2.5 0 0 1 785,202.1 L785,119.8 A2.5,2.5 0 0 1 787.5,117.3" fill="none" style="stroke:#000000;stroke-width:1.5;"/><line style="stroke:#000000;stroke-width:1.5;" x1="785" x2="897.8115" y1="139.5969" y2="139.5969"/><text fill="#000000" font-family="sans-serif" font-size="14" font-weight="700" lengthAdjust="spacing" textLength="99.8115" x="789" y="132.2951">API Gateway</text></g><!--cluster Backend Layer (FastAPI)--><g class="cluster" data-qualified-name="Backend Layer .FastAPI." data-source-line="13" id="ent0006"><path d="M8.5,228.6 L203.4902,228.6 A3.75,3.75 0 0 1 205.9902,231.1 L212.9902,250.8969 L1530.5,250.8969 A2.5,2.5 0 0 1 1533,253.3969 L1533,491.69 A2.5,2.5 0 0 1 1530.5,494.19 L8.5,494.19 A2.5,2.5 0 0 1 6,491.69 L6,231.1 A2.5,2.5 0 0 1 8.5,228.6" fill="none" style="stroke:#000000;stroke-width:1.5;"/><line style="stroke:#000000;stroke-width:1.5;" x1="6" x2="212.9902" y1="250.8969" y2="250.8969"/><text fill="#000000" font-family="sans-serif" font-size="14" font-weight="700" lengthAdjust="spacing" textLength="193.9902" x="10" y="243.5951">Backend Layer (FastAPI)</text></g><!--cluster Middleware--><g class="cluster" data-qualified-name="Backend Layer .FastAPI..Middleware" data-source-line="14" id="ent0007"><path d="M32.5,271.6 L125.3477,271.6 A3.75,3.75 0 0 1 127.8477,274.1 L134.8477,293.8969 L238.5,293.8969 A2.5,2.5 0 0 1 241,296.3969 L241,467.69 A2.5,2.5 0 0 1 238.5,470.19 L32.5,470.19 A2.5,2.5 0 0 1 30,467.69 L30,274.1 A2.5,2.5 0 0 1 32.5,271.6" fill="none" style="stroke:#000000;stroke-width:1.5;"/><line style="stroke:#000000;stroke-width:1.5;" x1="30" x2="134.8477" y1="293.8969" y2="293.8969"/><text fill="#000000" font-family="sans-serif" font-size="14" font-weight="700" lengthAdjust="spacing" textLength="91.8477" x="34" y="286.5951">Middleware</text></g><!--cluster Route Handlers--><g class="cluster" data-qualified-name="Backend Layer .FastAPI..Route Handlers" data-source-line="19" id="ent0011"><path d="M425.5,271.6 L548.6104,271.6 A3.75,3.75 0 0 1 551.1104,274.1 L558.1104,293.8969 L1292.5,293.8969 A2.5,2.5 0 0 1 1295,296.3969 L1295,356.39 A2.5,2.5 0 0 1 1292.5,358.89 L425.5,358.89 A2.5,2.5 0 0 1 423,356.39 L423,274.1 A2.5,2.5 0 0 1 425.5,271.6" fill="none" style="stroke:#000000;stroke-width:1.5;"/><line style="stroke:#000000;stroke-width:1.5;" x1="423" x2="558.1104" y1="293.8969" y2="293.8969"/><text fill="#000000" font-family="sans-serif" font-size="14" font-weight="700" lengthAdjust="spacing" textLength="122.1104" x="427" y="286.5951">Route Handlers</text></g><!--cluster Service Layer--><g class="cluster" data-qualified-name="Backend Layer .FastAPI..Service Layer" data-source-line="27" id="ent0018"><path d="M267.5,382.89 L375.4688,382.89 A3.75,3.75 0 0 1 377.9688,385.39 L384.9688,405.1869 L1506.5,405.1869 A2.5,2.5 0 0 1 1509,407.6869 L1509,467.69 A2.5,2.5 0 0 1 1506.5,470.19 L267.5,470.19 A2.5,2.5 0 0 1 265,467.69 L265,385.39 A2.5,2.5 0 0 1 267.5,382.89" fill="none" style="stroke:#000000;stroke-width:1.5;"/><line style="stroke:#000000;stroke-width:1.5;" x1="265" x2="384.9688" y1="405.1869" y2="405.1869"/><text fill="#000000" font-family="sans-serif" font-size="14" font-weight="700" lengthAdjust="spacing" textLength="106.9688" x="269" y="397.8851">Service Layer</text></g><!--cluster External Services--><g class="cluster" data-qualified-name="External Services" data-source-line="42" id="ent0029"><path d="M689.5,518.19 L827.8066,518.19 A3.75,3.75 0 0 1 830.3066,520.69 L837.3066,540.4869 L1306.5,540.4869 A2.5,2.5 0 0 1 1309,542.9869 L1309,602.99 A2.5,2.5 0 0 1 1306.5,605.49 L689.5,605.49 A2.5,2.5 0 0 1 687,602.99 L687,520.69 A2.5,2.5 0 0 1 689.5,518.19" fill="none" style="stroke:#000000;stroke-width:1.5;"/><line style="stroke:#000000;stroke-width:1.5;" x1="687" x2="837.3066" y1="540.4869" y2="540.4869"/><text fill="#000000" font-family="sans-serif" font-size="14" font-weight="700" lengthAdjust="spacing" textLength="137.3066" x="691" y="533.1851">External Services</text></g><!--cluster ML & Data--><g class="cluster" data-qualified-name="ML . Data" data-source-line="50" id="ent0035"><path d="M1336.5,518.19 L1419.5176,518.19 A3.75,3.75 0 0 1 1422.0176,520.69 L1429.0176,540.4869 L1509.5,540.4869 A2.5,2.5 0 0 1 1512,542.9869 L1512,720.08 A2.5,2.5 0 0 1 1509.5,722.58 L1336.5,722.58 A2.5,2.5 0 0 1 1334,720.08 L1334,520.69 A2.5,2.5 0 0 1 1336.5,518.19" fill="none" style="stroke:#000000;stroke-width:1.5;"/><line style="stroke:#000000;stroke-width:1.5;" x1="1334" x2="1429.0176" y1="540.4869" y2="540.4869"/><text fill="#000000" font-family="sans-serif" font-size="14" font-weight="700" lengthAdjust="spacing" textLength="82.0176" x="1338" y="533.1851">ML &amp; Data</text></g><!--entity Mobile--><g class="entity" data-qualified-name="Client Layer.Mobile" data-source-line="6" id="ent0003"><rect fill="#F1F1F1" height="36.2969" rx="2.5" ry="2.5" style="stroke:#181818;stroke-width:0.5;" width="116.5371" x="797.73" y="41"/><text fill="#000000" font-family="sans-serif" font-size="14" lengthAdjust="spacing" textLength="96.5371" x="807.73" y="63.9951">Flutter Mobile</text></g><!--entity Gateway--><g class="entity" data-qualified-name="API Gateway.Gateway" data-source-line="10" id="ent0005"><rect fill="#F1F1F1" height="36.2969" rx="2.5" ry="2.5" style="stroke:#181818;stroke-width:0.5;" width="109.5371" x="801.23" y="152.3"/><text fill="#000000" font-family="sans-serif" font-size="14" lengthAdjust="spacing" textLength="89.5371" x="811.23" y="175.2951">Nginx/Caddy</text></g><!--entity CORS--><g class="entity" data-qualified-name="Backend Layer .FastAPI..Middleware.CORS" data-source-line="15" id="ent0008"><rect fill="#F1F1F1" height="36.2969" rx="2.5" ry="2.5" style="stroke:#181818;stroke-width:0.5;" width="59.4092" x="46.3" y="306.6"/><text fill="#000000" font-family="sans-serif" font-size="14" lengthAdjust="spacing" textLength="39.4092" x="56.3" y="329.5951">CORS</text></g><!--entity Auth JWT--><g class="entity" data-qualified-name="Backend Layer .FastAPI..Middleware.Auth JWT" data-source-line="16" id="ent0009"><rect fill="#F1F1F1" height="36.2969" rx="2.5" ry="2.5" style="stroke:#181818;stroke-width:0.5;" width="83.7861" x="141.11" y="306.6"/><text fill="#000000" font-family="sans-serif" font-size="14" lengthAdjust="spacing" textLength="63.7861" x="151.11" y="329.5951">Auth JWT</text></g><!--entity Rate Limiter--><g class="entity" data-qualified-name="Backend Layer .FastAPI..Middleware.Rate Limiter" data-source-line="17" id="ent0010"><rect fill="#F1F1F1" height="36.2969" rx="2.5" ry="2.5" style="stroke:#181818;stroke-width:0.5;" width="105.9346" x="46.03" y="417.89"/><text fill="#000000" font-family="sans-serif" font-size="14" lengthAdjust="spacing" textLength="85.9346" x="56.03" y="440.8851">Rate Limiter</text></g><!--entity Auth Routes--><g class="entity" data-qualified-name="Backend Layer .FastAPI..Route Handlers.Auth Routes" data-source-line="20" id="ent0012"><rect fill="#F1F1F1" height="36.2969" rx="2.5" ry="2.5" style="stroke:#181818;stroke-width:0.5;" width="105.8252" x="439.09" y="306.6"/><text fill="#000000" font-family="sans-serif" font-size="14" lengthAdjust="spacing" textLength="85.8252" x="449.09" y="329.5951">Auth Routes</text></g><!--entity SOS Routes--><g class="entity" data-qualified-name="Backend Layer .FastAPI..Route Handlers.SOS Routes" data-source-line="21" id="ent0013"><rect fill="#F1F1F1" height="36.2969" rx="2.5" ry="2.5" style="stroke:#181818;stroke-width:0.5;" width="101.8057" x="733.1" y="306.6"/><text fill="#000000" font-family="sans-serif" font-size="14" lengthAdjust="spacing" textLength="81.8057" x="743.1" y="329.5951">SOS Routes</text></g><!--entity Group Routes--><g class="entity" data-qualified-name="Backend Layer .FastAPI..Route Handlers.Group Routes" data-source-line="22" id="ent0014"><rect fill="#F1F1F1" height="36.2969" rx="2.5" ry="2.5" style="stroke:#181818;stroke-width:0.5;" width="115.9424" x="870.03" y="306.6"/><text fill="#000000" font-family="sans-serif" font-size="14" lengthAdjust="spacing" textLength="95.9424" x="880.03" y="329.5951">Group Routes</text></g><!--entity Threat Routes--><g class="entity" data-qualified-name="Backend Layer .FastAPI..Route Handlers.Threat Routes" data-source-line="23" id="ent0015"><rect fill="#F1F1F1" height="36.2969" rx="2.5" ry="2.5" style="stroke:#181818;stroke-width:0.5;" width="118.875" x="579.56" y="306.6"/><text fill="#000000" font-family="sans-serif" font-size="14" lengthAdjust="spacing" textLength="98.875" x="589.56" y="329.5951">Threat Routes</text></g><!--entity AI Routes--><g class="entity" data-qualified-name="Backend Layer .FastAPI..Route Handlers.AI Routes" data-source-line="24" id="ent0016"><rect fill="#F1F1F1" height="36.2969" rx="2.5" ry="2.5" style="stroke:#181818;stroke-width:0.5;" width="86.7188" x="1020.64" y="306.6"/><text fill="#000000" font-family="sans-serif" font-size="14" lengthAdjust="spacing" textLength="66.7188" x="1030.64" y="329.5951">AI Routes</text></g><!--entity Analytics Routes--><g class="entity" data-qualified-name="Backend Layer .FastAPI..Route Handlers.Analytics Routes" data-source-line="25" id="ent0017"><rect fill="#F1F1F1" height="36.2969" rx="2.5" ry="2.5" style="stroke:#181818;stroke-width:0.5;" width="136.5869" x="1142.71" y="306.6"/><text fill="#000000" font-family="sans-serif" font-size="14" lengthAdjust="spacing" textLength="116.5869" x="1152.71" y="329.5951">Analytics Routes</text></g><!--entity User Service--><g class="entity" data-qualified-name="Backend Layer .FastAPI..Service Layer.User Service" data-source-line="28" id="ent0019"><rect fill="#F1F1F1" height="36.2969" rx="2.5" ry="2.5" style="stroke:#181818;stroke-width:0.5;" width="108.1016" x="280.95" y="417.89"/><text fill="#000000" font-family="sans-serif" font-size="14" lengthAdjust="spacing" textLength="88.1016" x="290.95" y="440.8851">User Service</text></g><!--entity SOS Service--><g class="entity" data-qualified-name="Backend Layer .FastAPI..Service Layer.SOS Service" data-source-line="29" id="ent0020"><rect fill="#F1F1F1" height="36.2969" rx="2.5" ry="2.5" style="stroke:#181818;stroke-width:0.5;" width="104.9844" x="730.51" y="417.89"/><text fill="#000000" font-family="sans-serif" font-size="14" lengthAdjust="spacing" textLength="84.9844" x="740.51" y="440.8851">SOS Service</text></g><!--entity Group Service--><g class="entity" data-qualified-name="Backend Layer .FastAPI..Service Layer.Group Service" data-source-line="30" id="ent0021"><rect fill="#F1F1F1" height="36.2969" rx="2.5" ry="2.5" style="stroke:#181818;stroke-width:0.5;" width="119.1211" x="870.44" y="417.89"/><text fill="#000000" font-family="sans-serif" font-size="14" lengthAdjust="spacing" textLength="99.1211" x="880.44" y="440.8851">Group Service</text></g><!--entity Threat Detection--><g class="entity" data-qualified-name="Backend Layer .FastAPI..Service Layer.Threat Detection" data-source-line="31" id="ent0022"><rect fill="#F1F1F1" height="36.2969" rx="2.5" ry="2.5" style="stroke:#181818;stroke-width:0.5;" width="138.3232" x="556.84" y="417.89"/><text fill="#000000" font-family="sans-serif" font-size="14" lengthAdjust="spacing" textLength="118.3232" x="566.84" y="440.8851">Threat Detection</text></g><!--entity Notification Service--><g class="entity" data-qualified-name="Backend Layer .FastAPI..Service Layer.Notification Service" data-source-line="32" id="ent0023"><rect fill="#F1F1F1" height="36.2969" rx="2.5" ry="2.5" style="stroke:#181818;stroke-width:0.5;" width="156.5205" x="1024.74" y="417.89"/><text fill="#000000" font-family="sans-serif" font-size="14" lengthAdjust="spacing" textLength="136.5205" x="1034.74" y="440.8851">Notification Service</text></g><!--entity Analytics Service--><g class="entity" data-qualified-name="Backend Layer .FastAPI..Service Layer.Analytics Service" data-source-line="33" id="ent0024"><rect fill="#F1F1F1" height="36.2969" rx="2.5" ry="2.5" style="stroke:#181818;stroke-width:0.5;" width="139.7656" x="1353.12" y="417.89"/><text fill="#000000" font-family="sans-serif" font-size="14" lengthAdjust="spacing" textLength="119.7656" x="1363.12" y="440.8851">Analytics Service</text></g><!--entity AI Assistant--><g class="entity" data-qualified-name="Backend Layer .FastAPI..Service Layer.AI Assistant" data-source-line="34" id="ent0025"><rect fill="#F1F1F1" height="36.2969" rx="2.5" ry="2.5" style="stroke:#181818;stroke-width:0.5;" width="101.9355" x="1216.03" y="417.89"/><text fill="#000000" font-family="sans-serif" font-size="14" lengthAdjust="spacing" textLength="81.9355" x="1226.03" y="440.8851">AI Assistant</text></g><!--entity File Upload--><g class="entity" data-qualified-name="Backend Layer .FastAPI..Service Layer.File Upload" data-source-line="35" id="ent0026"><rect fill="#F1F1F1" height="36.2969" rx="2.5" ry="2.5" style="stroke:#181818;stroke-width:0.5;" width="97.9502" x="424.02" y="417.89"/><text fill="#000000" font-family="sans-serif" font-size="14" lengthAdjust="spacing" textLength="77.9502" x="434.02" y="440.8851">File Upload</text></g><!--entity Gemini API--><g class="entity" data-qualified-name="External Services.Gemini API" data-source-line="43" id="ent0030"><rect fill="#F1F1F1" height="36.2969" rx="2.5" ry="2.5" style="stroke:#181818;stroke-width:0.5;" width="96.3506" x="1196.82" y="553.19"/><text fill="#000000" font-family="sans-serif" font-size="14" lengthAdjust="spacing" textLength="76.3506" x="1206.82" y="576.1851">Gemini API</text></g><!--entity Whisper API--><g class="entity" data-qualified-name="External Services.Whisper API" data-source-line="44" id="ent0031"><rect fill="#F1F1F1" height="36.2969" rx="2.5" ry="2.5" style="stroke:#181818;stroke-width:0.5;" width="103.7539" x="703.12" y="553.19"/><text fill="#000000" font-family="sans-serif" font-size="14" lengthAdjust="spacing" textLength="83.7539" x="713.12" y="576.1851">Whisper API</text></g><!--entity FCM--><g class="entity" data-qualified-name="External Services.FCM" data-source-line="45" id="ent0032"><rect fill="#F1F1F1" height="36.2969" rx="2.5" ry="2.5" style="stroke:#181818;stroke-width:0.5;" width="49.9072" x="961.05" y="553.19"/><text fill="#000000" font-family="sans-serif" font-size="14" lengthAdjust="spacing" textLength="29.9072" x="971.05" y="576.1851">FCM</text></g><!--entity SMS Gateway--><g class="entity" data-qualified-name="External Services.SMS Gateway" data-source-line="46" id="ent0033"><rect fill="#F1F1F1" height="36.2969" rx="2.5" ry="2.5" style="stroke:#181818;stroke-width:0.5;" width="116.1475" x="1045.93" y="553.19"/><text fill="#000000" font-family="sans-serif" font-size="14" lengthAdjust="spacing" textLength="96.1475" x="1055.93" y="576.1851">SMS Gateway</text></g><!--entity Maps API--><g class="entity" data-qualified-name="External Services.Maps API" data-source-line="47" id="ent0034"><rect fill="#F1F1F1" height="36.2969" rx="2.5" ry="2.5" style="stroke:#181818;stroke-width:0.5;" width="83.4375" x="842.28" y="553.19"/><text fill="#000000" font-family="sans-serif" font-size="14" lengthAdjust="spacing" textLength="63.4375" x="852.28" y="576.1851">Maps API</text></g><!--entity Scikit-learn Model--><g class="entity" data-qualified-name="ML . Data.Scikit-learn Model" data-source-line="51" id="ent0036"><rect fill="#F1F1F1" height="36.2969" rx="2.5" ry="2.5" style="stroke:#181818;stroke-width:0.5;" width="145.207" x="1350.4" y="553.19"/><text fill="#000000" font-family="sans-serif" font-size="14" lengthAdjust="spacing" textLength="125.207" x="1360.4" y="576.1851">Scikit-learn Model</text></g><!--entity Data--><g class="entity" data-qualified-name="ML . Data.Data" data-source-line="52" id="ent0037"><path d="M1365.41,656.49 L1365.41,704.0838 A2.5,2.5 0 0 0 1367.91,706.5838 L1478.0868,706.5838 A2.5,2.5 0 0 0 1480.5868,704.0838 L1480.5868,663.99 L1470.5868,653.99 L1367.91,653.99 A2.5,2.5 0 0 0 1365.41,656.49" fill="#F1F1F1" style="stroke:#181818;stroke-width:0.5;"/><path d="M1470.5868,653.99 L1470.5868,661.49 A2.5,2.5 0 0 0 1473.0868,663.99 L1480.5868,663.99" fill="#F1F1F1" style="stroke:#181818;stroke-width:0.5;"/><text fill="#000000" font-family="sans-serif" font-size="14" lengthAdjust="spacing" textLength="95.1768" x="1375.41" y="676.9851">Training Data</text><text fill="#000000" font-family="sans-serif" font-size="14" lengthAdjust="spacing" textLength="72.0371" x="1375.41" y="693.282">/crime.csv</text></g><!--entity Mongo--><g class="entity" data-qualified-name="Mongo" data-source-line="39" id="ent0027"><path d="M367.32,558.69 C367.32,548.69 410.9972,548.69 410.9972,548.69 C410.9972,548.69 454.6745,548.69 454.6745,558.69 L454.6745,583.9869 C454.6745,593.9869 410.9972,593.9869 410.9972,593.9869 C410.9972,593.9869 367.32,593.9869 367.32,583.9869 L367.32,558.69" fill="#F1F1F1" style="stroke:#181818;stroke-width:0.5;"/><path d="M367.32,558.69 C367.32,568.69 410.9972,568.69 410.9972,568.69 C410.9972,568.69 454.6745,568.69 454.6745,558.69" fill="none" style="stroke:#181818;stroke-width:0.5;"/><text fill="#000000" font-family="sans-serif" font-size="14" lengthAdjust="spacing" textLength="67.3545" x="377.32" y="585.6851">MongoDB</text></g><!--entity FileStorage--><g class="entity" data-qualified-name="FileStorage" data-source-line="40" id="ent0028"><path d="M567.45,558.69 C567.45,548.69 618.0008,548.69 618.0008,548.69 C618.0008,548.69 668.5516,548.69 668.5516,558.69 L668.5516,583.9869 C668.5516,593.9869 618.0008,593.9869 618.0008,593.9869 C618.0008,593.9869 567.45,593.9869 567.45,583.9869 L567.45,558.69" fill="#F1F1F1" style="stroke:#181818;stroke-width:0.5;"/><path d="M567.45,558.69 C567.45,568.69 618.0008,568.69 618.0008,568.69 C618.0008,568.69 668.5516,568.69 668.5516,558.69" fill="none" style="stroke:#181818;stroke-width:0.5;"/><text fill="#000000" font-family="sans-serif" font-size="14" lengthAdjust="spacing" textLength="81.1016" x="577.45" y="585.6851">File System</text></g><!--link Mobile to Gateway--><g class="link" data-entity-1="ent0003" data-entity-2="ent0005" data-link-type="dependency" data-source-line="56" id="lnk38"><path d="M856,77.71 C856,98.11 856,125.55 856,145.93" fill="none" id="Mobile-to-Gateway" style="stroke:#181818;stroke-width:1;"/><polygon fill="#181818" points="856,151.93,860,142.93,856,146.93,852,142.93,856,151.93" style="stroke:#181818;stroke-width:1;"/></g><!--link Gateway to Auth Routes--><g class="link" data-entity-1="ent0005" data-entity-2="ent0012" data-link-type="dependency" data-source-line="57" id="lnk39"><path d="M800.93,175.48 C727.05,181.77 600.66,195.81 562,220.6 C529.75,241.27 510.9655,277.1432 501.0055,300.7132" fill="none" id="Gateway-to-Auth Routes" style="stroke:#181818;stroke-width:1;"/><polygon fill="#181818" points="498.67,306.24,505.8577,299.5068,500.6162,301.6343,498.4887,296.3928,498.67,306.24" style="stroke:#181818;stroke-width:1;"/></g><!--link Gateway to SOS Routes--><g class="link" data-entity-1="ent0005" data-entity-2="ent0013" data-link-type="dependency" data-source-line="58" id="lnk40"><path d="M847.74,188.92 C833.85,218.3 808.5554,271.8161 794.7254,301.0561" fill="none" id="Gateway-to-SOS Routes" style="stroke:#181818;stroke-width:1;"/><polygon fill="#181818" points="792.16,306.48,799.624,300.0544,794.2978,301.9601,792.3922,296.6339,792.16,306.48" style="stroke:#181818;stroke-width:1;"/></g><!--link Gateway to Group Routes--><g class="link" data-entity-1="ent0005" data-entity-2="ent0014" data-link-type="dependency" data-source-line="59" id="lnk41"><path d="M864.26,188.92 C878.15,218.3 903.4446,271.8161 917.2746,301.0561" fill="none" id="Gateway-to-Group Routes" style="stroke:#181818;stroke-width:1;"/><polygon fill="#181818" points="919.84,306.48,919.6078,296.6339,917.7022,301.9601,912.376,300.0544,919.84,306.48" style="stroke:#181818;stroke-width:1;"/></g><!--link Gateway to Threat Routes--><g class="link" data-entity-1="ent0005" data-entity-2="ent0015" data-link-type="dependency" data-source-line="60" id="lnk42"><path d="M800.88,182.73 C773.5,190.25 741.02,202.22 716,220.6 C684.48,243.75 662.9169,278.1684 650.6269,300.9684" fill="none" id="Gateway-to-Threat Routes" style="stroke:#181818;stroke-width:1;"/><polygon fill="#181818" points="647.78,306.25,655.5715,300.2256,650.1525,301.8487,648.5294,296.4297,647.78,306.25" style="stroke:#181818;stroke-width:1;"/></g><!--link Gateway to AI Routes--><g class="link" data-entity-1="ent0005" data-entity-2="ent0016" data-link-type="dependency" data-source-line="61" id="lnk43"><path d="M911.18,180.19 C940.89,187.14 976.73,199.37 1003,220.6 C1031.32,243.48 1047.3033,277.6658 1055.9333,300.5558" fill="none" id="Gateway-to-AI Routes" style="stroke:#181818;stroke-width:1;"/><polygon fill="#181818" points="1058.05,306.17,1058.6178,296.3375,1056.2861,301.4915,1051.1322,299.1598,1058.05,306.17" style="stroke:#181818;stroke-width:1;"/></g><!--link Gateway to Analytics Routes--><g class="link" data-entity-1="ent0005" data-entity-2="ent0017" data-link-type="dependency" data-source-line="62" id="lnk44"><path d="M911.04,170.77 C968.22,172.42 1058.47,181.77 1125,220.6 C1160.64,241.4 1185.1151,277.5409 1198.6751,301.0809" fill="none" id="Gateway-to-Analytics Routes" style="stroke:#181818;stroke-width:1;"/><polygon fill="#181818" points="1201.67,306.28,1200.6437,296.4848,1199.1743,301.9474,1193.7116,300.4779,1201.67,306.28" style="stroke:#181818;stroke-width:1;"/></g><!--link Auth Routes to User Service--><g class="link" data-entity-1="ent0012" data-entity-2="ent0019" data-link-type="dependency" data-source-line="64" id="lnk45"><path d="M458.49,343.37 C442.51,352.22 423.35,363.47 407,374.89 C388.18,388.05 372.7348,400.9742 358.6248,413.5142" fill="none" id="Auth Routes-to-User Service" style="stroke:#181818;stroke-width:1;"/><polygon fill="#181818" points="354.14,417.5,363.5244,414.5112,357.8773,414.1785,358.21,408.5314,354.14,417.5" style="stroke:#181818;stroke-width:1;"/></g><!--link SOS Routes to SOS Service--><g class="link" data-entity-1="ent0013" data-entity-2="ent0020" data-link-type="dependency" data-source-line="65" id="lnk46"><path d="M783.84,343.3 C783.65,363.7 783.406,391.1503 783.216,411.5203" fill="none" id="SOS Routes-to-SOS Service" style="stroke:#181818;stroke-width:1;"/><polygon fill="#181818" points="783.16,417.52,787.2438,408.5577,783.2066,412.5202,779.2441,408.4831,783.16,417.52" style="stroke:#181818;stroke-width:1;"/></g><!--link Group Routes to Group Service--><g class="link" data-entity-1="ent0014" data-entity-2="ent0021" data-link-type="dependency" data-source-line="66" id="lnk47"><path d="M928.32,343.3 C928.69,363.7 929.201,391.151 929.571,411.521" fill="none" id="Group Routes-to-Group Service" style="stroke:#181818;stroke-width:1;"/><polygon fill="#181818" points="929.68,417.52,933.5159,408.4488,929.5892,412.5208,925.5172,408.5941,929.68,417.52" style="stroke:#181818;stroke-width:1;"/></g><!--link Threat Routes to Threat Detection--><g class="link" data-entity-1="ent0015" data-entity-2="ent0022" data-link-type="dependency" data-source-line="67" id="lnk48"><path d="M636.91,343.3 C634.49,363.7 631.2207,391.1922 628.7907,411.5622" fill="none" id="Threat Routes-to-Threat Detection" style="stroke:#181818;stroke-width:1;"/><polygon fill="#181818" points="628.08,417.52,633.1179,409.0572,628.6723,412.5552,625.1742,408.1096,628.08,417.52" style="stroke:#181818;stroke-width:1;"/></g><!--link AI Routes to AI Assistant--><g class="link" data-entity-1="ent0016" data-entity-2="ent0025" data-link-type="dependency" data-source-line="68" id="lnk49"><path d="M1084.61,343.36 C1095.82,351.94 1110.36,361.54 1125,366.89 C1156.07,378.25 1168.74,361.53 1199,374.89 C1220.63,384.45 1236.2624,398.9668 1248.8124,413.0768" fill="none" id="AI Routes-to-AI Assistant" style="stroke:#181818;stroke-width:1;"/><polygon fill="#181818" points="1252.8,417.56,1249.8075,408.1768,1249.477,413.824,1243.8298,413.4935,1252.8,417.56" style="stroke:#181818;stroke-width:1;"/></g><!--link Analytics Routes to Analytics Service--><g class="link" data-entity-1="ent0017" data-entity-2="ent0024" data-link-type="dependency" data-source-line="69" id="lnk50"><path d="M1262.82,343.35 C1285.5,351.79 1312.1,362.72 1335,374.89 C1358.37,387.31 1378.279,401.0347 1395.549,413.9047" fill="none" id="Analytics Routes-to-Analytics Service" style="stroke:#181818;stroke-width:1;"/><polygon fill="#181818" points="1400.36,417.49,1395.5337,408.9047,1396.3508,414.5023,1390.7533,415.3194,1400.36,417.49" style="stroke:#181818;stroke-width:1;"/></g><!--link User Service to Mongo--><g class="link" data-entity-1="ent0019" data-entity-2="ent0027" data-link-type="dependency" data-source-line="71" id="lnk51"><path d="M344.94,454.47 C358.7,478.6 380.5781,516.9777 395.5681,543.2677" fill="none" id="User Service-to-Mongo" style="stroke:#181818;stroke-width:1;"/><polygon fill="#181818" points="398.54,548.48,397.557,538.6803,396.0634,544.1364,390.6073,542.6429,398.54,548.48" style="stroke:#181818;stroke-width:1;"/></g><!--link Threat Detection to Mongo--><g class="link" data-entity-1="ent0022" data-entity-2="ent0027" data-link-type="dependency" data-source-line="72" id="lnk52"><path d="M604.5,454.61 C587.28,468.3 562.25,487.42 539,502.19 C511.91,519.4 485.4059,533.6654 460.2559,546.3654" fill="none" id="Threat Detection-to-Mongo" style="stroke:#181818;stroke-width:1;"/><polygon fill="#181818" points="454.9,549.07,464.7368,548.5837,459.3632,546.8162,461.1308,541.4426,454.9,549.07" style="stroke:#181818;stroke-width:1;"/></g><!--link SOS Service to FileStorage--><g class="link" data-entity-1="ent0020" data-entity-2="ent0028" data-link-type="dependency" data-source-line="73" id="lnk53"><path d="M768.29,454.6 C755.16,469.23 734.7,489.65 713,502.19 C702.53,508.24 697.57,504.31 687,510.19 C668.95,520.23 655.7141,531.379 642.8441,544.059" fill="none" id="SOS Service-to-FileStorage" style="stroke:#181818;stroke-width:1;"/><polygon fill="#181818" points="638.57,548.27,647.7884,544.8029,642.1317,544.7609,642.1738,539.1042,638.57,548.27" style="stroke:#181818;stroke-width:1;"/></g><!--link Threat Detection to FileStorage--><g class="link" data-entity-1="ent0022" data-entity-2="ent0028" data-link-type="dependency" data-source-line="74" id="lnk54"><path d="M624.95,454.47 C623.51,478.6 621.2499,516.2008 619.6699,542.4908" fill="none" id="Threat Detection-to-FileStorage" style="stroke:#181818;stroke-width:1;"/><polygon fill="#181818" points="619.31,548.48,623.8427,539.7362,619.61,543.489,615.8571,539.2562,619.31,548.48" style="stroke:#181818;stroke-width:1;"/></g><!--link File Upload to FileStorage--><g class="link" data-entity-1="ent0026" data-entity-2="ent0028" data-link-type="dependency" data-source-line="75" id="lnk55"><path d="M490.06,454.51 C503.21,467.82 521.96,486.47 539,502.19 C556.17,518.04 571.5183,531.3459 587.0583,544.4859" fill="none" id="File Upload-to-FileStorage" style="stroke:#181818;stroke-width:1;"/><polygon fill="#181818" points="591.64,548.36,587.3502,539.4945,587.822,545.1316,582.1848,545.6033,591.64,548.36" style="stroke:#181818;stroke-width:1;"/></g><!--link Threat Detection to Whisper API--><g class="link" data-entity-1="ent0022" data-entity-2="ent0031" data-link-type="dependency" data-source-line="77" id="lnk56"><path d="M642.86,454.47 C667.59,480.01 709.238,523.0479 733.958,548.5979" fill="none" id="Threat Detection-to-Whisper API" style="stroke:#181818;stroke-width:1;"/><polygon fill="#181818" points="738.13,552.91,734.7467,543.6605,734.6533,549.3166,728.9972,549.2232,738.13,552.91" style="stroke:#181818;stroke-width:1;"/></g><!--link AI Assistant to Gemini API--><g class="link" data-entity-1="ent0025" data-entity-2="ent0030" data-link-type="dependency" data-source-line="78" id="lnk57"><path d="M1264.12,454.47 C1259.91,480.01 1253.0655,521.4398 1248.8555,546.9898" fill="none" id="AI Assistant-to-Gemini API" style="stroke:#181818;stroke-width:1;"/><polygon fill="#181818" points="1247.88,552.91,1253.29,544.6801,1248.6929,547.9765,1245.3965,543.3794,1247.88,552.91" style="stroke:#181818;stroke-width:1;"/></g><!--link Notification Service to FCM--><g class="link" data-entity-1="ent0023" data-entity-2="ent0032" data-link-type="dependency" data-source-line="79" id="lnk58"><path d="M1083.2,454.44 C1067.46,468.71 1045.3,489.8 1028,510.19 C1016.46,523.78 1008.2506,535.4698 1000.2206,547.8198" fill="none" id="Notification Service-to-FCM" style="stroke:#181818;stroke-width:1;"/><polygon fill="#181818" points="996.95,552.85,1005.2094,547.4851,999.6755,548.6582,998.5025,543.1243,996.95,552.85" style="stroke:#181818;stroke-width:1;"/></g><!--link Notification Service to SMS Gateway--><g class="link" data-entity-1="ent0023" data-entity-2="ent0033" data-link-type="dependency" data-source-line="80" id="lnk59"><path d="M1103.13,454.47 C1103.32,480.01 1103.6354,521.3602 1103.8254,546.9102" fill="none" id="Notification Service-to-SMS Gateway" style="stroke:#181818;stroke-width:1;"/><polygon fill="#181818" points="1103.87,552.91,1107.803,543.8805,1103.8328,547.9101,1099.8032,543.94,1103.87,552.91" style="stroke:#181818;stroke-width:1;"/></g><!--link SOS Service to Maps API--><g class="link" data-entity-1="ent0020" data-entity-2="ent0034" data-link-type="dependency" data-source-line="81" id="lnk60"><path d="M796.2,454.47 C815.56,480.01 847.8064,522.5778 867.1664,548.1278" fill="none" id="SOS Service-to-Maps API" style="stroke:#181818;stroke-width:1;"/><polygon fill="#181818" points="870.79,552.91,868.5427,543.321,867.7703,548.9248,862.1664,548.1524,870.79,552.91" style="stroke:#181818;stroke-width:1;"/></g><!--link Analytics Service to Scikit-learn Model--><g class="link" data-entity-1="ent0024" data-entity-2="ent0036" data-link-type="dependency" data-source-line="83" id="lnk61"><path d="M1423,454.47 C1423,480.01 1423,521.36 1423,546.91" fill="none" id="Analytics Service-to-Scikit-learn Model" style="stroke:#181818;stroke-width:1;"/><polygon fill="#181818" points="1423,552.91,1427,543.91,1423,547.91,1419,543.91,1423,552.91" style="stroke:#181818;stroke-width:1;"/></g><!--link Scikit-learn Model to Data--><g class="link" data-entity-1="ent0036" data-entity-2="ent0037" data-link-type="dependency" data-source-line="84" id="lnk62"><path d="M1423,589.52 C1423,606.88 1423,627.9 1423,647.76" fill="none" id="Scikit-learn Model-to-Data" style="stroke:#181818;stroke-width:1;"/><polygon fill="#181818" points="1423,653.76,1427,644.76,1423,648.76,1419,644.76,1423,653.76" style="stroke:#181818;stroke-width:1;"/></g><?plantuml-src VLF9Rjim4BthArWVkXpS_441Hrxgmd8Aoq4EJWwCDBO9IwH0qcc48l_U4KdR72yzINnlbZVacqybh8K4jXYboy5yCXknGjMDaY1jafYTa0tNl3w1kMqhO1eAo-McWYHfUB7Z6s2zj1B8inblGVVOtuInrRZQMmkQPUfLLF32k0c_oKUKEFWzPHDkuGzlGzvy8-JxNShBidL9WILPz_W3ilJzsDSnDnOBVVCLZb6PACiASpLu0ekd3ulynVyEzdRBVZqjmt61RTXCr08rTz17N6cXziZ-v1BhQNEivaeupeGg-KDEWObM-uP2owq6RYasc9wT9QzQAmeJmKHH3lfD513VEAOz6hoEG4MAAE8bKIne6eB5nnLA1dYkh5YBWdVGMSP9uHa-PGDZX46Bs02DyT7POrCfNlevy2bBRlahDzqhARbHm_kUDmZ-HvpBp5jZeNPyTywjqdW5aHj6x_XcAEUW93pGQWAra8AXCxgsgwUjC0tUp-4yJZFtpRFyO39tpdXZV51ikMp6FhCXAWl5yqBiXErNmBL4tILKNVAw4znRQewDvSR5FykxGeiQlXVcpGtHWLtfBonLKlhxDedV3TRl_pWwFdmTHhr6cDXpXA3U8zIP1scdwGtymfC9KUMZg0LZSIUr9vf8Z5MVGgXK8Z-oQwJwE4NamqlnvpCT6oPq11VdVNdPDYRZmHmUc_L6AWc9r-I2lLM1kffE7UupseBh2-tZt3hyBu3ioUMuqTuaL-urrBYoDTT05zqjoZy0?></g></svg>