<svg xmlns="http://www.w3.org/2000/svg" xmlns:xlink="http://www.w3.org/1999/xlink" contentStyleType="text/css" data-diagram-type="DESCRIPTION" height="1574px" preserveAspectRatio="none" style="width:472px;height:1574px;background:#FFFFFF;" version="1.1" viewBox="0 0 472 1574" width="472px" zoomAndPan="magnify"><?plantuml 1.2026.3beta6?><defs/><g><!--cluster She Safe System--><g class="cluster" data-qualified-name="She Safe System" data-source-line="8" id="ent0006"><rect fill="none" height="1553" rx="2.5" ry="2.5" style="stroke:#181818;stroke-width:1;" width="270.41" x="188.13" y="7"/><text fill="#000000" font-family="sans-serif" font-size="14" font-weight="700" lengthAdjust="spacing" textLength="132.7266" x="256.9717" y="21.9951">She Safe System</text></g><!--entity UC2--><g class="entity" data-qualified-name="She Safe System.UC2" data-source-line="9" id="ent0007"><ellipse cx="323.3321" cy="123.9984" fill="#F1F1F1" rx="64.0421" ry="15.2084" style="stroke:#181818;stroke-width:0.5;"/><text fill="#000000" font-family="sans-serif" font-size="14" lengthAdjust="spacing" textLength="90.9111" x="277.8765" y="128.6469">Login/Logout</text></g><!--entity UC3--><g class="entity" data-qualified-name="She Safe System.UC3" data-source-line="10" id="ent0008"><ellipse cx="323.3273" cy="58.0035" fill="#F1F1F1" rx="69.1173" ry="16.2235" style="stroke:#181818;stroke-width:0.5;"/><text fill="#000000" font-family="sans-serif" font-size="14" lengthAdjust="spacing" textLength="104.1455" x="271.2545" y="62.6519">Manage Profile</text></g><!--entity UC4--><g class="entity" data-qualified-name="She Safe System.UC4" data-source-line="11" id="ent0009"><ellipse cx="323.3277" cy="720.0015" fill="#F1F1F1" rx="119.2077" ry="26.2415" style="stroke:#181818;stroke-width:0.5;"/><text fill="#000000" font-family="sans-serif" font-size="14" lengthAdjust="spacing" textLength="217.6631" x="214.4962" y="724.65">Activate SOS (with countdown)</text></g><!--entity UC5--><g class="entity" data-qualified-name="She Safe System.UC5" data-source-line="12" id="ent0010"><ellipse cx="323.3329" cy="644.0036" fill="#F1F1F1" rx="60.0429" ry="14.5236" style="stroke:#181818;stroke-width:0.5;"/><text fill="#000000" font-family="sans-serif" font-size="14" lengthAdjust="spacing" textLength="80.6709" x="282.9975" y="648.6521">Cancel SOS</text></g><!--entity UC8--><g class="entity" data-qualified-name="She Safe System.UC8" data-source-line="13" id="ent0011"><ellipse cx="323.3331" cy="571.9986" fill="#F1F1F1" rx="100.6931" ry="22.5386" style="stroke:#181818;stroke-width:0.5;"/><text fill="#000000" font-family="sans-serif" font-size="14" lengthAdjust="spacing" textLength="177.584" x="234.5411" y="576.6471">Create/Join Group Bubble</text></g><!--entity UC9--><g class="entity" data-qualified-name="She Safe System.UC9" data-source-line="14" id="ent0012"><ellipse cx="323.3341" cy="490.9988" fill="#F1F1F1" rx="103.3941" ry="23.0788" style="stroke:#181818;stroke-width:0.5;"/><text fill="#000000" font-family="sans-serif" font-size="14" lengthAdjust="spacing" textLength="183.5107" x="231.5787" y="495.6473">Share Location (real-time)</text></g><!--entity UC10--><g class="entity" data-qualified-name="She Safe System.UC10" data-source-line="15" id="ent0013"><ellipse cx="323.3261" cy="416.9952" fill="#F1F1F1" rx="66.4761" ry="15.6952" style="stroke:#181818;stroke-width:0.5;"/><text fill="#000000" font-family="sans-serif" font-size="14" lengthAdjust="spacing" textLength="97.3506" x="274.6508" y="421.6436">Report Threat</text></g><!--entity UC13--><g class="entity" data-qualified-name="She Safe System.UC13" data-source-line="16" id="ent0014"><ellipse cx="323.3335" cy="347.9967" fill="#F1F1F1" rx="78.3335" ry="18.0667" style="stroke:#181818;stroke-width:0.5;"/><text fill="#000000" font-family="sans-serif" font-size="14" lengthAdjust="spacing" textLength="126.7314" x="259.9678" y="352.6451">View Safety Score</text></g><!--entity UC14--><g class="entity" data-qualified-name="She Safe System.UC14" data-source-line="17" id="ent0015"><ellipse cx="323.3346" cy="275.0049" fill="#F1F1F1" rx="86.8246" ry="19.7649" style="stroke:#181818;stroke-width:0.5;"/><text fill="#000000" font-family="sans-serif" font-size="14" lengthAdjust="spacing" textLength="146.5146" x="250.0773" y="279.6534">Locate Police Station</text></g><!--entity UC16--><g class="entity" data-qualified-name="She Safe System.UC16" data-source-line="18" id="ent0016"><ellipse cx="323.3278" cy="196.9996" fill="#F1F1F1" rx="102.7978" ry="22.9596" style="stroke:#181818;stroke-width:0.5;"/><text fill="#000000" font-family="sans-serif" font-size="14" lengthAdjust="spacing" textLength="182.2051" x="232.2252" y="201.648">View Analytics Dashboard</text></g><!--entity UC18--><g class="entity" data-qualified-name="She Safe System.UC18" data-source-line="19" id="ent0017"><ellipse cx="323.3346" cy="932.0009" fill="#F1F1F1" rx="64.9046" ry="15.3809" style="stroke:#181818;stroke-width:0.5;"/><text fill="#000000" font-family="sans-serif" font-size="14" lengthAdjust="spacing" textLength="93.2148" x="276.7272" y="936.6494">Receive Alert</text></g><!--entity UC19--><g class="entity" data-qualified-name="She Safe System.UC19" data-source-line="20" id="ent0018"><ellipse cx="323.3301" cy="866.002" fill="#F1F1F1" rx="66.5101" ry="15.702" style="stroke:#181818;stroke-width:0.5;"/><text fill="#000000" font-family="sans-serif" font-size="14" lengthAdjust="spacing" textLength="97.4395" x="274.6104" y="870.6505">View Location</text></g><!--entity UC20--><g class="entity" data-qualified-name="She Safe System.UC20" data-source-line="21" id="ent0019"><ellipse cx="323.3333" cy="797.9987" fill="#F1F1F1" rx="72.4933" ry="16.8987" style="stroke:#181818;stroke-width:0.5;"/><text fill="#000000" font-family="sans-serif" font-size="14" lengthAdjust="spacing" textLength="112.5947" x="267.0359" y="802.6471">Respond to SOS</text></g><!--entity UC21--><g class="entity" data-qualified-name="She Safe System.UC21" data-source-line="22" id="ent0020"><ellipse cx="323.3259" cy="998.9992" fill="#F1F1F1" rx="71.3959" ry="16.6792" style="stroke:#181818;stroke-width:0.5;"/><text fill="#000000" font-family="sans-serif" font-size="14" lengthAdjust="spacing" textLength="109.874" x="268.3889" y="1003.6476">Monitor System</text></g><!--entity UC22--><g class="entity" data-qualified-name="She Safe System.UC22" data-source-line="23" id="ent0021"><ellipse cx="323.3329" cy="1203.0026" fill="#F1F1F1" rx="67.2129" ry="15.8426" style="stroke:#181818;stroke-width:0.5;"/><text fill="#000000" font-family="sans-serif" font-size="14" lengthAdjust="spacing" textLength="99.2646" x="273.7006" y="1207.651">Manage Users</text></g><!--entity UC23--><g class="entity" data-qualified-name="She Safe System.UC23" data-source-line="24" id="ent0022"><ellipse cx="323.332" cy="1136.0004" fill="#F1F1F1" rx="68.102" ry="16.0204" style="stroke:#181818;stroke-width:0.5;"/><text fill="#000000" font-family="sans-serif" font-size="14" lengthAdjust="spacing" textLength="101.5547" x="272.5546" y="1140.6488">View Analytics</text></g><!--entity UC24--><g class="entity" data-qualified-name="She Safe System.UC24" data-source-line="25" id="ent0023"><ellipse cx="323.3304" cy="1068.0001" fill="#F1F1F1" rx="74.4004" ry="17.2801" style="stroke:#181818;stroke-width:0.5;"/><text fill="#000000" font-family="sans-serif" font-size="14" lengthAdjust="spacing" textLength="117.2705" x="264.6952" y="1072.6485">Update Datasets</text></g><!--entity UC25--><g class="entity" data-qualified-name="She Safe System.UC25" data-source-line="26" id="ent0024"><ellipse cx="323.3268" cy="1527.9974" fill="#F1F1F1" rx="66.0368" ry="15.6074" style="stroke:#181818;stroke-width:0.5;"/><text fill="#000000" font-family="sans-serif" font-size="14" lengthAdjust="spacing" textLength="96.2021" x="275.2257" y="1532.6458">FCM Gateway</text></g><!--entity UC26--><g class="entity" data-qualified-name="She Safe System.UC26" data-source-line="27" id="ent0025"><ellipse cx="323.3259" cy="1462.0032" fill="#F1F1F1" rx="66.0159" ry="15.6032" style="stroke:#181818;stroke-width:0.5;"/><text fill="#000000" font-family="sans-serif" font-size="14" lengthAdjust="spacing" textLength="96.1475" x="275.2522" y="1466.6516">SMS Gateway</text></g><!--entity UC27--><g class="entity" data-qualified-name="She Safe System.UC27" data-source-line="28" id="ent0026"><ellipse cx="323.328" cy="1397.0036" fill="#F1F1F1" rx="56.988" ry="14.5236" style="stroke:#181818;stroke-width:0.5;"/><text fill="#000000" font-family="sans-serif" font-size="14" lengthAdjust="spacing" textLength="76.3506" x="285.1527" y="1401.6521">Gemini API</text></g><!--entity UC28--><g class="entity" data-qualified-name="She Safe System.UC28" data-source-line="29" id="ent0027"><ellipse cx="323.3271" cy="1333.0036" fill="#F1F1F1" rx="47.8571" ry="14.5236" style="stroke:#181818;stroke-width:0.5;"/><text fill="#000000" font-family="sans-serif" font-size="14" lengthAdjust="spacing" textLength="63.4375" x="291.6083" y="1337.6521">Maps API</text></g><!--entity UC29--><g class="entity" data-qualified-name="She Safe System.UC29" data-source-line="30" id="ent0028"><ellipse cx="323.3261" cy="1268.9952" fill="#F1F1F1" rx="61.4261" ry="14.6852" style="stroke:#181818;stroke-width:0.5;"/><text fill="#000000" font-family="sans-serif" font-size="14" lengthAdjust="spacing" textLength="83.7539" x="281.4491" y="1273.6437">Whisper API</text></g><!--entity User--><g class="entity" data-qualified-name="User" data-source-line="3" id="ent0002"><ellipse cx="75.0651" cy="353.35" fill="#F1F1F1" rx="8" ry="8" style="stroke:#181818;stroke-width:0.5;"/><path d="M75.0651,361.35 L75.0651,388.35 M62.0651,369.35 L88.0651,369.35 M75.0651,388.35 L62.0651,403.35 M75.0651,388.35 L88.0651,403.35" fill="none" style="stroke:#181818;stroke-width:0.5;"/><text fill="#000000" font-family="sans-serif" font-size="14" lengthAdjust="spacing" textLength="31.9102" x="59.11" y="417.8451">User</text></g><!--entity Contact--><g class="entity" data-qualified-name="Contact" data-source-line="4" id="ent0003"><ellipse cx="75.0635" cy="836.35" fill="#F1F1F1" rx="8" ry="8" style="stroke:#181818;stroke-width:0.5;"/><path d="M75.0635,844.35 L75.0635,871.35 M62.0635,852.35 L88.0635,852.35 M75.0635,871.35 L62.0635,886.35 M75.0635,871.35 L88.0635,886.35" fill="none" style="stroke:#181818;stroke-width:0.5;"/><text fill="#000000" font-family="sans-serif" font-size="14" lengthAdjust="spacing" textLength="138.127" x="6" y="900.8451">Emergency Contact</text></g><!--entity Admin--><g class="entity" data-qualified-name="Admin" data-source-line="5" id="ent0004"><ellipse cx="75.0636" cy="1072.35" fill="#F1F1F1" rx="8" ry="8" style="stroke:#181818;stroke-width:0.5;"/><path d="M75.0636,1080.35 L75.0636,1107.35 M62.0636,1088.35 L88.0636,1088.35 M75.0636,1107.35 L62.0636,1122.35 M75.0636,1107.35 L88.0636,1122.35" fill="none" style="stroke:#181818;stroke-width:0.5;"/><text fill="#000000" font-family="sans-serif" font-size="14" lengthAdjust="spacing" textLength="101.7871" x="24.17" y="1136.8451">Admin/System</text></g><!--entity ExtServices--><g class="entity" data-qualified-name="ExtServices" data-source-line="6" id="ent0005"><ellipse cx="75.0682" cy="1367.35" fill="#F1F1F1" rx="8" ry="8" style="stroke:#181818;stroke-width:0.5;"/><path d="M75.0682,1375.35 L75.0682,1402.35 M62.0682,1383.35 L88.0682,1383.35 M75.0682,1402.35 L62.0682,1417.35 M75.0682,1402.35 L88.0682,1417.35" fill="none" style="stroke:#181818;stroke-width:0.5;"/><text fill="#000000" font-family="sans-serif" font-size="14" lengthAdjust="spacing" textLength="121.8164" x="14.16" y="1431.8451">External Services</text></g><!--link User to UC2--><g class="link" data-entity-1="ent0002" data-entity-2="ent0007" data-link-type="dependency" data-source-line="32" id="lnk29"><path d="M82.93,344.65 C94.1,293.83 121.19,205.02 180.13,157 C202.43,138.83 226.9712,131.145 253.9912,127.255" fill="none" id="User-to-UC2" style="stroke:#181818;stroke-width:1;"/><polygon fill="#181818" points="259.93,126.4,250.4519,123.7233,254.981,127.1125,251.5918,131.6417,259.93,126.4" style="stroke:#181818;stroke-width:1;"/></g><!--link User to UC3--><g class="link" data-entity-1="ent0002" data-entity-2="ent0008" data-link-type="dependency" data-source-line="33" id="lnk30"><path d="M78.39,344.39 C84.34,281.58 105.42,157.62 180.13,91 C200.37,72.95 222.6015,65.1437 248.5315,61.1037" fill="none" id="User-to-UC3" style="stroke:#181818;stroke-width:1;"/><polygon fill="#181818" points="254.46,60.18,244.9515,57.6132,249.5196,60.9497,246.1831,65.5178,254.46,60.18" style="stroke:#181818;stroke-width:1;"/></g><!--link User to UC4--><g class="link" data-entity-1="ent0002" data-entity-2="ent0009" data-link-type="dependency" data-source-line="34" id="lnk31"><path d="M78.93,421.4 C85.63,483.64 107.78,606.57 180.13,676 C193.37,688.7 204.5712,695.6723 221.9912,702.1023" fill="none" id="User-to-UC4" style="stroke:#181818;stroke-width:1;"/><polygon fill="#181818" points="227.62,704.18,220.5619,697.311,222.9293,702.4486,217.7917,704.816,227.62,704.18" style="stroke:#181818;stroke-width:1;"/></g><!--link User to UC5--><g class="link" data-entity-1="ent0002" data-entity-2="ent0010" data-link-type="dependency" data-source-line="35" id="lnk32"><path d="M82.64,421.47 C93.52,472.94 120.33,563.37 180.13,612 C203.29,630.84 229.3654,638.3729 257.1554,641.8129" fill="none" id="User-to-UC5" style="stroke:#181818;stroke-width:1;"/><polygon fill="#181818" points="263.11,642.55,254.6696,637.4747,258.1479,641.9358,253.6868,645.4141,263.11,642.55" style="stroke:#181818;stroke-width:1;"/></g><!--link User to UC8--><g class="link" data-entity-1="ent0002" data-entity-2="ent0011" data-link-type="dependency" data-source-line="36" id="lnk33"><path d="M91.47,417.49 C108.42,451.55 138.84,502.67 180.13,532 C197.79,544.55 213.5183,551.5308 234.3983,557.4608" fill="none" id="User-to-UC8" style="stroke:#181818;stroke-width:1;"/><polygon fill="#181818" points="240.17,559.1,232.6052,552.7934,235.3602,557.734,230.4196,560.489,240.17,559.1" style="stroke:#181818;stroke-width:1;"/></g><!--link User to UC9--><g class="link" data-entity-1="ent0002" data-entity-2="ent0012" data-link-type="dependency" data-source-line="37" id="lnk34"><path d="M91.45,394.97 C111.07,409.72 146.48,434.72 180.13,450 C202,459.94 221.0902,466.4693 243.8402,472.8093" fill="none" id="User-to-UC9" style="stroke:#181818;stroke-width:1;"/><polygon fill="#181818" points="249.62,474.42,242.0242,468.1508,244.8035,473.0777,239.8766,475.8571,249.62,474.42" style="stroke:#181818;stroke-width:1;"/></g><!--link User to UC10--><g class="link" data-entity-1="ent0002" data-entity-2="ent0013" data-link-type="dependency" data-source-line="38" id="lnk35"><path d="M91.47,385.13 C125.48,389.82 202.5164,400.4593 259.1464,408.2793" fill="none" id="User-to-UC10" style="stroke:#181818;stroke-width:1;"/><polygon fill="#181818" points="265.09,409.1,256.7218,403.9065,260.137,408.416,255.6274,411.8313,265.09,409.1" style="stroke:#181818;stroke-width:1;"/></g><!--link User to UC13--><g class="link" data-entity-1="ent0002" data-entity-2="ent0014" data-link-type="dependency" data-source-line="39" id="lnk36"><path d="M91.47,380.81 C123.64,376.24 193.6696,366.2836 249.7196,358.3236" fill="none" id="User-to-UC13" style="stroke:#181818;stroke-width:1;"/><polygon fill="#181818" points="255.66,357.48,246.187,354.7852,250.7097,358.183,247.3118,362.7057,255.66,357.48" style="stroke:#181818;stroke-width:1;"/></g><!--link User to UC14--><g class="link" data-entity-1="ent0002" data-entity-2="ent0015" data-link-type="dependency" data-source-line="40" id="lnk37"><path d="M91.26,370.11 C110.68,354.27 145.88,327.57 180.13,312 C203.58,301.34 224.8348,294.7267 249.0248,288.9367" fill="none" id="User-to-UC14" style="stroke:#181818;stroke-width:1;"/><polygon fill="#181818" points="254.86,287.54,245.1761,285.7449,249.9974,288.7039,247.0384,293.5251,254.86,287.54" style="stroke:#181818;stroke-width:1;"/></g><!--link User to UC16--><g class="link" data-entity-1="ent0002" data-entity-2="ent0016" data-link-type="dependency" data-source-line="41" id="lnk38"><path d="M91.42,350.11 C108.53,317.01 139.24,266.85 180.13,238 C197.76,225.56 213.3704,218.5413 234.1304,212.4813" fill="none" id="User-to-UC16" style="stroke:#181818;stroke-width:1;"/><polygon fill="#181818" points="239.89,210.8,230.1297,209.4822,235.0903,212.2011,232.3714,217.1617,239.89,210.8" style="stroke:#181818;stroke-width:1;"/></g><!--link Contact to UC18--><g class="link" data-entity-1="ent0003" data-entity-2="ent0017" data-link-type="dependency" data-source-line="43" id="lnk39"><path d="M144.41,888.52 C156.27,892.18 168.52,895.82 180.13,899 C211.05,907.48 240.271,914.3367 267.861,920.4267" fill="none" id="Contact-to-UC18" style="stroke:#181818;stroke-width:1;"/><polygon fill="#181818" points="273.72,921.72,265.7937,915.8741,268.8375,920.6423,264.0694,923.6861,273.72,921.72" style="stroke:#181818;stroke-width:1;"/></g><!--link Contact to UC19--><g class="link" data-entity-1="ent0003" data-entity-2="ent0018" data-link-type="dependency" data-source-line="44" id="lnk40"><path d="M144.34,866 C179.35,866 215.81,866 250.48,866" fill="none" id="Contact-to-UC19" style="stroke:#181818;stroke-width:1;"/><polygon fill="#181818" points="256.48,866,247.48,862,251.48,866,247.48,870,256.48,866" style="stroke:#181818;stroke-width:1;"/></g><!--link Contact to UC20--><g class="link" data-entity-1="ent0003" data-entity-2="ent0019" data-link-type="dependency" data-source-line="45" id="lnk41"><path d="M144.44,843.61 C156.3,839.93 168.54,836.26 180.13,833 C209.86,824.64 237.5728,817.7181 264.6128,811.2881" fill="none" id="Contact-to-UC20" style="stroke:#181818;stroke-width:1;"/><polygon fill="#181818" points="270.45,809.9,260.7688,808.0906,265.5856,811.0567,262.6195,815.8736,270.45,809.9" style="stroke:#181818;stroke-width:1;"/></g><!--link Admin to UC21--><g class="link" data-entity-1="ent0004" data-entity-2="ent0020" data-link-type="dependency" data-source-line="47" id="lnk42"><path d="M126.42,1063.48 C142.85,1052.34 161.64,1041.04 180.13,1033 C206.32,1021.61 231.0711,1014.8696 257.1911,1009.5396" fill="none" id="Admin-to-UC21" style="stroke:#181818;stroke-width:1;"/><polygon fill="#181818" points="263.07,1008.34,253.452,1006.2202,258.171,1009.3397,255.0515,1014.0587,263.07,1008.34" style="stroke:#181818;stroke-width:1;"/></g><!--link Admin to UC22--><g class="link" data-entity-1="ent0004" data-entity-2="ent0021" data-link-type="dependency" data-source-line="48" id="lnk43"><path d="M126.45,1140.02 C142.89,1150.99 161.67,1162.12 180.13,1170 C207.17,1181.54 233.0088,1188.2625 259.6288,1193.4025" fill="none" id="Admin-to-UC22" style="stroke:#181818;stroke-width:1;"/><polygon fill="#181818" points="265.52,1194.54,257.4416,1188.9063,260.6107,1193.5921,255.9249,1196.7612,265.52,1194.54" style="stroke:#181818;stroke-width:1;"/></g><!--link Admin to UC23--><g class="link" data-entity-1="ent0004" data-entity-2="ent0022" data-link-type="dependency" data-source-line="49" id="lnk44"><path d="M126.2,1108.92 C166,1114.42 215.7763,1121.2899 257.6663,1127.0699" fill="none" id="Admin-to-UC23" style="stroke:#181818;stroke-width:1;"/><polygon fill="#181818" points="263.61,1127.89,255.2412,1122.6974,258.6569,1127.2066,254.1477,1130.6223,263.61,1127.89" style="stroke:#181818;stroke-width:1;"/></g><!--link Admin to UC24--><g class="link" data-entity-1="ent0004" data-entity-2="ent0023" data-link-type="dependency" data-source-line="50" id="lnk45"><path d="M126.2,1095.08 C164.45,1089.8 211.4665,1083.3113 252.7165,1077.6113" fill="none" id="Admin-to-UC24" style="stroke:#181818;stroke-width:1;"/><polygon fill="#181818" points="258.66,1076.79,249.1972,1074.0596,253.7071,1077.4744,250.2922,1081.9843,258.66,1076.79" style="stroke:#181818;stroke-width:1;"/></g><!--link ExtServices to UC25--><g class="link" data-entity-1="ent0005" data-entity-2="ent0024" data-link-type="dependency" data-source-line="52" id="lnk46"><path d="M107.54,1435.24 C126.52,1455.88 152.34,1480.12 180.13,1495 C205.49,1508.58 230.4032,1515.5563 256.8632,1520.2763" fill="none" id="ExtServices-to-UC25" style="stroke:#181818;stroke-width:1;"/><polygon fill="#181818" points="262.77,1521.33,254.6123,1515.8117,257.8477,1520.4519,253.2074,1523.6873,262.77,1521.33" style="stroke:#181818;stroke-width:1;"/></g><!--link ExtServices to UC26--><g class="link" data-entity-1="ent0005" data-entity-2="ent0025" data-link-type="dependency" data-source-line="53" id="lnk47"><path d="M136.39,1416.34 C150.67,1420.7 165.89,1425.16 180.13,1429 C210.84,1437.27 239.7627,1444.0693 267.2327,1450.1693" fill="none" id="ExtServices-to-UC26" style="stroke:#181818;stroke-width:1;"/><polygon fill="#181818" points="273.09,1451.47,265.1711,1445.6141,268.2089,1450.3861,263.4369,1453.4239,273.09,1451.47" style="stroke:#181818;stroke-width:1;"/></g><!--link ExtServices to UC27--><g class="link" data-entity-1="ent0005" data-entity-2="ent0026" data-link-type="dependency" data-source-line="54" id="lnk48"><path d="M136.31,1397 C175.9,1397 221.34,1397 260.09,1397" fill="none" id="ExtServices-to-UC27" style="stroke:#181818;stroke-width:1;"/><polygon fill="#181818" points="266.09,1397,257.09,1393,261.09,1397,257.09,1401,266.09,1397" style="stroke:#181818;stroke-width:1;"/></g><!--link ExtServices to UC28--><g class="link" data-entity-1="ent0005" data-entity-2="ent0027" data-link-type="dependency" data-source-line="55" id="lnk49"><path d="M136.37,1377.6 C150.65,1373.24 165.88,1368.79 180.13,1365 C214.49,1355.87 248.0988,1348.3566 276.7288,1342.3266" fill="none" id="ExtServices-to-UC28" style="stroke:#181818;stroke-width:1;"/><polygon fill="#181818" points="282.6,1341.09,272.9688,1339.0307,277.7073,1342.1205,274.6176,1346.859,282.6,1341.09" style="stroke:#181818;stroke-width:1;"/></g><!--link ExtServices to UC29--><g class="link" data-entity-1="ent0005" data-entity-2="ent0028" data-link-type="dependency" data-source-line="56" id="lnk50"><path d="M108.55,1358.53 C127.47,1338.5 152.92,1315.28 180.13,1301 C206.68,1287.07 233.1991,1280.1512 260.3891,1275.6912" fill="none" id="ExtServices-to-UC29" style="stroke:#181818;stroke-width:1;"/><polygon fill="#181818" points="266.31,1274.72,256.7812,1272.2296,261.3759,1275.5293,258.0762,1280.1241,266.31,1274.72" style="stroke:#181818;stroke-width:1;"/></g><?plantuml-src TLHDZzem4BtdLumuRGzebwzTk5IYR8jQBIggo_Pid85O6-p8Dj2ewd_lE8sf7UWbyhptFEDvdhZ4dGEdmSXzuI2N1eMJMcNsJQgA6tw0YeitlaVcwXB1qrpjIyouSDh0ng9fbxsF1pHxLAA6XLQEm1vm6zP1DCyFKjspsZeyD7m3N5ByT6WKBu6XEKc1jf4G6k8ikvm0Ugn0O7n7dpRThmpWQ55mI-oBtbCb-khZtvDi5iEONt55RS7Qw9qiiLMCOiMSh3XnH_c_ChWxIrU0q4VbSdrMxzeDutZ3WYk1fPUtx2HX3LAo-ozQAbWQVQpWmt6xlPIUnbfMS8FmeWNtjm5tjBNiEtd0K7SMgxzXfOs3xuMlq0e63x7YLUAvyShLm8GseUXWb5ecVBjhNPBNm5nJF2Z7L_dcT5ErayB2CxV5LdEJ1_5ZUZo1yeGmBz5SZZUzIXUw3OfEYxRIAlUZ-i_UOTBZIYlffoWQBf8CRjovdreR1CF_znKaYKcRAlScFND7eRje4di-BLQm9DMPru5FHe6jM9TF75iY_HGIvklFWNvAswXiJ2PU_YYahT34_2mZWMyQ-lttxNyGXQCq7AVX90sdQJXBmsRguhYJUz19JeD2GFj616nw3Ssk8BfxmfhN8o23BZ3i0gCkCFP9elSbu9FRyEDj-EasFBqDpxBVVm00?></g></svg>