<svg xmlns="http://www.w3.org/2000/svg" xmlns:xlink="http://www.w3.org/1999/xlink" contentStyleType="text/css" data-diagram-type="DESCRIPTION" height="286px" preserveAspectRatio="none" style="width:895px;height:286px;background:#FFFFFF;" version="1.1" viewBox="0 0 895 286" width="895px" zoomAndPan="magnify"><?plantuml 1.2026.3beta6?><defs/><g><g class="title" data-source-line="1"><text fill="#000000" font-family="sans-serif" font-size="14" font-weight="700" lengthAdjust="spacing" textLength="217.1025" x="335.8064" y="22.9951">DEVELOPMENT WORKFLOW</text></g><!--entity FB--><g class="entity" data-qualified-name="FB" data-source-line="5" id="ent0002"><rect fill="#F1F1F1" height="52.5938" rx="2.5" ry="2.5" style="stroke:#181818;stroke-width:0.5;" width="75.3301" x="7" y="176.2969"/><text fill="#000000" font-family="sans-serif" font-size="14" lengthAdjust="spacing" textLength="53.9766" x="17" y="199.292">Feature</text><text fill="#000000" font-family="sans-serif" font-size="14" lengthAdjust="spacing" textLength="55.3301" x="17" y="215.5889">Backlog</text></g><!--entity DB--><g class="entity" data-qualified-name="DB" data-source-line="6" id="ent0003"><rect fill="#F1F1F1" height="52.5938" rx="2.5" ry="2.5" style="stroke:#181818;stroke-width:0.5;" width="77.6338" x="142.33" y="176.2969"/><text fill="#000000" font-family="sans-serif" font-size="14" lengthAdjust="spacing" textLength="57.6338" x="152.33" y="199.292">Develop</text><text fill="#000000" font-family="sans-serif" font-size="14" lengthAdjust="spacing" textLength="49.3828" x="152.33" y="215.5889">Branch</text></g><!--entity CR--><g class="entity" data-qualified-name="CR" data-source-line="7" id="ent0004"><rect fill="#F1F1F1" height="52.5938" rx="2.5" ry="2.5" style="stroke:#181818;stroke-width:0.5;" width="70.5791" x="279.96" y="132.2969"/><text fill="#000000" font-family="sans-serif" font-size="14" lengthAdjust="spacing" textLength="35.8408" x="289.96" y="155.292">Code</text><text fill="#000000" font-family="sans-serif" font-size="14" lengthAdjust="spacing" textLength="50.5791" x="289.96" y="171.5889">Review</text></g><!--entity PR--><g class="entity" data-qualified-name="PR" data-source-line="8" id="ent0005"><rect fill="#F1F1F1" height="52.5938" rx="2.5" ry="2.5" style="stroke:#181818;stroke-width:0.5;" width="77.4971" x="410.54" y="88.2969"/><text fill="#000000" font-family="sans-serif" font-size="14" lengthAdjust="spacing" textLength="25.0947" x="420.54" y="111.292">Pull</text><text fill="#000000" font-family="sans-serif" font-size="14" lengthAdjust="spacing" textLength="57.4971" x="420.54" y="127.5889">Request</text></g><!--entity STG--><g class="entity" data-qualified-name="STG" data-source-line="9" id="ent0006"><rect fill="#F1F1F1" height="52.5938" rx="2.5" ry="2.5" style="stroke:#181818;stroke-width:0.5;" width="69.0205" x="549.33" y="44.2969"/><text fill="#000000" font-family="sans-serif" font-size="14" lengthAdjust="spacing" textLength="49.0205" x="559.33" y="67.292">Deploy</text><text fill="#000000" font-family="sans-serif" font-size="14" lengthAdjust="spacing" textLength="41.7676" x="559.33" y="83.5889">to Stg</text></g><!--entity WT--><g class="entity" data-qualified-name="WT" data-source-line="11" id="ent0007"><rect fill="#F1F1F1" height="52.5938" rx="2.5" ry="2.5" style="stroke:#181818;stroke-width:0.5;" width="57.5908" x="286.46" y="220.2969"/><text fill="#000000" font-family="sans-serif" font-size="14" lengthAdjust="spacing" textLength="37.5908" x="296.46" y="243.292">Write</text><text fill="#000000" font-family="sans-serif" font-size="14" lengthAdjust="spacing" textLength="37.2422" x="296.46" y="259.5889">Tests</text></g><!--entity RL--><g class="entity" data-qualified-name="RL" data-source-line="12" id="ent0008"><rect fill="#F1F1F1" height="52.5938" rx="2.5" ry="2.5" style="stroke:#181818;stroke-width:0.5;" width="68.7061" x="414.94" y="176.2969"/><text fill="#000000" font-family="sans-serif" font-size="14" lengthAdjust="spacing" textLength="27.4736" x="424.94" y="199.292">Run</text><text fill="#000000" font-family="sans-serif" font-size="14" lengthAdjust="spacing" textLength="48.7061" x="424.94" y="215.5889">Locally</text></g><!--entity QA--><g class="entity" data-qualified-name="QA" data-source-line="13" id="ent0009"><rect fill="#F1F1F1" height="52.5938" rx="2.5" ry="2.5" style="stroke:#181818;stroke-width:0.5;" width="71.5977" x="548.04" y="132.2969"/><text fill="#000000" font-family="sans-serif" font-size="14" lengthAdjust="spacing" textLength="20.5967" x="558.04" y="155.292">QA</text><text fill="#000000" font-family="sans-serif" font-size="14" lengthAdjust="spacing" textLength="51.5977" x="558.04" y="171.5889">Testing</text></g><!--entity MM--><g class="entity" data-qualified-name="MM" data-source-line="14" id="ent0010"><rect fill="#F1F1F1" height="52.5938" rx="2.5" ry="2.5" style="stroke:#181818;stroke-width:0.5;" width="71.9258" x="679.64" y="44.2969"/><text fill="#000000" font-family="sans-serif" font-size="14" lengthAdjust="spacing" textLength="43.9482" x="689.64" y="67.292">Merge</text><text fill="#000000" font-family="sans-serif" font-size="14" lengthAdjust="spacing" textLength="51.9258" x="689.64" y="83.5889">to Main</text></g><!--entity PROD--><g class="entity" data-qualified-name="PROD" data-source-line="15" id="ent0011"><rect fill="#F1F1F1" height="52.5938" rx="2.5" ry="2.5" style="stroke:#181818;stroke-width:0.5;" width="70.1553" x="811.56" y="44.2969"/><text fill="#000000" font-family="sans-serif" font-size="14" lengthAdjust="spacing" textLength="49.0205" x="821.56" y="67.292">Deploy</text><text fill="#000000" font-family="sans-serif" font-size="14" lengthAdjust="spacing" textLength="50.1553" x="821.56" y="83.5889">to Prod</text></g><!--link FB to DB--><g class="link" data-entity-1="ent0002" data-entity-2="ent0003" data-link-type="dependency" data-source-line="17" id="lnk12"><path d="M82.77,202.5869 C101.27,202.5869 117.61,202.5869 136.23,202.5869" fill="none" id="FB-to-DB" style="stroke:#181818;stroke-width:1;"/><polygon fill="#181818" points="142.23,202.5869,133.23,198.5869,137.23,202.5869,133.23,206.5869,142.23,202.5869" style="stroke:#181818;stroke-width:1;"/></g><!--link DB to CR--><g class="link" data-entity-1="ent0003" data-entity-2="ent0004" data-link-type="dependency" data-source-line="18" id="lnk13"><path d="M220.36,189.8669 C239.1,183.6169 255.8173,178.0524 274.0473,171.9824" fill="none" id="DB-to-CR" style="stroke:#181818;stroke-width:1;"/><polygon fill="#181818" points="279.74,170.0869,269.9373,169.135,274.9961,171.6665,272.4646,176.7253,279.74,170.0869" style="stroke:#181818;stroke-width:1;"/></g><!--link CR to PR--><g class="link" data-entity-1="ent0004" data-entity-2="ent0005" data-link-type="dependency" data-source-line="19" id="lnk14"><path d="M350.94,147.0269 C369.13,140.9669 385.7482,135.4352 404.4282,129.2052" fill="none" id="CR-to-PR" style="stroke:#181818;stroke-width:1;"/><polygon fill="#181818" points="410.12,127.3069,400.3168,126.3598,405.3768,128.8888,402.8478,133.9488,410.12,127.3069" style="stroke:#181818;stroke-width:1;"/></g><!--link PR to STG--><g class="link" data-entity-1="ent0005" data-entity-2="ent0006" data-link-type="dependency" data-source-line="20" id="lnk15"><path d="M488.27,101.9769 C507.4,95.6369 524.6954,89.8869 543.2254,83.7369" fill="none" id="PR-to-STG" style="stroke:#181818;stroke-width:1;"/><polygon fill="#181818" points="548.92,81.8469,539.1182,80.8855,544.1745,83.4219,541.6382,88.4782,548.92,81.8469" style="stroke:#181818;stroke-width:1;"/></g><!--link DB to WT--><g class="link" data-entity-1="ent0003" data-entity-2="ent0007" data-link-type="dependency" data-source-line="22" id="lnk16"><path d="M220.36,215.3169 C241.39,222.3169 261.337,228.9722 280.507,235.3522" fill="none" id="DB-to-WT" style="stroke:#181818;stroke-width:1;"/><polygon fill="#181818" points="286.2,237.2469,278.9236,230.6095,281.4558,235.668,276.3974,238.2002,286.2,237.2469" style="stroke:#181818;stroke-width:1;"/></g><!--link CR to RL--><g class="link" data-entity-1="ent0004" data-entity-2="ent0008" data-link-type="dependency" data-source-line="23" id="lnk17"><path d="M350.94,170.1469 C370.66,176.7169 389.5273,183.0113 409.0473,189.5113" fill="none" id="CR-to-RL" style="stroke:#181818;stroke-width:1;"/><polygon fill="#181818" points="414.74,191.4069,407.4647,184.7683,409.9961,189.8272,404.9372,192.3586,414.74,191.4069" style="stroke:#181818;stroke-width:1;"/></g><!--link PR to QA--><g class="link" data-entity-1="ent0005" data-entity-2="ent0009" data-link-type="dependency" data-source-line="24" id="lnk18"><path d="M488.27,127.1969 C506.94,133.3969 523.5954,138.927 541.8854,144.997" fill="none" id="PR-to-QA" style="stroke:#181818;stroke-width:1;"/><polygon fill="#181818" points="547.58,146.8869,540.298,140.2556,542.8345,145.312,537.7782,147.8484,547.58,146.8869" style="stroke:#181818;stroke-width:1;"/></g><!--link STG to MM--><g class="link" data-entity-1="ent0006" data-entity-2="ent0010" data-link-type="dependency" data-source-line="25" id="lnk19"><path d="M618.59,70.5869 C637.22,70.5869 654.32,70.5869 673.2,70.5869" fill="none" id="STG-to-MM" style="stroke:#181818;stroke-width:1;"/><polygon fill="#181818" points="679.2,70.5869,670.2,66.5869,674.2,70.5869,670.2,74.5869,679.2,70.5869" style="stroke:#181818;stroke-width:1;"/></g><!--link MM to PROD--><g class="link" data-entity-1="ent0010" data-entity-2="ent0011" data-link-type="dependency" data-source-line="26" id="lnk20"><path d="M751.86,70.5869 C770.37,70.5869 786.95,70.5869 805.31,70.5869" fill="none" id="MM-to-PROD" style="stroke:#181818;stroke-width:1;"/><polygon fill="#181818" points="811.31,70.5869,802.31,66.5869,806.31,70.5869,802.31,74.5869,811.31,70.5869" style="stroke:#181818;stroke-width:1;"/></g><?plantuml-src TP31ReCm44Jl_Wehz_n2fO2XX-BWEAXSk5Ym9LOjEpKcKVu-Yyq13hsDz6PtPpReO82ouhkeQi6BSqFRMdwLLTqIOk0dqE2er-Cjq45xw8Dsbf15A3lYuA445MOFdSrK_slSUA1gecMsjJ1uW75tj7Xb-rjqi9qZTmDkaF3Gy8mubriiPcCM_3V3528NSd_WRjohinZr6bA2Q_EvYzbw7V14WmkcQ6YRBPQpxMpbUcNCAs9PRV7bb4QrJTilfotbu4U8rxdIDXeu_oUVy6vO6zICa3AZn-F7yWsM51RFPLHOKIGLkwmSOwyS4wuSqw0bIhpB-JfUipS0?></g></svg>